G04 #@! TF.GenerationSoftware,KiCad,Pcbnew,(5.1.5)-3*
G04 #@! TF.CreationDate,2020-06-16T12:54:06-04:00*
G04 #@! TF.ProjectId,DC-Supply-170V-v1,44432d53-7570-4706-9c79-2d313730562d,rev?*
G04 #@! TF.SameCoordinates,Original*
G04 #@! TF.FileFunction,Copper,L2,Bot*
G04 #@! TF.FilePolarity,Positive*
%FSLAX46Y46*%
G04 Gerber Fmt 4.6, Leading zero omitted, Abs format (unit mm)*
G04 Created by KiCad (PCBNEW (5.1.5)-3) date 2020-06-16 12:54:06*
%MOMM*%
%LPD*%
G04 APERTURE LIST*
%ADD10O,1.700000X1.700000*%
%ADD11R,1.700000X1.700000*%
%ADD12C,2.413000*%
%ADD13C,6.985000*%
%ADD14O,1.800000X1.800000*%
%ADD15R,1.800000X1.800000*%
%ADD16C,1.524000*%
%ADD17C,2.540000*%
%ADD18C,2.286000*%
%ADD19R,2.286000X2.286000*%
%ADD20C,2.159000*%
%ADD21C,0.762000*%
%ADD22C,0.254000*%
G04 APERTURE END LIST*
D10*
X163322000Y-79832200D03*
D11*
X163322000Y-77292200D03*
D10*
X163322000Y-65659000D03*
D11*
X163322000Y-68199000D03*
X100838000Y-96393000D03*
D10*
X103378000Y-96393000D03*
X103378000Y-102489000D03*
D11*
X100838000Y-102489000D03*
X100838000Y-108585000D03*
D10*
X103378000Y-108585000D03*
D12*
X90525600Y-60909200D03*
X90525600Y-65909200D03*
X90525600Y-80909200D03*
X90525600Y-75909200D03*
D13*
X78740000Y-45720000D03*
X162560000Y-45720000D03*
X78740000Y-114300000D03*
X162560000Y-114300000D03*
D14*
X133273800Y-100761800D03*
X133273800Y-98221800D03*
D15*
X133273800Y-95681800D03*
D16*
X98069400Y-87858600D03*
X93091000Y-87858600D03*
D17*
X80264000Y-68326000D03*
X80264000Y-72136000D03*
X80264000Y-89916000D03*
X80264000Y-86106000D03*
X161036000Y-90805000D03*
X161036000Y-86995000D03*
X161036000Y-102489000D03*
X161036000Y-106299000D03*
D11*
X100838000Y-114681000D03*
D10*
X103378000Y-114681000D03*
D18*
X126085600Y-65986000D03*
D19*
X126085600Y-78486000D03*
D20*
X103098600Y-78486000D03*
X103098600Y-73406000D03*
X103098600Y-68326000D03*
X103098600Y-63246000D03*
D16*
X152260286Y-47853600D03*
X148844002Y-73025000D03*
X148920200Y-68503800D03*
X143611600Y-68808600D03*
X148945600Y-62941200D03*
X127711200Y-102412800D03*
X134761357Y-46877357D03*
X159257998Y-61849000D03*
X108331000Y-64008000D03*
D21*
X106299000Y-73406000D02*
X103124000Y-73406000D01*
X108331000Y-64008000D02*
X108331000Y-71374000D01*
X108331000Y-71374000D02*
X106299000Y-73406000D01*
D22*
G36*
X167159000Y-118899000D02*
G01*
X74141000Y-118899000D01*
X74141000Y-113880968D01*
X74485500Y-113880968D01*
X74485500Y-114719032D01*
X74648998Y-115540992D01*
X74969711Y-116315262D01*
X75435314Y-117012086D01*
X76027914Y-117604686D01*
X76724738Y-118070289D01*
X77499008Y-118391002D01*
X78320968Y-118554500D01*
X79159032Y-118554500D01*
X79980992Y-118391002D01*
X80755262Y-118070289D01*
X81452086Y-117604686D01*
X82044686Y-117012086D01*
X82510289Y-116315262D01*
X82831002Y-115540992D01*
X82994500Y-114719032D01*
X82994500Y-113880968D01*
X82984561Y-113831000D01*
X99222314Y-113831000D01*
X99222314Y-115531000D01*
X99237026Y-115680378D01*
X99280598Y-115824015D01*
X99351355Y-115956392D01*
X99446578Y-116072422D01*
X99562608Y-116167645D01*
X99694985Y-116238402D01*
X99838622Y-116281974D01*
X99988000Y-116296686D01*
X101688000Y-116296686D01*
X101837378Y-116281974D01*
X101981015Y-116238402D01*
X102113392Y-116167645D01*
X102229422Y-116072422D01*
X102324645Y-115956392D01*
X102341725Y-115924437D01*
X102350410Y-115933122D01*
X102614432Y-116109536D01*
X102907797Y-116231052D01*
X103219232Y-116293000D01*
X103536768Y-116293000D01*
X103848203Y-116231052D01*
X104141568Y-116109536D01*
X104405590Y-115933122D01*
X104630122Y-115708590D01*
X104806536Y-115444568D01*
X104928052Y-115151203D01*
X104990000Y-114839768D01*
X104990000Y-114522232D01*
X104928052Y-114210797D01*
X104806536Y-113917432D01*
X104782172Y-113880968D01*
X158305500Y-113880968D01*
X158305500Y-114719032D01*
X158468998Y-115540992D01*
X158789711Y-116315262D01*
X159255314Y-117012086D01*
X159847914Y-117604686D01*
X160544738Y-118070289D01*
X161319008Y-118391002D01*
X162140968Y-118554500D01*
X162979032Y-118554500D01*
X163800992Y-118391002D01*
X164575262Y-118070289D01*
X165272086Y-117604686D01*
X165864686Y-117012086D01*
X166330289Y-116315262D01*
X166651002Y-115540992D01*
X166814500Y-114719032D01*
X166814500Y-113880968D01*
X166651002Y-113059008D01*
X166330289Y-112284738D01*
X165864686Y-111587914D01*
X165272086Y-110995314D01*
X164575262Y-110529711D01*
X163800992Y-110208998D01*
X162979032Y-110045500D01*
X162140968Y-110045500D01*
X161319008Y-110208998D01*
X160544738Y-110529711D01*
X159847914Y-110995314D01*
X159255314Y-111587914D01*
X158789711Y-112284738D01*
X158468998Y-113059008D01*
X158305500Y-113880968D01*
X104782172Y-113880968D01*
X104630122Y-113653410D01*
X104405590Y-113428878D01*
X104141568Y-113252464D01*
X103848203Y-113130948D01*
X103536768Y-113069000D01*
X103219232Y-113069000D01*
X102907797Y-113130948D01*
X102614432Y-113252464D01*
X102350410Y-113428878D01*
X102341725Y-113437563D01*
X102324645Y-113405608D01*
X102229422Y-113289578D01*
X102113392Y-113194355D01*
X101981015Y-113123598D01*
X101837378Y-113080026D01*
X101688000Y-113065314D01*
X99988000Y-113065314D01*
X99838622Y-113080026D01*
X99694985Y-113123598D01*
X99562608Y-113194355D01*
X99446578Y-113289578D01*
X99351355Y-113405608D01*
X99280598Y-113537985D01*
X99237026Y-113681622D01*
X99222314Y-113831000D01*
X82984561Y-113831000D01*
X82831002Y-113059008D01*
X82510289Y-112284738D01*
X82044686Y-111587914D01*
X81452086Y-110995314D01*
X80755262Y-110529711D01*
X79980992Y-110208998D01*
X79159032Y-110045500D01*
X78320968Y-110045500D01*
X77499008Y-110208998D01*
X76724738Y-110529711D01*
X76027914Y-110995314D01*
X75435314Y-111587914D01*
X74969711Y-112284738D01*
X74648998Y-113059008D01*
X74485500Y-113880968D01*
X74141000Y-113880968D01*
X74141000Y-107735000D01*
X99222314Y-107735000D01*
X99222314Y-109435000D01*
X99237026Y-109584378D01*
X99280598Y-109728015D01*
X99351355Y-109860392D01*
X99446578Y-109976422D01*
X99562608Y-110071645D01*
X99694985Y-110142402D01*
X99838622Y-110185974D01*
X99988000Y-110200686D01*
X101688000Y-110200686D01*
X101837378Y-110185974D01*
X101981015Y-110142402D01*
X102113392Y-110071645D01*
X102229422Y-109976422D01*
X102324645Y-109860392D01*
X102341725Y-109828437D01*
X102350410Y-109837122D01*
X102614432Y-110013536D01*
X102907797Y-110135052D01*
X103219232Y-110197000D01*
X103536768Y-110197000D01*
X103848203Y-110135052D01*
X104141568Y-110013536D01*
X104405590Y-109837122D01*
X104630122Y-109612590D01*
X104806536Y-109348568D01*
X104928052Y-109055203D01*
X104990000Y-108743768D01*
X104990000Y-108426232D01*
X104928052Y-108114797D01*
X104806536Y-107821432D01*
X104676522Y-107626852D01*
X159887753Y-107626852D01*
X160016076Y-107918871D01*
X160351695Y-108086723D01*
X160713611Y-108185874D01*
X161087916Y-108212514D01*
X161460227Y-108165618D01*
X161816235Y-108046988D01*
X162055924Y-107918871D01*
X162184247Y-107626852D01*
X161036000Y-106478605D01*
X159887753Y-107626852D01*
X104676522Y-107626852D01*
X104630122Y-107557410D01*
X104405590Y-107332878D01*
X104141568Y-107156464D01*
X103848203Y-107034948D01*
X103536768Y-106973000D01*
X103219232Y-106973000D01*
X102907797Y-107034948D01*
X102614432Y-107156464D01*
X102350410Y-107332878D01*
X102341725Y-107341563D01*
X102324645Y-107309608D01*
X102229422Y-107193578D01*
X102113392Y-107098355D01*
X101981015Y-107027598D01*
X101837378Y-106984026D01*
X101688000Y-106969314D01*
X99988000Y-106969314D01*
X99838622Y-106984026D01*
X99694985Y-107027598D01*
X99562608Y-107098355D01*
X99446578Y-107193578D01*
X99351355Y-107309608D01*
X99280598Y-107441985D01*
X99237026Y-107585622D01*
X99222314Y-107735000D01*
X74141000Y-107735000D01*
X74141000Y-106350916D01*
X159122486Y-106350916D01*
X159169382Y-106723227D01*
X159288012Y-107079235D01*
X159416129Y-107318924D01*
X159708148Y-107447247D01*
X160856395Y-106299000D01*
X161215605Y-106299000D01*
X162363852Y-107447247D01*
X162655871Y-107318924D01*
X162823723Y-106983305D01*
X162922874Y-106621389D01*
X162949514Y-106247084D01*
X162902618Y-105874773D01*
X162783988Y-105518765D01*
X162655871Y-105279076D01*
X162363852Y-105150753D01*
X161215605Y-106299000D01*
X160856395Y-106299000D01*
X159708148Y-105150753D01*
X159416129Y-105279076D01*
X159248277Y-105614695D01*
X159149126Y-105976611D01*
X159122486Y-106350916D01*
X74141000Y-106350916D01*
X74141000Y-101639000D01*
X99222314Y-101639000D01*
X99222314Y-103339000D01*
X99237026Y-103488378D01*
X99280598Y-103632015D01*
X99351355Y-103764392D01*
X99446578Y-103880422D01*
X99562608Y-103975645D01*
X99694985Y-104046402D01*
X99838622Y-104089974D01*
X99988000Y-104104686D01*
X101688000Y-104104686D01*
X101837378Y-104089974D01*
X101981015Y-104046402D01*
X102113392Y-103975645D01*
X102229422Y-103880422D01*
X102324645Y-103764392D01*
X102341725Y-103732437D01*
X102350410Y-103741122D01*
X102614432Y-103917536D01*
X102907797Y-104039052D01*
X103219232Y-104101000D01*
X103536768Y-104101000D01*
X103848203Y-104039052D01*
X104141568Y-103917536D01*
X104292252Y-103816852D01*
X159887753Y-103816852D01*
X160016076Y-104108871D01*
X160351695Y-104276723D01*
X160713611Y-104375874D01*
X160935192Y-104391644D01*
X160611773Y-104432382D01*
X160255765Y-104551012D01*
X160016076Y-104679129D01*
X159887753Y-104971148D01*
X161036000Y-106119395D01*
X162184247Y-104971148D01*
X162055924Y-104679129D01*
X161720305Y-104511277D01*
X161358389Y-104412126D01*
X161136808Y-104396356D01*
X161460227Y-104355618D01*
X161816235Y-104236988D01*
X162055924Y-104108871D01*
X162184247Y-103816852D01*
X161036000Y-102668605D01*
X159887753Y-103816852D01*
X104292252Y-103816852D01*
X104405590Y-103741122D01*
X104630122Y-103516590D01*
X104806536Y-103252568D01*
X104928052Y-102959203D01*
X104990000Y-102647768D01*
X104990000Y-102540916D01*
X159122486Y-102540916D01*
X159169382Y-102913227D01*
X159288012Y-103269235D01*
X159416129Y-103508924D01*
X159708148Y-103637247D01*
X160856395Y-102489000D01*
X161215605Y-102489000D01*
X162363852Y-103637247D01*
X162655871Y-103508924D01*
X162823723Y-103173305D01*
X162922874Y-102811389D01*
X162949514Y-102437084D01*
X162902618Y-102064773D01*
X162783988Y-101708765D01*
X162655871Y-101469076D01*
X162363852Y-101340753D01*
X161215605Y-102489000D01*
X160856395Y-102489000D01*
X159708148Y-101340753D01*
X159416129Y-101469076D01*
X159248277Y-101804695D01*
X159149126Y-102166611D01*
X159122486Y-102540916D01*
X104990000Y-102540916D01*
X104990000Y-102330232D01*
X104928052Y-102018797D01*
X104806536Y-101725432D01*
X104630122Y-101461410D01*
X104405590Y-101236878D01*
X104141568Y-101060464D01*
X103848203Y-100938948D01*
X103536768Y-100877000D01*
X103219232Y-100877000D01*
X102907797Y-100938948D01*
X102614432Y-101060464D01*
X102350410Y-101236878D01*
X102341725Y-101245563D01*
X102324645Y-101213608D01*
X102229422Y-101097578D01*
X102113392Y-101002355D01*
X101981015Y-100931598D01*
X101837378Y-100888026D01*
X101688000Y-100873314D01*
X99988000Y-100873314D01*
X99838622Y-100888026D01*
X99694985Y-100931598D01*
X99562608Y-101002355D01*
X99446578Y-101097578D01*
X99351355Y-101213608D01*
X99280598Y-101345985D01*
X99237026Y-101489622D01*
X99222314Y-101639000D01*
X74141000Y-101639000D01*
X74141000Y-95543000D01*
X99222314Y-95543000D01*
X99222314Y-97243000D01*
X99237026Y-97392378D01*
X99280598Y-97536015D01*
X99351355Y-97668392D01*
X99446578Y-97784422D01*
X99562608Y-97879645D01*
X99694985Y-97950402D01*
X99838622Y-97993974D01*
X99988000Y-98008686D01*
X101688000Y-98008686D01*
X101837378Y-97993974D01*
X101981015Y-97950402D01*
X102113392Y-97879645D01*
X102229422Y-97784422D01*
X102324645Y-97668392D01*
X102341725Y-97636437D01*
X102350410Y-97645122D01*
X102614432Y-97821536D01*
X102907797Y-97943052D01*
X103219232Y-98005000D01*
X103536768Y-98005000D01*
X103848203Y-97943052D01*
X104141568Y-97821536D01*
X104405590Y-97645122D01*
X104630122Y-97420590D01*
X104806536Y-97156568D01*
X104928052Y-96863203D01*
X104990000Y-96551768D01*
X104990000Y-96234232D01*
X104928052Y-95922797D01*
X104806536Y-95629432D01*
X104630122Y-95365410D01*
X104405590Y-95140878D01*
X104141568Y-94964464D01*
X103848203Y-94842948D01*
X103540790Y-94781800D01*
X131608114Y-94781800D01*
X131608114Y-96581800D01*
X131622826Y-96731178D01*
X131666398Y-96874815D01*
X131737155Y-97007192D01*
X131832378Y-97123222D01*
X131946433Y-97216824D01*
X131800954Y-97434548D01*
X131675669Y-97737012D01*
X131611800Y-98058107D01*
X131611800Y-98385493D01*
X131675669Y-98706588D01*
X131800954Y-99009052D01*
X131982840Y-99281263D01*
X132193377Y-99491800D01*
X131982840Y-99702337D01*
X131800954Y-99974548D01*
X131675669Y-100277012D01*
X131611800Y-100598107D01*
X131611800Y-100925493D01*
X131675669Y-101246588D01*
X131800954Y-101549052D01*
X131982840Y-101821263D01*
X132214337Y-102052760D01*
X132486548Y-102234646D01*
X132789012Y-102359931D01*
X133110107Y-102423800D01*
X133437493Y-102423800D01*
X133758588Y-102359931D01*
X134061052Y-102234646D01*
X134333263Y-102052760D01*
X134564760Y-101821263D01*
X134746646Y-101549052D01*
X134871931Y-101246588D01*
X134888925Y-101161148D01*
X159887753Y-101161148D01*
X161036000Y-102309395D01*
X162184247Y-101161148D01*
X162055924Y-100869129D01*
X161720305Y-100701277D01*
X161358389Y-100602126D01*
X160984084Y-100575486D01*
X160611773Y-100622382D01*
X160255765Y-100741012D01*
X160016076Y-100869129D01*
X159887753Y-101161148D01*
X134888925Y-101161148D01*
X134935800Y-100925493D01*
X134935800Y-100598107D01*
X134871931Y-100277012D01*
X134746646Y-99974548D01*
X134564760Y-99702337D01*
X134354223Y-99491800D01*
X134564760Y-99281263D01*
X134746646Y-99009052D01*
X134871931Y-98706588D01*
X134935800Y-98385493D01*
X134935800Y-98058107D01*
X134919148Y-97974390D01*
X147421800Y-97974390D01*
X147421800Y-98469210D01*
X147518335Y-98954523D01*
X147707695Y-99411678D01*
X147982603Y-99823106D01*
X148332494Y-100172997D01*
X148743922Y-100447905D01*
X149201077Y-100637265D01*
X149686390Y-100733800D01*
X150181210Y-100733800D01*
X150666523Y-100637265D01*
X151123678Y-100447905D01*
X151535106Y-100172997D01*
X151884997Y-99823106D01*
X152159905Y-99411678D01*
X152349265Y-98954523D01*
X152445800Y-98469210D01*
X152445800Y-97974390D01*
X152349265Y-97489077D01*
X152159905Y-97031922D01*
X151884997Y-96620494D01*
X151535106Y-96270603D01*
X151123678Y-95995695D01*
X150666523Y-95806335D01*
X150181210Y-95709800D01*
X149686390Y-95709800D01*
X149201077Y-95806335D01*
X148743922Y-95995695D01*
X148332494Y-96270603D01*
X147982603Y-96620494D01*
X147707695Y-97031922D01*
X147518335Y-97489077D01*
X147421800Y-97974390D01*
X134919148Y-97974390D01*
X134871931Y-97737012D01*
X134746646Y-97434548D01*
X134601167Y-97216824D01*
X134715222Y-97123222D01*
X134810445Y-97007192D01*
X134881202Y-96874815D01*
X134924774Y-96731178D01*
X134939486Y-96581800D01*
X134939486Y-94781800D01*
X134924774Y-94632422D01*
X134881202Y-94488785D01*
X134810445Y-94356408D01*
X134715222Y-94240378D01*
X134599192Y-94145155D01*
X134466815Y-94074398D01*
X134323178Y-94030826D01*
X134173800Y-94016114D01*
X132373800Y-94016114D01*
X132224422Y-94030826D01*
X132080785Y-94074398D01*
X131948408Y-94145155D01*
X131832378Y-94240378D01*
X131737155Y-94356408D01*
X131666398Y-94488785D01*
X131622826Y-94632422D01*
X131608114Y-94781800D01*
X103540790Y-94781800D01*
X103536768Y-94781000D01*
X103219232Y-94781000D01*
X102907797Y-94842948D01*
X102614432Y-94964464D01*
X102350410Y-95140878D01*
X102341725Y-95149563D01*
X102324645Y-95117608D01*
X102229422Y-95001578D01*
X102113392Y-94906355D01*
X101981015Y-94835598D01*
X101837378Y-94792026D01*
X101688000Y-94777314D01*
X99988000Y-94777314D01*
X99838622Y-94792026D01*
X99694985Y-94835598D01*
X99562608Y-94906355D01*
X99446578Y-95001578D01*
X99351355Y-95117608D01*
X99280598Y-95249985D01*
X99237026Y-95393622D01*
X99222314Y-95543000D01*
X74141000Y-95543000D01*
X74141000Y-85905865D01*
X78232000Y-85905865D01*
X78232000Y-86306135D01*
X78310089Y-86698713D01*
X78463265Y-87068513D01*
X78685643Y-87401325D01*
X78968675Y-87684357D01*
X79301487Y-87906735D01*
X79553205Y-88011000D01*
X79301487Y-88115265D01*
X78968675Y-88337643D01*
X78685643Y-88620675D01*
X78463265Y-88953487D01*
X78310089Y-89323287D01*
X78232000Y-89715865D01*
X78232000Y-90116135D01*
X78310089Y-90508713D01*
X78463265Y-90878513D01*
X78685643Y-91211325D01*
X78968675Y-91494357D01*
X79301487Y-91716735D01*
X79671287Y-91869911D01*
X80063865Y-91948000D01*
X80464135Y-91948000D01*
X80856713Y-91869911D01*
X81226513Y-91716735D01*
X81559325Y-91494357D01*
X81842357Y-91211325D01*
X82064735Y-90878513D01*
X82217911Y-90508713D01*
X82296000Y-90116135D01*
X82296000Y-89715865D01*
X82217911Y-89323287D01*
X82064735Y-88953487D01*
X81842357Y-88620675D01*
X81559325Y-88337643D01*
X81226513Y-88115265D01*
X80974795Y-88011000D01*
X81226513Y-87906735D01*
X81523193Y-87708499D01*
X91567000Y-87708499D01*
X91567000Y-88008701D01*
X91625566Y-88303134D01*
X91740449Y-88580485D01*
X91907232Y-88830093D01*
X92119507Y-89042368D01*
X92369115Y-89209151D01*
X92646466Y-89324034D01*
X92940899Y-89382600D01*
X93241101Y-89382600D01*
X93535534Y-89324034D01*
X93812885Y-89209151D01*
X94062493Y-89042368D01*
X94274768Y-88830093D01*
X94441551Y-88580485D01*
X94556434Y-88303134D01*
X94615000Y-88008701D01*
X94615000Y-87708499D01*
X96545400Y-87708499D01*
X96545400Y-88008701D01*
X96603966Y-88303134D01*
X96718849Y-88580485D01*
X96885632Y-88830093D01*
X97097907Y-89042368D01*
X97347515Y-89209151D01*
X97624866Y-89324034D01*
X97919299Y-89382600D01*
X98219501Y-89382600D01*
X98513934Y-89324034D01*
X98791285Y-89209151D01*
X99040893Y-89042368D01*
X99253168Y-88830093D01*
X99419951Y-88580485D01*
X99534834Y-88303134D01*
X99593400Y-88008701D01*
X99593400Y-87708499D01*
X99534834Y-87414066D01*
X99419951Y-87136715D01*
X99253168Y-86887107D01*
X99160926Y-86794865D01*
X159004000Y-86794865D01*
X159004000Y-87195135D01*
X159082089Y-87587713D01*
X159235265Y-87957513D01*
X159457643Y-88290325D01*
X159740675Y-88573357D01*
X160073487Y-88795735D01*
X160325205Y-88900000D01*
X160073487Y-89004265D01*
X159740675Y-89226643D01*
X159457643Y-89509675D01*
X159235265Y-89842487D01*
X159082089Y-90212287D01*
X159004000Y-90604865D01*
X159004000Y-91005135D01*
X159082089Y-91397713D01*
X159235265Y-91767513D01*
X159457643Y-92100325D01*
X159740675Y-92383357D01*
X160073487Y-92605735D01*
X160443287Y-92758911D01*
X160835865Y-92837000D01*
X161236135Y-92837000D01*
X161628713Y-92758911D01*
X161998513Y-92605735D01*
X162331325Y-92383357D01*
X162614357Y-92100325D01*
X162836735Y-91767513D01*
X162989911Y-91397713D01*
X163068000Y-91005135D01*
X163068000Y-90604865D01*
X162989911Y-90212287D01*
X162836735Y-89842487D01*
X162614357Y-89509675D01*
X162331325Y-89226643D01*
X161998513Y-89004265D01*
X161746795Y-88900000D01*
X161998513Y-88795735D01*
X162331325Y-88573357D01*
X162614357Y-88290325D01*
X162836735Y-87957513D01*
X162989911Y-87587713D01*
X163068000Y-87195135D01*
X163068000Y-86794865D01*
X162989911Y-86402287D01*
X162836735Y-86032487D01*
X162614357Y-85699675D01*
X162331325Y-85416643D01*
X161998513Y-85194265D01*
X161628713Y-85041089D01*
X161236135Y-84963000D01*
X160835865Y-84963000D01*
X160443287Y-85041089D01*
X160073487Y-85194265D01*
X159740675Y-85416643D01*
X159457643Y-85699675D01*
X159235265Y-86032487D01*
X159082089Y-86402287D01*
X159004000Y-86794865D01*
X99160926Y-86794865D01*
X99040893Y-86674832D01*
X98791285Y-86508049D01*
X98513934Y-86393166D01*
X98219501Y-86334600D01*
X97919299Y-86334600D01*
X97624866Y-86393166D01*
X97347515Y-86508049D01*
X97097907Y-86674832D01*
X96885632Y-86887107D01*
X96718849Y-87136715D01*
X96603966Y-87414066D01*
X96545400Y-87708499D01*
X94615000Y-87708499D01*
X94556434Y-87414066D01*
X94441551Y-87136715D01*
X94274768Y-86887107D01*
X94062493Y-86674832D01*
X93812885Y-86508049D01*
X93535534Y-86393166D01*
X93241101Y-86334600D01*
X92940899Y-86334600D01*
X92646466Y-86393166D01*
X92369115Y-86508049D01*
X92119507Y-86674832D01*
X91907232Y-86887107D01*
X91740449Y-87136715D01*
X91625566Y-87414066D01*
X91567000Y-87708499D01*
X81523193Y-87708499D01*
X81559325Y-87684357D01*
X81842357Y-87401325D01*
X82064735Y-87068513D01*
X82217911Y-86698713D01*
X82296000Y-86306135D01*
X82296000Y-85905865D01*
X82217911Y-85513287D01*
X82064735Y-85143487D01*
X81842357Y-84810675D01*
X81559325Y-84527643D01*
X81226513Y-84305265D01*
X80856713Y-84152089D01*
X80464135Y-84074000D01*
X80063865Y-84074000D01*
X79671287Y-84152089D01*
X79301487Y-84305265D01*
X78968675Y-84527643D01*
X78685643Y-84810675D01*
X78463265Y-85143487D01*
X78310089Y-85513287D01*
X78232000Y-85905865D01*
X74141000Y-85905865D01*
X74141000Y-80715320D01*
X88557100Y-80715320D01*
X88557100Y-81103080D01*
X88632748Y-81483390D01*
X88781138Y-81841635D01*
X88996566Y-82164046D01*
X89270754Y-82438234D01*
X89593165Y-82653662D01*
X89951410Y-82802052D01*
X90331720Y-82877700D01*
X90719480Y-82877700D01*
X91099790Y-82802052D01*
X91458035Y-82653662D01*
X91780446Y-82438234D01*
X92054634Y-82164046D01*
X92270062Y-81841635D01*
X92418452Y-81483390D01*
X92494100Y-81103080D01*
X92494100Y-80715320D01*
X92418452Y-80335010D01*
X92270062Y-79976765D01*
X92054634Y-79654354D01*
X91780446Y-79380166D01*
X91458035Y-79164738D01*
X91099790Y-79016348D01*
X90719480Y-78940700D01*
X90331720Y-78940700D01*
X89951410Y-79016348D01*
X89593165Y-79164738D01*
X89270754Y-79380166D01*
X88996566Y-79654354D01*
X88781138Y-79976765D01*
X88632748Y-80335010D01*
X88557100Y-80715320D01*
X74141000Y-80715320D01*
X74141000Y-78304628D01*
X101257100Y-78304628D01*
X101257100Y-78667372D01*
X101327868Y-79023146D01*
X101466684Y-79358277D01*
X101668214Y-79659888D01*
X101924712Y-79916386D01*
X102226323Y-80117916D01*
X102561454Y-80256732D01*
X102917228Y-80327500D01*
X103279972Y-80327500D01*
X103635746Y-80256732D01*
X103970877Y-80117916D01*
X104272488Y-79916386D01*
X104528986Y-79659888D01*
X104730516Y-79358277D01*
X104869332Y-79023146D01*
X104940100Y-78667372D01*
X104940100Y-78304628D01*
X104869332Y-77948854D01*
X104730516Y-77613723D01*
X104549625Y-77343000D01*
X124176914Y-77343000D01*
X124176914Y-79629000D01*
X124191626Y-79778378D01*
X124235198Y-79922015D01*
X124305955Y-80054392D01*
X124401178Y-80170422D01*
X124517208Y-80265645D01*
X124649585Y-80336402D01*
X124793222Y-80379974D01*
X124942600Y-80394686D01*
X127228600Y-80394686D01*
X127377978Y-80379974D01*
X127521615Y-80336402D01*
X127653992Y-80265645D01*
X127770022Y-80170422D01*
X127865245Y-80054392D01*
X127936002Y-79922015D01*
X127979574Y-79778378D01*
X127994286Y-79629000D01*
X127994286Y-77343000D01*
X127979574Y-77193622D01*
X127936002Y-77049985D01*
X127865245Y-76917608D01*
X127770022Y-76801578D01*
X127653992Y-76706355D01*
X127521615Y-76635598D01*
X127377978Y-76592026D01*
X127228600Y-76577314D01*
X124942600Y-76577314D01*
X124793222Y-76592026D01*
X124649585Y-76635598D01*
X124517208Y-76706355D01*
X124401178Y-76801578D01*
X124305955Y-76917608D01*
X124235198Y-77049985D01*
X124191626Y-77193622D01*
X124176914Y-77343000D01*
X104549625Y-77343000D01*
X104528986Y-77312112D01*
X104272488Y-77055614D01*
X103970877Y-76854084D01*
X103635746Y-76715268D01*
X103279972Y-76644500D01*
X102917228Y-76644500D01*
X102561454Y-76715268D01*
X102226323Y-76854084D01*
X101924712Y-77055614D01*
X101668214Y-77312112D01*
X101466684Y-77613723D01*
X101327868Y-77948854D01*
X101257100Y-78304628D01*
X74141000Y-78304628D01*
X74141000Y-75715320D01*
X88557100Y-75715320D01*
X88557100Y-76103080D01*
X88632748Y-76483390D01*
X88781138Y-76841635D01*
X88996566Y-77164046D01*
X89270754Y-77438234D01*
X89593165Y-77653662D01*
X89951410Y-77802052D01*
X90331720Y-77877700D01*
X90719480Y-77877700D01*
X91099790Y-77802052D01*
X91458035Y-77653662D01*
X91780446Y-77438234D01*
X92054634Y-77164046D01*
X92270062Y-76841635D01*
X92418452Y-76483390D01*
X92426645Y-76442200D01*
X161706314Y-76442200D01*
X161706314Y-78142200D01*
X161721026Y-78291578D01*
X161764598Y-78435215D01*
X161835355Y-78567592D01*
X161930578Y-78683622D01*
X162046608Y-78778845D01*
X162078563Y-78795925D01*
X162069878Y-78804610D01*
X161893464Y-79068632D01*
X161771948Y-79361997D01*
X161710000Y-79673432D01*
X161710000Y-79990968D01*
X161771948Y-80302403D01*
X161893464Y-80595768D01*
X162069878Y-80859790D01*
X162294410Y-81084322D01*
X162558432Y-81260736D01*
X162851797Y-81382252D01*
X163163232Y-81444200D01*
X163480768Y-81444200D01*
X163792203Y-81382252D01*
X164085568Y-81260736D01*
X164349590Y-81084322D01*
X164574122Y-80859790D01*
X164750536Y-80595768D01*
X164872052Y-80302403D01*
X164934000Y-79990968D01*
X164934000Y-79673432D01*
X164872052Y-79361997D01*
X164750536Y-79068632D01*
X164574122Y-78804610D01*
X164565437Y-78795925D01*
X164597392Y-78778845D01*
X164713422Y-78683622D01*
X164808645Y-78567592D01*
X164879402Y-78435215D01*
X164922974Y-78291578D01*
X164937686Y-78142200D01*
X164937686Y-76442200D01*
X164922974Y-76292822D01*
X164879402Y-76149185D01*
X164808645Y-76016808D01*
X164713422Y-75900778D01*
X164597392Y-75805555D01*
X164465015Y-75734798D01*
X164321378Y-75691226D01*
X164172000Y-75676514D01*
X162472000Y-75676514D01*
X162322622Y-75691226D01*
X162178985Y-75734798D01*
X162046608Y-75805555D01*
X161930578Y-75900778D01*
X161835355Y-76016808D01*
X161764598Y-76149185D01*
X161721026Y-76292822D01*
X161706314Y-76442200D01*
X92426645Y-76442200D01*
X92494100Y-76103080D01*
X92494100Y-75715320D01*
X92418452Y-75335010D01*
X92270062Y-74976765D01*
X92054634Y-74654354D01*
X91780446Y-74380166D01*
X91458035Y-74164738D01*
X91099790Y-74016348D01*
X90719480Y-73940700D01*
X90331720Y-73940700D01*
X89951410Y-74016348D01*
X89593165Y-74164738D01*
X89270754Y-74380166D01*
X88996566Y-74654354D01*
X88781138Y-74976765D01*
X88632748Y-75335010D01*
X88557100Y-75715320D01*
X74141000Y-75715320D01*
X74141000Y-68125865D01*
X78232000Y-68125865D01*
X78232000Y-68526135D01*
X78310089Y-68918713D01*
X78463265Y-69288513D01*
X78685643Y-69621325D01*
X78968675Y-69904357D01*
X79301487Y-70126735D01*
X79553205Y-70231000D01*
X79301487Y-70335265D01*
X78968675Y-70557643D01*
X78685643Y-70840675D01*
X78463265Y-71173487D01*
X78310089Y-71543287D01*
X78232000Y-71935865D01*
X78232000Y-72336135D01*
X78310089Y-72728713D01*
X78463265Y-73098513D01*
X78685643Y-73431325D01*
X78968675Y-73714357D01*
X79301487Y-73936735D01*
X79671287Y-74089911D01*
X80063865Y-74168000D01*
X80464135Y-74168000D01*
X80856713Y-74089911D01*
X81226513Y-73936735D01*
X81559325Y-73714357D01*
X81842357Y-73431325D01*
X81980467Y-73224628D01*
X101257100Y-73224628D01*
X101257100Y-73587372D01*
X101327868Y-73943146D01*
X101466684Y-74278277D01*
X101668214Y-74579888D01*
X101924712Y-74836386D01*
X102226323Y-75037916D01*
X102561454Y-75176732D01*
X102917228Y-75247500D01*
X103279972Y-75247500D01*
X103635746Y-75176732D01*
X103970877Y-75037916D01*
X104272488Y-74836386D01*
X104528986Y-74579888D01*
X104549625Y-74549000D01*
X106242861Y-74549000D01*
X106299000Y-74554529D01*
X106355139Y-74549000D01*
X106355146Y-74549000D01*
X106523067Y-74532461D01*
X106738523Y-74467103D01*
X106937089Y-74360968D01*
X107111133Y-74218133D01*
X107146927Y-74174518D01*
X109099523Y-72221923D01*
X109143133Y-72186133D01*
X109285968Y-72012089D01*
X109392103Y-71813523D01*
X109457461Y-71598067D01*
X109474000Y-71430146D01*
X109474000Y-71430139D01*
X109479529Y-71374000D01*
X109474000Y-71317861D01*
X109474000Y-69049000D01*
X161833928Y-69049000D01*
X161846188Y-69173482D01*
X161882498Y-69293180D01*
X161941463Y-69403494D01*
X162020815Y-69500185D01*
X162117506Y-69579537D01*
X162227820Y-69638502D01*
X162347518Y-69674812D01*
X162472000Y-69687072D01*
X163036250Y-69684000D01*
X163195000Y-69525250D01*
X163195000Y-68326000D01*
X163449000Y-68326000D01*
X163449000Y-69525250D01*
X163607750Y-69684000D01*
X164172000Y-69687072D01*
X164296482Y-69674812D01*
X164416180Y-69638502D01*
X164526494Y-69579537D01*
X164623185Y-69500185D01*
X164702537Y-69403494D01*
X164761502Y-69293180D01*
X164797812Y-69173482D01*
X164810072Y-69049000D01*
X164807000Y-68484750D01*
X164648250Y-68326000D01*
X163449000Y-68326000D01*
X163195000Y-68326000D01*
X161995750Y-68326000D01*
X161837000Y-68484750D01*
X161833928Y-69049000D01*
X109474000Y-69049000D01*
X109474000Y-67223360D01*
X125027845Y-67223360D01*
X125140864Y-67502384D01*
X125454849Y-67657556D01*
X125793073Y-67748491D01*
X126142538Y-67771694D01*
X126489816Y-67726275D01*
X126821560Y-67613977D01*
X127030336Y-67502384D01*
X127092464Y-67349000D01*
X161833928Y-67349000D01*
X161837000Y-67913250D01*
X161995750Y-68072000D01*
X163195000Y-68072000D01*
X163195000Y-65786000D01*
X163449000Y-65786000D01*
X163449000Y-68072000D01*
X164648250Y-68072000D01*
X164807000Y-67913250D01*
X164810072Y-67349000D01*
X164797812Y-67224518D01*
X164761502Y-67104820D01*
X164702537Y-66994506D01*
X164623185Y-66897815D01*
X164526494Y-66818463D01*
X164416180Y-66759498D01*
X164335534Y-66735034D01*
X164419588Y-66659269D01*
X164593641Y-66425920D01*
X164718825Y-66163099D01*
X164763476Y-66015890D01*
X164642155Y-65786000D01*
X163449000Y-65786000D01*
X163195000Y-65786000D01*
X162001845Y-65786000D01*
X161880524Y-66015890D01*
X161925175Y-66163099D01*
X162050359Y-66425920D01*
X162224412Y-66659269D01*
X162308466Y-66735034D01*
X162227820Y-66759498D01*
X162117506Y-66818463D01*
X162020815Y-66897815D01*
X161941463Y-66994506D01*
X161882498Y-67104820D01*
X161846188Y-67224518D01*
X161833928Y-67349000D01*
X127092464Y-67349000D01*
X127143355Y-67223360D01*
X126085600Y-66165605D01*
X125027845Y-67223360D01*
X109474000Y-67223360D01*
X109474000Y-66042938D01*
X124299906Y-66042938D01*
X124345325Y-66390216D01*
X124457623Y-66721960D01*
X124569216Y-66930736D01*
X124848240Y-67043755D01*
X125905995Y-65986000D01*
X126265205Y-65986000D01*
X127322960Y-67043755D01*
X127601984Y-66930736D01*
X127757156Y-66616751D01*
X127848091Y-66278527D01*
X127871294Y-65929062D01*
X127825875Y-65581784D01*
X127731204Y-65302110D01*
X161880524Y-65302110D01*
X162001845Y-65532000D01*
X163195000Y-65532000D01*
X163195000Y-64338186D01*
X163449000Y-64338186D01*
X163449000Y-65532000D01*
X164642155Y-65532000D01*
X164763476Y-65302110D01*
X164718825Y-65154901D01*
X164593641Y-64892080D01*
X164419588Y-64658731D01*
X164203355Y-64463822D01*
X163953252Y-64314843D01*
X163678891Y-64217519D01*
X163449000Y-64338186D01*
X163195000Y-64338186D01*
X162965109Y-64217519D01*
X162690748Y-64314843D01*
X162440645Y-64463822D01*
X162224412Y-64658731D01*
X162050359Y-64892080D01*
X161925175Y-65154901D01*
X161880524Y-65302110D01*
X127731204Y-65302110D01*
X127713577Y-65250040D01*
X127601984Y-65041264D01*
X127322960Y-64928245D01*
X126265205Y-65986000D01*
X125905995Y-65986000D01*
X124848240Y-64928245D01*
X124569216Y-65041264D01*
X124414044Y-65355249D01*
X124323109Y-65693473D01*
X124299906Y-66042938D01*
X109474000Y-66042938D01*
X109474000Y-65020261D01*
X109514768Y-64979493D01*
X109669019Y-64748640D01*
X125027845Y-64748640D01*
X126085600Y-65806395D01*
X127143355Y-64748640D01*
X127030336Y-64469616D01*
X126716351Y-64314444D01*
X126378127Y-64223509D01*
X126028662Y-64200306D01*
X125681384Y-64245725D01*
X125349640Y-64358023D01*
X125140864Y-64469616D01*
X125027845Y-64748640D01*
X109669019Y-64748640D01*
X109681551Y-64729885D01*
X109796434Y-64452534D01*
X109855000Y-64158101D01*
X109855000Y-63857899D01*
X109796434Y-63563466D01*
X109681551Y-63286115D01*
X109514768Y-63036507D01*
X109302493Y-62824232D01*
X109052885Y-62657449D01*
X108775534Y-62542566D01*
X108481101Y-62484000D01*
X108180899Y-62484000D01*
X107886466Y-62542566D01*
X107609115Y-62657449D01*
X107359507Y-62824232D01*
X107147232Y-63036507D01*
X106980449Y-63286115D01*
X106865566Y-63563466D01*
X106807000Y-63857899D01*
X106807000Y-64158101D01*
X106865566Y-64452534D01*
X106980449Y-64729885D01*
X107147232Y-64979493D01*
X107188000Y-65020261D01*
X107188001Y-70900553D01*
X105825555Y-72263000D01*
X104549625Y-72263000D01*
X104528986Y-72232112D01*
X104272488Y-71975614D01*
X103970877Y-71774084D01*
X103635746Y-71635268D01*
X103279972Y-71564500D01*
X102917228Y-71564500D01*
X102561454Y-71635268D01*
X102226323Y-71774084D01*
X101924712Y-71975614D01*
X101668214Y-72232112D01*
X101466684Y-72533723D01*
X101327868Y-72868854D01*
X101257100Y-73224628D01*
X81980467Y-73224628D01*
X82064735Y-73098513D01*
X82217911Y-72728713D01*
X82296000Y-72336135D01*
X82296000Y-71935865D01*
X82217911Y-71543287D01*
X82064735Y-71173487D01*
X81842357Y-70840675D01*
X81559325Y-70557643D01*
X81226513Y-70335265D01*
X80974795Y-70231000D01*
X81226513Y-70126735D01*
X81559325Y-69904357D01*
X81842357Y-69621325D01*
X82064735Y-69288513D01*
X82217911Y-68918713D01*
X82296000Y-68526135D01*
X82296000Y-68144628D01*
X101257100Y-68144628D01*
X101257100Y-68507372D01*
X101327868Y-68863146D01*
X101466684Y-69198277D01*
X101668214Y-69499888D01*
X101924712Y-69756386D01*
X102226323Y-69957916D01*
X102561454Y-70096732D01*
X102917228Y-70167500D01*
X103279972Y-70167500D01*
X103635746Y-70096732D01*
X103970877Y-69957916D01*
X104272488Y-69756386D01*
X104528986Y-69499888D01*
X104730516Y-69198277D01*
X104869332Y-68863146D01*
X104940100Y-68507372D01*
X104940100Y-68144628D01*
X104869332Y-67788854D01*
X104730516Y-67453723D01*
X104528986Y-67152112D01*
X104272488Y-66895614D01*
X103970877Y-66694084D01*
X103635746Y-66555268D01*
X103279972Y-66484500D01*
X102917228Y-66484500D01*
X102561454Y-66555268D01*
X102226323Y-66694084D01*
X101924712Y-66895614D01*
X101668214Y-67152112D01*
X101466684Y-67453723D01*
X101327868Y-67788854D01*
X101257100Y-68144628D01*
X82296000Y-68144628D01*
X82296000Y-68125865D01*
X82217911Y-67733287D01*
X82064735Y-67363487D01*
X81842357Y-67030675D01*
X81559325Y-66747643D01*
X81226513Y-66525265D01*
X80856713Y-66372089D01*
X80464135Y-66294000D01*
X80063865Y-66294000D01*
X79671287Y-66372089D01*
X79301487Y-66525265D01*
X78968675Y-66747643D01*
X78685643Y-67030675D01*
X78463265Y-67363487D01*
X78310089Y-67733287D01*
X78232000Y-68125865D01*
X74141000Y-68125865D01*
X74141000Y-65715320D01*
X88557100Y-65715320D01*
X88557100Y-66103080D01*
X88632748Y-66483390D01*
X88781138Y-66841635D01*
X88996566Y-67164046D01*
X89270754Y-67438234D01*
X89593165Y-67653662D01*
X89951410Y-67802052D01*
X90331720Y-67877700D01*
X90719480Y-67877700D01*
X91099790Y-67802052D01*
X91458035Y-67653662D01*
X91780446Y-67438234D01*
X92054634Y-67164046D01*
X92270062Y-66841635D01*
X92418452Y-66483390D01*
X92494100Y-66103080D01*
X92494100Y-65715320D01*
X92418452Y-65335010D01*
X92270062Y-64976765D01*
X92054634Y-64654354D01*
X91838378Y-64438098D01*
X102086107Y-64438098D01*
X102191466Y-64710628D01*
X102494631Y-64859459D01*
X102821007Y-64946285D01*
X103158050Y-64967770D01*
X103492808Y-64923088D01*
X103812417Y-64813957D01*
X104005734Y-64710628D01*
X104111093Y-64438098D01*
X103098600Y-63425605D01*
X102086107Y-64438098D01*
X91838378Y-64438098D01*
X91780446Y-64380166D01*
X91458035Y-64164738D01*
X91099790Y-64016348D01*
X90719480Y-63940700D01*
X90331720Y-63940700D01*
X89951410Y-64016348D01*
X89593165Y-64164738D01*
X89270754Y-64380166D01*
X88996566Y-64654354D01*
X88781138Y-64976765D01*
X88632748Y-65335010D01*
X88557100Y-65715320D01*
X74141000Y-65715320D01*
X74141000Y-63305450D01*
X101376830Y-63305450D01*
X101421512Y-63640208D01*
X101530643Y-63959817D01*
X101633972Y-64153134D01*
X101906502Y-64258493D01*
X102918995Y-63246000D01*
X103278205Y-63246000D01*
X104290698Y-64258493D01*
X104563228Y-64153134D01*
X104712059Y-63849969D01*
X104798885Y-63523593D01*
X104820370Y-63186550D01*
X104775688Y-62851792D01*
X104666557Y-62532183D01*
X104563228Y-62338866D01*
X104290698Y-62233507D01*
X103278205Y-63246000D01*
X102918995Y-63246000D01*
X101906502Y-62233507D01*
X101633972Y-62338866D01*
X101485141Y-62642031D01*
X101398315Y-62968407D01*
X101376830Y-63305450D01*
X74141000Y-63305450D01*
X74141000Y-60715320D01*
X88557100Y-60715320D01*
X88557100Y-61103080D01*
X88632748Y-61483390D01*
X88781138Y-61841635D01*
X88996566Y-62164046D01*
X89270754Y-62438234D01*
X89593165Y-62653662D01*
X89951410Y-62802052D01*
X90331720Y-62877700D01*
X90719480Y-62877700D01*
X91099790Y-62802052D01*
X91458035Y-62653662D01*
X91780446Y-62438234D01*
X92054634Y-62164046D01*
X92128229Y-62053902D01*
X102086107Y-62053902D01*
X103098600Y-63066395D01*
X104111093Y-62053902D01*
X104005734Y-61781372D01*
X103702569Y-61632541D01*
X103376193Y-61545715D01*
X103039150Y-61524230D01*
X102704392Y-61568912D01*
X102384783Y-61678043D01*
X102191466Y-61781372D01*
X102086107Y-62053902D01*
X92128229Y-62053902D01*
X92270062Y-61841635D01*
X92418452Y-61483390D01*
X92494100Y-61103080D01*
X92494100Y-60715320D01*
X92418452Y-60335010D01*
X92270062Y-59976765D01*
X92054634Y-59654354D01*
X91780446Y-59380166D01*
X91458035Y-59164738D01*
X91099790Y-59016348D01*
X90719480Y-58940700D01*
X90331720Y-58940700D01*
X89951410Y-59016348D01*
X89593165Y-59164738D01*
X89270754Y-59380166D01*
X88996566Y-59654354D01*
X88781138Y-59976765D01*
X88632748Y-60335010D01*
X88557100Y-60715320D01*
X74141000Y-60715320D01*
X74141000Y-45300968D01*
X74485500Y-45300968D01*
X74485500Y-46139032D01*
X74648998Y-46960992D01*
X74969711Y-47735262D01*
X75435314Y-48432086D01*
X76027914Y-49024686D01*
X76724738Y-49490289D01*
X77499008Y-49811002D01*
X78320968Y-49974500D01*
X79159032Y-49974500D01*
X79980992Y-49811002D01*
X80755262Y-49490289D01*
X81452086Y-49024686D01*
X82044686Y-48432086D01*
X82510289Y-47735262D01*
X82831002Y-46960992D01*
X82994500Y-46139032D01*
X82994500Y-45300968D01*
X158305500Y-45300968D01*
X158305500Y-46139032D01*
X158468998Y-46960992D01*
X158789711Y-47735262D01*
X159255314Y-48432086D01*
X159847914Y-49024686D01*
X160544738Y-49490289D01*
X161319008Y-49811002D01*
X162140968Y-49974500D01*
X162979032Y-49974500D01*
X163800992Y-49811002D01*
X164575262Y-49490289D01*
X165272086Y-49024686D01*
X165864686Y-48432086D01*
X166330289Y-47735262D01*
X166651002Y-46960992D01*
X166814500Y-46139032D01*
X166814500Y-45300968D01*
X166651002Y-44479008D01*
X166330289Y-43704738D01*
X165864686Y-43007914D01*
X165272086Y-42415314D01*
X164575262Y-41949711D01*
X163800992Y-41628998D01*
X162979032Y-41465500D01*
X162140968Y-41465500D01*
X161319008Y-41628998D01*
X160544738Y-41949711D01*
X159847914Y-42415314D01*
X159255314Y-43007914D01*
X158789711Y-43704738D01*
X158468998Y-44479008D01*
X158305500Y-45300968D01*
X82994500Y-45300968D01*
X82831002Y-44479008D01*
X82510289Y-43704738D01*
X82044686Y-43007914D01*
X81452086Y-42415314D01*
X80755262Y-41949711D01*
X79980992Y-41628998D01*
X79159032Y-41465500D01*
X78320968Y-41465500D01*
X77499008Y-41628998D01*
X76724738Y-41949711D01*
X76027914Y-42415314D01*
X75435314Y-43007914D01*
X74969711Y-43704738D01*
X74648998Y-44479008D01*
X74485500Y-45300968D01*
X74141000Y-45300968D01*
X74141000Y-41121000D01*
X167159001Y-41121000D01*
X167159000Y-118899000D01*
G37*
X167159000Y-118899000D02*
X74141000Y-118899000D01*
X74141000Y-113880968D01*
X74485500Y-113880968D01*
X74485500Y-114719032D01*
X74648998Y-115540992D01*
X74969711Y-116315262D01*
X75435314Y-117012086D01*
X76027914Y-117604686D01*
X76724738Y-118070289D01*
X77499008Y-118391002D01*
X78320968Y-118554500D01*
X79159032Y-118554500D01*
X79980992Y-118391002D01*
X80755262Y-118070289D01*
X81452086Y-117604686D01*
X82044686Y-117012086D01*
X82510289Y-116315262D01*
X82831002Y-115540992D01*
X82994500Y-114719032D01*
X82994500Y-113880968D01*
X82984561Y-113831000D01*
X99222314Y-113831000D01*
X99222314Y-115531000D01*
X99237026Y-115680378D01*
X99280598Y-115824015D01*
X99351355Y-115956392D01*
X99446578Y-116072422D01*
X99562608Y-116167645D01*
X99694985Y-116238402D01*
X99838622Y-116281974D01*
X99988000Y-116296686D01*
X101688000Y-116296686D01*
X101837378Y-116281974D01*
X101981015Y-116238402D01*
X102113392Y-116167645D01*
X102229422Y-116072422D01*
X102324645Y-115956392D01*
X102341725Y-115924437D01*
X102350410Y-115933122D01*
X102614432Y-116109536D01*
X102907797Y-116231052D01*
X103219232Y-116293000D01*
X103536768Y-116293000D01*
X103848203Y-116231052D01*
X104141568Y-116109536D01*
X104405590Y-115933122D01*
X104630122Y-115708590D01*
X104806536Y-115444568D01*
X104928052Y-115151203D01*
X104990000Y-114839768D01*
X104990000Y-114522232D01*
X104928052Y-114210797D01*
X104806536Y-113917432D01*
X104782172Y-113880968D01*
X158305500Y-113880968D01*
X158305500Y-114719032D01*
X158468998Y-115540992D01*
X158789711Y-116315262D01*
X159255314Y-117012086D01*
X159847914Y-117604686D01*
X160544738Y-118070289D01*
X161319008Y-118391002D01*
X162140968Y-118554500D01*
X162979032Y-118554500D01*
X163800992Y-118391002D01*
X164575262Y-118070289D01*
X165272086Y-117604686D01*
X165864686Y-117012086D01*
X166330289Y-116315262D01*
X166651002Y-115540992D01*
X166814500Y-114719032D01*
X166814500Y-113880968D01*
X166651002Y-113059008D01*
X166330289Y-112284738D01*
X165864686Y-111587914D01*
X165272086Y-110995314D01*
X164575262Y-110529711D01*
X163800992Y-110208998D01*
X162979032Y-110045500D01*
X162140968Y-110045500D01*
X161319008Y-110208998D01*
X160544738Y-110529711D01*
X159847914Y-110995314D01*
X159255314Y-111587914D01*
X158789711Y-112284738D01*
X158468998Y-113059008D01*
X158305500Y-113880968D01*
X104782172Y-113880968D01*
X104630122Y-113653410D01*
X104405590Y-113428878D01*
X104141568Y-113252464D01*
X103848203Y-113130948D01*
X103536768Y-113069000D01*
X103219232Y-113069000D01*
X102907797Y-113130948D01*
X102614432Y-113252464D01*
X102350410Y-113428878D01*
X102341725Y-113437563D01*
X102324645Y-113405608D01*
X102229422Y-113289578D01*
X102113392Y-113194355D01*
X101981015Y-113123598D01*
X101837378Y-113080026D01*
X101688000Y-113065314D01*
X99988000Y-113065314D01*
X99838622Y-113080026D01*
X99694985Y-113123598D01*
X99562608Y-113194355D01*
X99446578Y-113289578D01*
X99351355Y-113405608D01*
X99280598Y-113537985D01*
X99237026Y-113681622D01*
X99222314Y-113831000D01*
X82984561Y-113831000D01*
X82831002Y-113059008D01*
X82510289Y-112284738D01*
X82044686Y-111587914D01*
X81452086Y-110995314D01*
X80755262Y-110529711D01*
X79980992Y-110208998D01*
X79159032Y-110045500D01*
X78320968Y-110045500D01*
X77499008Y-110208998D01*
X76724738Y-110529711D01*
X76027914Y-110995314D01*
X75435314Y-111587914D01*
X74969711Y-112284738D01*
X74648998Y-113059008D01*
X74485500Y-113880968D01*
X74141000Y-113880968D01*
X74141000Y-107735000D01*
X99222314Y-107735000D01*
X99222314Y-109435000D01*
X99237026Y-109584378D01*
X99280598Y-109728015D01*
X99351355Y-109860392D01*
X99446578Y-109976422D01*
X99562608Y-110071645D01*
X99694985Y-110142402D01*
X99838622Y-110185974D01*
X99988000Y-110200686D01*
X101688000Y-110200686D01*
X101837378Y-110185974D01*
X101981015Y-110142402D01*
X102113392Y-110071645D01*
X102229422Y-109976422D01*
X102324645Y-109860392D01*
X102341725Y-109828437D01*
X102350410Y-109837122D01*
X102614432Y-110013536D01*
X102907797Y-110135052D01*
X103219232Y-110197000D01*
X103536768Y-110197000D01*
X103848203Y-110135052D01*
X104141568Y-110013536D01*
X104405590Y-109837122D01*
X104630122Y-109612590D01*
X104806536Y-109348568D01*
X104928052Y-109055203D01*
X104990000Y-108743768D01*
X104990000Y-108426232D01*
X104928052Y-108114797D01*
X104806536Y-107821432D01*
X104676522Y-107626852D01*
X159887753Y-107626852D01*
X160016076Y-107918871D01*
X160351695Y-108086723D01*
X160713611Y-108185874D01*
X161087916Y-108212514D01*
X161460227Y-108165618D01*
X161816235Y-108046988D01*
X162055924Y-107918871D01*
X162184247Y-107626852D01*
X161036000Y-106478605D01*
X159887753Y-107626852D01*
X104676522Y-107626852D01*
X104630122Y-107557410D01*
X104405590Y-107332878D01*
X104141568Y-107156464D01*
X103848203Y-107034948D01*
X103536768Y-106973000D01*
X103219232Y-106973000D01*
X102907797Y-107034948D01*
X102614432Y-107156464D01*
X102350410Y-107332878D01*
X102341725Y-107341563D01*
X102324645Y-107309608D01*
X102229422Y-107193578D01*
X102113392Y-107098355D01*
X101981015Y-107027598D01*
X101837378Y-106984026D01*
X101688000Y-106969314D01*
X99988000Y-106969314D01*
X99838622Y-106984026D01*
X99694985Y-107027598D01*
X99562608Y-107098355D01*
X99446578Y-107193578D01*
X99351355Y-107309608D01*
X99280598Y-107441985D01*
X99237026Y-107585622D01*
X99222314Y-107735000D01*
X74141000Y-107735000D01*
X74141000Y-106350916D01*
X159122486Y-106350916D01*
X159169382Y-106723227D01*
X159288012Y-107079235D01*
X159416129Y-107318924D01*
X159708148Y-107447247D01*
X160856395Y-106299000D01*
X161215605Y-106299000D01*
X162363852Y-107447247D01*
X162655871Y-107318924D01*
X162823723Y-106983305D01*
X162922874Y-106621389D01*
X162949514Y-106247084D01*
X162902618Y-105874773D01*
X162783988Y-105518765D01*
X162655871Y-105279076D01*
X162363852Y-105150753D01*
X161215605Y-106299000D01*
X160856395Y-106299000D01*
X159708148Y-105150753D01*
X159416129Y-105279076D01*
X159248277Y-105614695D01*
X159149126Y-105976611D01*
X159122486Y-106350916D01*
X74141000Y-106350916D01*
X74141000Y-101639000D01*
X99222314Y-101639000D01*
X99222314Y-103339000D01*
X99237026Y-103488378D01*
X99280598Y-103632015D01*
X99351355Y-103764392D01*
X99446578Y-103880422D01*
X99562608Y-103975645D01*
X99694985Y-104046402D01*
X99838622Y-104089974D01*
X99988000Y-104104686D01*
X101688000Y-104104686D01*
X101837378Y-104089974D01*
X101981015Y-104046402D01*
X102113392Y-103975645D01*
X102229422Y-103880422D01*
X102324645Y-103764392D01*
X102341725Y-103732437D01*
X102350410Y-103741122D01*
X102614432Y-103917536D01*
X102907797Y-104039052D01*
X103219232Y-104101000D01*
X103536768Y-104101000D01*
X103848203Y-104039052D01*
X104141568Y-103917536D01*
X104292252Y-103816852D01*
X159887753Y-103816852D01*
X160016076Y-104108871D01*
X160351695Y-104276723D01*
X160713611Y-104375874D01*
X160935192Y-104391644D01*
X160611773Y-104432382D01*
X160255765Y-104551012D01*
X160016076Y-104679129D01*
X159887753Y-104971148D01*
X161036000Y-106119395D01*
X162184247Y-104971148D01*
X162055924Y-104679129D01*
X161720305Y-104511277D01*
X161358389Y-104412126D01*
X161136808Y-104396356D01*
X161460227Y-104355618D01*
X161816235Y-104236988D01*
X162055924Y-104108871D01*
X162184247Y-103816852D01*
X161036000Y-102668605D01*
X159887753Y-103816852D01*
X104292252Y-103816852D01*
X104405590Y-103741122D01*
X104630122Y-103516590D01*
X104806536Y-103252568D01*
X104928052Y-102959203D01*
X104990000Y-102647768D01*
X104990000Y-102540916D01*
X159122486Y-102540916D01*
X159169382Y-102913227D01*
X159288012Y-103269235D01*
X159416129Y-103508924D01*
X159708148Y-103637247D01*
X160856395Y-102489000D01*
X161215605Y-102489000D01*
X162363852Y-103637247D01*
X162655871Y-103508924D01*
X162823723Y-103173305D01*
X162922874Y-102811389D01*
X162949514Y-102437084D01*
X162902618Y-102064773D01*
X162783988Y-101708765D01*
X162655871Y-101469076D01*
X162363852Y-101340753D01*
X161215605Y-102489000D01*
X160856395Y-102489000D01*
X159708148Y-101340753D01*
X159416129Y-101469076D01*
X159248277Y-101804695D01*
X159149126Y-102166611D01*
X159122486Y-102540916D01*
X104990000Y-102540916D01*
X104990000Y-102330232D01*
X104928052Y-102018797D01*
X104806536Y-101725432D01*
X104630122Y-101461410D01*
X104405590Y-101236878D01*
X104141568Y-101060464D01*
X103848203Y-100938948D01*
X103536768Y-100877000D01*
X103219232Y-100877000D01*
X102907797Y-100938948D01*
X102614432Y-101060464D01*
X102350410Y-101236878D01*
X102341725Y-101245563D01*
X102324645Y-101213608D01*
X102229422Y-101097578D01*
X102113392Y-101002355D01*
X101981015Y-100931598D01*
X101837378Y-100888026D01*
X101688000Y-100873314D01*
X99988000Y-100873314D01*
X99838622Y-100888026D01*
X99694985Y-100931598D01*
X99562608Y-101002355D01*
X99446578Y-101097578D01*
X99351355Y-101213608D01*
X99280598Y-101345985D01*
X99237026Y-101489622D01*
X99222314Y-101639000D01*
X74141000Y-101639000D01*
X74141000Y-95543000D01*
X99222314Y-95543000D01*
X99222314Y-97243000D01*
X99237026Y-97392378D01*
X99280598Y-97536015D01*
X99351355Y-97668392D01*
X99446578Y-97784422D01*
X99562608Y-97879645D01*
X99694985Y-97950402D01*
X99838622Y-97993974D01*
X99988000Y-98008686D01*
X101688000Y-98008686D01*
X101837378Y-97993974D01*
X101981015Y-97950402D01*
X102113392Y-97879645D01*
X102229422Y-97784422D01*
X102324645Y-97668392D01*
X102341725Y-97636437D01*
X102350410Y-97645122D01*
X102614432Y-97821536D01*
X102907797Y-97943052D01*
X103219232Y-98005000D01*
X103536768Y-98005000D01*
X103848203Y-97943052D01*
X104141568Y-97821536D01*
X104405590Y-97645122D01*
X104630122Y-97420590D01*
X104806536Y-97156568D01*
X104928052Y-96863203D01*
X104990000Y-96551768D01*
X104990000Y-96234232D01*
X104928052Y-95922797D01*
X104806536Y-95629432D01*
X104630122Y-95365410D01*
X104405590Y-95140878D01*
X104141568Y-94964464D01*
X103848203Y-94842948D01*
X103540790Y-94781800D01*
X131608114Y-94781800D01*
X131608114Y-96581800D01*
X131622826Y-96731178D01*
X131666398Y-96874815D01*
X131737155Y-97007192D01*
X131832378Y-97123222D01*
X131946433Y-97216824D01*
X131800954Y-97434548D01*
X131675669Y-97737012D01*
X131611800Y-98058107D01*
X131611800Y-98385493D01*
X131675669Y-98706588D01*
X131800954Y-99009052D01*
X131982840Y-99281263D01*
X132193377Y-99491800D01*
X131982840Y-99702337D01*
X131800954Y-99974548D01*
X131675669Y-100277012D01*
X131611800Y-100598107D01*
X131611800Y-100925493D01*
X131675669Y-101246588D01*
X131800954Y-101549052D01*
X131982840Y-101821263D01*
X132214337Y-102052760D01*
X132486548Y-102234646D01*
X132789012Y-102359931D01*
X133110107Y-102423800D01*
X133437493Y-102423800D01*
X133758588Y-102359931D01*
X134061052Y-102234646D01*
X134333263Y-102052760D01*
X134564760Y-101821263D01*
X134746646Y-101549052D01*
X134871931Y-101246588D01*
X134888925Y-101161148D01*
X159887753Y-101161148D01*
X161036000Y-102309395D01*
X162184247Y-101161148D01*
X162055924Y-100869129D01*
X161720305Y-100701277D01*
X161358389Y-100602126D01*
X160984084Y-100575486D01*
X160611773Y-100622382D01*
X160255765Y-100741012D01*
X160016076Y-100869129D01*
X159887753Y-101161148D01*
X134888925Y-101161148D01*
X134935800Y-100925493D01*
X134935800Y-100598107D01*
X134871931Y-100277012D01*
X134746646Y-99974548D01*
X134564760Y-99702337D01*
X134354223Y-99491800D01*
X134564760Y-99281263D01*
X134746646Y-99009052D01*
X134871931Y-98706588D01*
X134935800Y-98385493D01*
X134935800Y-98058107D01*
X134919148Y-97974390D01*
X147421800Y-97974390D01*
X147421800Y-98469210D01*
X147518335Y-98954523D01*
X147707695Y-99411678D01*
X147982603Y-99823106D01*
X148332494Y-100172997D01*
X148743922Y-100447905D01*
X149201077Y-100637265D01*
X149686390Y-100733800D01*
X150181210Y-100733800D01*
X150666523Y-100637265D01*
X151123678Y-100447905D01*
X151535106Y-100172997D01*
X151884997Y-99823106D01*
X152159905Y-99411678D01*
X152349265Y-98954523D01*
X152445800Y-98469210D01*
X152445800Y-97974390D01*
X152349265Y-97489077D01*
X152159905Y-97031922D01*
X151884997Y-96620494D01*
X151535106Y-96270603D01*
X151123678Y-95995695D01*
X150666523Y-95806335D01*
X150181210Y-95709800D01*
X149686390Y-95709800D01*
X149201077Y-95806335D01*
X148743922Y-95995695D01*
X148332494Y-96270603D01*
X147982603Y-96620494D01*
X147707695Y-97031922D01*
X147518335Y-97489077D01*
X147421800Y-97974390D01*
X134919148Y-97974390D01*
X134871931Y-97737012D01*
X134746646Y-97434548D01*
X134601167Y-97216824D01*
X134715222Y-97123222D01*
X134810445Y-97007192D01*
X134881202Y-96874815D01*
X134924774Y-96731178D01*
X134939486Y-96581800D01*
X134939486Y-94781800D01*
X134924774Y-94632422D01*
X134881202Y-94488785D01*
X134810445Y-94356408D01*
X134715222Y-94240378D01*
X134599192Y-94145155D01*
X134466815Y-94074398D01*
X134323178Y-94030826D01*
X134173800Y-94016114D01*
X132373800Y-94016114D01*
X132224422Y-94030826D01*
X132080785Y-94074398D01*
X131948408Y-94145155D01*
X131832378Y-94240378D01*
X131737155Y-94356408D01*
X131666398Y-94488785D01*
X131622826Y-94632422D01*
X131608114Y-94781800D01*
X103540790Y-94781800D01*
X103536768Y-94781000D01*
X103219232Y-94781000D01*
X102907797Y-94842948D01*
X102614432Y-94964464D01*
X102350410Y-95140878D01*
X102341725Y-95149563D01*
X102324645Y-95117608D01*
X102229422Y-95001578D01*
X102113392Y-94906355D01*
X101981015Y-94835598D01*
X101837378Y-94792026D01*
X101688000Y-94777314D01*
X99988000Y-94777314D01*
X99838622Y-94792026D01*
X99694985Y-94835598D01*
X99562608Y-94906355D01*
X99446578Y-95001578D01*
X99351355Y-95117608D01*
X99280598Y-95249985D01*
X99237026Y-95393622D01*
X99222314Y-95543000D01*
X74141000Y-95543000D01*
X74141000Y-85905865D01*
X78232000Y-85905865D01*
X78232000Y-86306135D01*
X78310089Y-86698713D01*
X78463265Y-87068513D01*
X78685643Y-87401325D01*
X78968675Y-87684357D01*
X79301487Y-87906735D01*
X79553205Y-88011000D01*
X79301487Y-88115265D01*
X78968675Y-88337643D01*
X78685643Y-88620675D01*
X78463265Y-88953487D01*
X78310089Y-89323287D01*
X78232000Y-89715865D01*
X78232000Y-90116135D01*
X78310089Y-90508713D01*
X78463265Y-90878513D01*
X78685643Y-91211325D01*
X78968675Y-91494357D01*
X79301487Y-91716735D01*
X79671287Y-91869911D01*
X80063865Y-91948000D01*
X80464135Y-91948000D01*
X80856713Y-91869911D01*
X81226513Y-91716735D01*
X81559325Y-91494357D01*
X81842357Y-91211325D01*
X82064735Y-90878513D01*
X82217911Y-90508713D01*
X82296000Y-90116135D01*
X82296000Y-89715865D01*
X82217911Y-89323287D01*
X82064735Y-88953487D01*
X81842357Y-88620675D01*
X81559325Y-88337643D01*
X81226513Y-88115265D01*
X80974795Y-88011000D01*
X81226513Y-87906735D01*
X81523193Y-87708499D01*
X91567000Y-87708499D01*
X91567000Y-88008701D01*
X91625566Y-88303134D01*
X91740449Y-88580485D01*
X91907232Y-88830093D01*
X92119507Y-89042368D01*
X92369115Y-89209151D01*
X92646466Y-89324034D01*
X92940899Y-89382600D01*
X93241101Y-89382600D01*
X93535534Y-89324034D01*
X93812885Y-89209151D01*
X94062493Y-89042368D01*
X94274768Y-88830093D01*
X94441551Y-88580485D01*
X94556434Y-88303134D01*
X94615000Y-88008701D01*
X94615000Y-87708499D01*
X96545400Y-87708499D01*
X96545400Y-88008701D01*
X96603966Y-88303134D01*
X96718849Y-88580485D01*
X96885632Y-88830093D01*
X97097907Y-89042368D01*
X97347515Y-89209151D01*
X97624866Y-89324034D01*
X97919299Y-89382600D01*
X98219501Y-89382600D01*
X98513934Y-89324034D01*
X98791285Y-89209151D01*
X99040893Y-89042368D01*
X99253168Y-88830093D01*
X99419951Y-88580485D01*
X99534834Y-88303134D01*
X99593400Y-88008701D01*
X99593400Y-87708499D01*
X99534834Y-87414066D01*
X99419951Y-87136715D01*
X99253168Y-86887107D01*
X99160926Y-86794865D01*
X159004000Y-86794865D01*
X159004000Y-87195135D01*
X159082089Y-87587713D01*
X159235265Y-87957513D01*
X159457643Y-88290325D01*
X159740675Y-88573357D01*
X160073487Y-88795735D01*
X160325205Y-88900000D01*
X160073487Y-89004265D01*
X159740675Y-89226643D01*
X159457643Y-89509675D01*
X159235265Y-89842487D01*
X159082089Y-90212287D01*
X159004000Y-90604865D01*
X159004000Y-91005135D01*
X159082089Y-91397713D01*
X159235265Y-91767513D01*
X159457643Y-92100325D01*
X159740675Y-92383357D01*
X160073487Y-92605735D01*
X160443287Y-92758911D01*
X160835865Y-92837000D01*
X161236135Y-92837000D01*
X161628713Y-92758911D01*
X161998513Y-92605735D01*
X162331325Y-92383357D01*
X162614357Y-92100325D01*
X162836735Y-91767513D01*
X162989911Y-91397713D01*
X163068000Y-91005135D01*
X163068000Y-90604865D01*
X162989911Y-90212287D01*
X162836735Y-89842487D01*
X162614357Y-89509675D01*
X162331325Y-89226643D01*
X161998513Y-89004265D01*
X161746795Y-88900000D01*
X161998513Y-88795735D01*
X162331325Y-88573357D01*
X162614357Y-88290325D01*
X162836735Y-87957513D01*
X162989911Y-87587713D01*
X163068000Y-87195135D01*
X163068000Y-86794865D01*
X162989911Y-86402287D01*
X162836735Y-86032487D01*
X162614357Y-85699675D01*
X162331325Y-85416643D01*
X161998513Y-85194265D01*
X161628713Y-85041089D01*
X161236135Y-84963000D01*
X160835865Y-84963000D01*
X160443287Y-85041089D01*
X160073487Y-85194265D01*
X159740675Y-85416643D01*
X159457643Y-85699675D01*
X159235265Y-86032487D01*
X159082089Y-86402287D01*
X159004000Y-86794865D01*
X99160926Y-86794865D01*
X99040893Y-86674832D01*
X98791285Y-86508049D01*
X98513934Y-86393166D01*
X98219501Y-86334600D01*
X97919299Y-86334600D01*
X97624866Y-86393166D01*
X97347515Y-86508049D01*
X97097907Y-86674832D01*
X96885632Y-86887107D01*
X96718849Y-87136715D01*
X96603966Y-87414066D01*
X96545400Y-87708499D01*
X94615000Y-87708499D01*
X94556434Y-87414066D01*
X94441551Y-87136715D01*
X94274768Y-86887107D01*
X94062493Y-86674832D01*
X93812885Y-86508049D01*
X93535534Y-86393166D01*
X93241101Y-86334600D01*
X92940899Y-86334600D01*
X92646466Y-86393166D01*
X92369115Y-86508049D01*
X92119507Y-86674832D01*
X91907232Y-86887107D01*
X91740449Y-87136715D01*
X91625566Y-87414066D01*
X91567000Y-87708499D01*
X81523193Y-87708499D01*
X81559325Y-87684357D01*
X81842357Y-87401325D01*
X82064735Y-87068513D01*
X82217911Y-86698713D01*
X82296000Y-86306135D01*
X82296000Y-85905865D01*
X82217911Y-85513287D01*
X82064735Y-85143487D01*
X81842357Y-84810675D01*
X81559325Y-84527643D01*
X81226513Y-84305265D01*
X80856713Y-84152089D01*
X80464135Y-84074000D01*
X80063865Y-84074000D01*
X79671287Y-84152089D01*
X79301487Y-84305265D01*
X78968675Y-84527643D01*
X78685643Y-84810675D01*
X78463265Y-85143487D01*
X78310089Y-85513287D01*
X78232000Y-85905865D01*
X74141000Y-85905865D01*
X74141000Y-80715320D01*
X88557100Y-80715320D01*
X88557100Y-81103080D01*
X88632748Y-81483390D01*
X88781138Y-81841635D01*
X88996566Y-82164046D01*
X89270754Y-82438234D01*
X89593165Y-82653662D01*
X89951410Y-82802052D01*
X90331720Y-82877700D01*
X90719480Y-82877700D01*
X91099790Y-82802052D01*
X91458035Y-82653662D01*
X91780446Y-82438234D01*
X92054634Y-82164046D01*
X92270062Y-81841635D01*
X92418452Y-81483390D01*
X92494100Y-81103080D01*
X92494100Y-80715320D01*
X92418452Y-80335010D01*
X92270062Y-79976765D01*
X92054634Y-79654354D01*
X91780446Y-79380166D01*
X91458035Y-79164738D01*
X91099790Y-79016348D01*
X90719480Y-78940700D01*
X90331720Y-78940700D01*
X89951410Y-79016348D01*
X89593165Y-79164738D01*
X89270754Y-79380166D01*
X88996566Y-79654354D01*
X88781138Y-79976765D01*
X88632748Y-80335010D01*
X88557100Y-80715320D01*
X74141000Y-80715320D01*
X74141000Y-78304628D01*
X101257100Y-78304628D01*
X101257100Y-78667372D01*
X101327868Y-79023146D01*
X101466684Y-79358277D01*
X101668214Y-79659888D01*
X101924712Y-79916386D01*
X102226323Y-80117916D01*
X102561454Y-80256732D01*
X102917228Y-80327500D01*
X103279972Y-80327500D01*
X103635746Y-80256732D01*
X103970877Y-80117916D01*
X104272488Y-79916386D01*
X104528986Y-79659888D01*
X104730516Y-79358277D01*
X104869332Y-79023146D01*
X104940100Y-78667372D01*
X104940100Y-78304628D01*
X104869332Y-77948854D01*
X104730516Y-77613723D01*
X104549625Y-77343000D01*
X124176914Y-77343000D01*
X124176914Y-79629000D01*
X124191626Y-79778378D01*
X124235198Y-79922015D01*
X124305955Y-80054392D01*
X124401178Y-80170422D01*
X124517208Y-80265645D01*
X124649585Y-80336402D01*
X124793222Y-80379974D01*
X124942600Y-80394686D01*
X127228600Y-80394686D01*
X127377978Y-80379974D01*
X127521615Y-80336402D01*
X127653992Y-80265645D01*
X127770022Y-80170422D01*
X127865245Y-80054392D01*
X127936002Y-79922015D01*
X127979574Y-79778378D01*
X127994286Y-79629000D01*
X127994286Y-77343000D01*
X127979574Y-77193622D01*
X127936002Y-77049985D01*
X127865245Y-76917608D01*
X127770022Y-76801578D01*
X127653992Y-76706355D01*
X127521615Y-76635598D01*
X127377978Y-76592026D01*
X127228600Y-76577314D01*
X124942600Y-76577314D01*
X124793222Y-76592026D01*
X124649585Y-76635598D01*
X124517208Y-76706355D01*
X124401178Y-76801578D01*
X124305955Y-76917608D01*
X124235198Y-77049985D01*
X124191626Y-77193622D01*
X124176914Y-77343000D01*
X104549625Y-77343000D01*
X104528986Y-77312112D01*
X104272488Y-77055614D01*
X103970877Y-76854084D01*
X103635746Y-76715268D01*
X103279972Y-76644500D01*
X102917228Y-76644500D01*
X102561454Y-76715268D01*
X102226323Y-76854084D01*
X101924712Y-77055614D01*
X101668214Y-77312112D01*
X101466684Y-77613723D01*
X101327868Y-77948854D01*
X101257100Y-78304628D01*
X74141000Y-78304628D01*
X74141000Y-75715320D01*
X88557100Y-75715320D01*
X88557100Y-76103080D01*
X88632748Y-76483390D01*
X88781138Y-76841635D01*
X88996566Y-77164046D01*
X89270754Y-77438234D01*
X89593165Y-77653662D01*
X89951410Y-77802052D01*
X90331720Y-77877700D01*
X90719480Y-77877700D01*
X91099790Y-77802052D01*
X91458035Y-77653662D01*
X91780446Y-77438234D01*
X92054634Y-77164046D01*
X92270062Y-76841635D01*
X92418452Y-76483390D01*
X92426645Y-76442200D01*
X161706314Y-76442200D01*
X161706314Y-78142200D01*
X161721026Y-78291578D01*
X161764598Y-78435215D01*
X161835355Y-78567592D01*
X161930578Y-78683622D01*
X162046608Y-78778845D01*
X162078563Y-78795925D01*
X162069878Y-78804610D01*
X161893464Y-79068632D01*
X161771948Y-79361997D01*
X161710000Y-79673432D01*
X161710000Y-79990968D01*
X161771948Y-80302403D01*
X161893464Y-80595768D01*
X162069878Y-80859790D01*
X162294410Y-81084322D01*
X162558432Y-81260736D01*
X162851797Y-81382252D01*
X163163232Y-81444200D01*
X163480768Y-81444200D01*
X163792203Y-81382252D01*
X164085568Y-81260736D01*
X164349590Y-81084322D01*
X164574122Y-80859790D01*
X164750536Y-80595768D01*
X164872052Y-80302403D01*
X164934000Y-79990968D01*
X164934000Y-79673432D01*
X164872052Y-79361997D01*
X164750536Y-79068632D01*
X164574122Y-78804610D01*
X164565437Y-78795925D01*
X164597392Y-78778845D01*
X164713422Y-78683622D01*
X164808645Y-78567592D01*
X164879402Y-78435215D01*
X164922974Y-78291578D01*
X164937686Y-78142200D01*
X164937686Y-76442200D01*
X164922974Y-76292822D01*
X164879402Y-76149185D01*
X164808645Y-76016808D01*
X164713422Y-75900778D01*
X164597392Y-75805555D01*
X164465015Y-75734798D01*
X164321378Y-75691226D01*
X164172000Y-75676514D01*
X162472000Y-75676514D01*
X162322622Y-75691226D01*
X162178985Y-75734798D01*
X162046608Y-75805555D01*
X161930578Y-75900778D01*
X161835355Y-76016808D01*
X161764598Y-76149185D01*
X161721026Y-76292822D01*
X161706314Y-76442200D01*
X92426645Y-76442200D01*
X92494100Y-76103080D01*
X92494100Y-75715320D01*
X92418452Y-75335010D01*
X92270062Y-74976765D01*
X92054634Y-74654354D01*
X91780446Y-74380166D01*
X91458035Y-74164738D01*
X91099790Y-74016348D01*
X90719480Y-73940700D01*
X90331720Y-73940700D01*
X89951410Y-74016348D01*
X89593165Y-74164738D01*
X89270754Y-74380166D01*
X88996566Y-74654354D01*
X88781138Y-74976765D01*
X88632748Y-75335010D01*
X88557100Y-75715320D01*
X74141000Y-75715320D01*
X74141000Y-68125865D01*
X78232000Y-68125865D01*
X78232000Y-68526135D01*
X78310089Y-68918713D01*
X78463265Y-69288513D01*
X78685643Y-69621325D01*
X78968675Y-69904357D01*
X79301487Y-70126735D01*
X79553205Y-70231000D01*
X79301487Y-70335265D01*
X78968675Y-70557643D01*
X78685643Y-70840675D01*
X78463265Y-71173487D01*
X78310089Y-71543287D01*
X78232000Y-71935865D01*
X78232000Y-72336135D01*
X78310089Y-72728713D01*
X78463265Y-73098513D01*
X78685643Y-73431325D01*
X78968675Y-73714357D01*
X79301487Y-73936735D01*
X79671287Y-74089911D01*
X80063865Y-74168000D01*
X80464135Y-74168000D01*
X80856713Y-74089911D01*
X81226513Y-73936735D01*
X81559325Y-73714357D01*
X81842357Y-73431325D01*
X81980467Y-73224628D01*
X101257100Y-73224628D01*
X101257100Y-73587372D01*
X101327868Y-73943146D01*
X101466684Y-74278277D01*
X101668214Y-74579888D01*
X101924712Y-74836386D01*
X102226323Y-75037916D01*
X102561454Y-75176732D01*
X102917228Y-75247500D01*
X103279972Y-75247500D01*
X103635746Y-75176732D01*
X103970877Y-75037916D01*
X104272488Y-74836386D01*
X104528986Y-74579888D01*
X104549625Y-74549000D01*
X106242861Y-74549000D01*
X106299000Y-74554529D01*
X106355139Y-74549000D01*
X106355146Y-74549000D01*
X106523067Y-74532461D01*
X106738523Y-74467103D01*
X106937089Y-74360968D01*
X107111133Y-74218133D01*
X107146927Y-74174518D01*
X109099523Y-72221923D01*
X109143133Y-72186133D01*
X109285968Y-72012089D01*
X109392103Y-71813523D01*
X109457461Y-71598067D01*
X109474000Y-71430146D01*
X109474000Y-71430139D01*
X109479529Y-71374000D01*
X109474000Y-71317861D01*
X109474000Y-69049000D01*
X161833928Y-69049000D01*
X161846188Y-69173482D01*
X161882498Y-69293180D01*
X161941463Y-69403494D01*
X162020815Y-69500185D01*
X162117506Y-69579537D01*
X162227820Y-69638502D01*
X162347518Y-69674812D01*
X162472000Y-69687072D01*
X163036250Y-69684000D01*
X163195000Y-69525250D01*
X163195000Y-68326000D01*
X163449000Y-68326000D01*
X163449000Y-69525250D01*
X163607750Y-69684000D01*
X164172000Y-69687072D01*
X164296482Y-69674812D01*
X164416180Y-69638502D01*
X164526494Y-69579537D01*
X164623185Y-69500185D01*
X164702537Y-69403494D01*
X164761502Y-69293180D01*
X164797812Y-69173482D01*
X164810072Y-69049000D01*
X164807000Y-68484750D01*
X164648250Y-68326000D01*
X163449000Y-68326000D01*
X163195000Y-68326000D01*
X161995750Y-68326000D01*
X161837000Y-68484750D01*
X161833928Y-69049000D01*
X109474000Y-69049000D01*
X109474000Y-67223360D01*
X125027845Y-67223360D01*
X125140864Y-67502384D01*
X125454849Y-67657556D01*
X125793073Y-67748491D01*
X126142538Y-67771694D01*
X126489816Y-67726275D01*
X126821560Y-67613977D01*
X127030336Y-67502384D01*
X127092464Y-67349000D01*
X161833928Y-67349000D01*
X161837000Y-67913250D01*
X161995750Y-68072000D01*
X163195000Y-68072000D01*
X163195000Y-65786000D01*
X163449000Y-65786000D01*
X163449000Y-68072000D01*
X164648250Y-68072000D01*
X164807000Y-67913250D01*
X164810072Y-67349000D01*
X164797812Y-67224518D01*
X164761502Y-67104820D01*
X164702537Y-66994506D01*
X164623185Y-66897815D01*
X164526494Y-66818463D01*
X164416180Y-66759498D01*
X164335534Y-66735034D01*
X164419588Y-66659269D01*
X164593641Y-66425920D01*
X164718825Y-66163099D01*
X164763476Y-66015890D01*
X164642155Y-65786000D01*
X163449000Y-65786000D01*
X163195000Y-65786000D01*
X162001845Y-65786000D01*
X161880524Y-66015890D01*
X161925175Y-66163099D01*
X162050359Y-66425920D01*
X162224412Y-66659269D01*
X162308466Y-66735034D01*
X162227820Y-66759498D01*
X162117506Y-66818463D01*
X162020815Y-66897815D01*
X161941463Y-66994506D01*
X161882498Y-67104820D01*
X161846188Y-67224518D01*
X161833928Y-67349000D01*
X127092464Y-67349000D01*
X127143355Y-67223360D01*
X126085600Y-66165605D01*
X125027845Y-67223360D01*
X109474000Y-67223360D01*
X109474000Y-66042938D01*
X124299906Y-66042938D01*
X124345325Y-66390216D01*
X124457623Y-66721960D01*
X124569216Y-66930736D01*
X124848240Y-67043755D01*
X125905995Y-65986000D01*
X126265205Y-65986000D01*
X127322960Y-67043755D01*
X127601984Y-66930736D01*
X127757156Y-66616751D01*
X127848091Y-66278527D01*
X127871294Y-65929062D01*
X127825875Y-65581784D01*
X127731204Y-65302110D01*
X161880524Y-65302110D01*
X162001845Y-65532000D01*
X163195000Y-65532000D01*
X163195000Y-64338186D01*
X163449000Y-64338186D01*
X163449000Y-65532000D01*
X164642155Y-65532000D01*
X164763476Y-65302110D01*
X164718825Y-65154901D01*
X164593641Y-64892080D01*
X164419588Y-64658731D01*
X164203355Y-64463822D01*
X163953252Y-64314843D01*
X163678891Y-64217519D01*
X163449000Y-64338186D01*
X163195000Y-64338186D01*
X162965109Y-64217519D01*
X162690748Y-64314843D01*
X162440645Y-64463822D01*
X162224412Y-64658731D01*
X162050359Y-64892080D01*
X161925175Y-65154901D01*
X161880524Y-65302110D01*
X127731204Y-65302110D01*
X127713577Y-65250040D01*
X127601984Y-65041264D01*
X127322960Y-64928245D01*
X126265205Y-65986000D01*
X125905995Y-65986000D01*
X124848240Y-64928245D01*
X124569216Y-65041264D01*
X124414044Y-65355249D01*
X124323109Y-65693473D01*
X124299906Y-66042938D01*
X109474000Y-66042938D01*
X109474000Y-65020261D01*
X109514768Y-64979493D01*
X109669019Y-64748640D01*
X125027845Y-64748640D01*
X126085600Y-65806395D01*
X127143355Y-64748640D01*
X127030336Y-64469616D01*
X126716351Y-64314444D01*
X126378127Y-64223509D01*
X126028662Y-64200306D01*
X125681384Y-64245725D01*
X125349640Y-64358023D01*
X125140864Y-64469616D01*
X125027845Y-64748640D01*
X109669019Y-64748640D01*
X109681551Y-64729885D01*
X109796434Y-64452534D01*
X109855000Y-64158101D01*
X109855000Y-63857899D01*
X109796434Y-63563466D01*
X109681551Y-63286115D01*
X109514768Y-63036507D01*
X109302493Y-62824232D01*
X109052885Y-62657449D01*
X108775534Y-62542566D01*
X108481101Y-62484000D01*
X108180899Y-62484000D01*
X107886466Y-62542566D01*
X107609115Y-62657449D01*
X107359507Y-62824232D01*
X107147232Y-63036507D01*
X106980449Y-63286115D01*
X106865566Y-63563466D01*
X106807000Y-63857899D01*
X106807000Y-64158101D01*
X106865566Y-64452534D01*
X106980449Y-64729885D01*
X107147232Y-64979493D01*
X107188000Y-65020261D01*
X107188001Y-70900553D01*
X105825555Y-72263000D01*
X104549625Y-72263000D01*
X104528986Y-72232112D01*
X104272488Y-71975614D01*
X103970877Y-71774084D01*
X103635746Y-71635268D01*
X103279972Y-71564500D01*
X102917228Y-71564500D01*
X102561454Y-71635268D01*
X102226323Y-71774084D01*
X101924712Y-71975614D01*
X101668214Y-72232112D01*
X101466684Y-72533723D01*
X101327868Y-72868854D01*
X101257100Y-73224628D01*
X81980467Y-73224628D01*
X82064735Y-73098513D01*
X82217911Y-72728713D01*
X82296000Y-72336135D01*
X82296000Y-71935865D01*
X82217911Y-71543287D01*
X82064735Y-71173487D01*
X81842357Y-70840675D01*
X81559325Y-70557643D01*
X81226513Y-70335265D01*
X80974795Y-70231000D01*
X81226513Y-70126735D01*
X81559325Y-69904357D01*
X81842357Y-69621325D01*
X82064735Y-69288513D01*
X82217911Y-68918713D01*
X82296000Y-68526135D01*
X82296000Y-68144628D01*
X101257100Y-68144628D01*
X101257100Y-68507372D01*
X101327868Y-68863146D01*
X101466684Y-69198277D01*
X101668214Y-69499888D01*
X101924712Y-69756386D01*
X102226323Y-69957916D01*
X102561454Y-70096732D01*
X102917228Y-70167500D01*
X103279972Y-70167500D01*
X103635746Y-70096732D01*
X103970877Y-69957916D01*
X104272488Y-69756386D01*
X104528986Y-69499888D01*
X104730516Y-69198277D01*
X104869332Y-68863146D01*
X104940100Y-68507372D01*
X104940100Y-68144628D01*
X104869332Y-67788854D01*
X104730516Y-67453723D01*
X104528986Y-67152112D01*
X104272488Y-66895614D01*
X103970877Y-66694084D01*
X103635746Y-66555268D01*
X103279972Y-66484500D01*
X102917228Y-66484500D01*
X102561454Y-66555268D01*
X102226323Y-66694084D01*
X101924712Y-66895614D01*
X101668214Y-67152112D01*
X101466684Y-67453723D01*
X101327868Y-67788854D01*
X101257100Y-68144628D01*
X82296000Y-68144628D01*
X82296000Y-68125865D01*
X82217911Y-67733287D01*
X82064735Y-67363487D01*
X81842357Y-67030675D01*
X81559325Y-66747643D01*
X81226513Y-66525265D01*
X80856713Y-66372089D01*
X80464135Y-66294000D01*
X80063865Y-66294000D01*
X79671287Y-66372089D01*
X79301487Y-66525265D01*
X78968675Y-66747643D01*
X78685643Y-67030675D01*
X78463265Y-67363487D01*
X78310089Y-67733287D01*
X78232000Y-68125865D01*
X74141000Y-68125865D01*
X74141000Y-65715320D01*
X88557100Y-65715320D01*
X88557100Y-66103080D01*
X88632748Y-66483390D01*
X88781138Y-66841635D01*
X88996566Y-67164046D01*
X89270754Y-67438234D01*
X89593165Y-67653662D01*
X89951410Y-67802052D01*
X90331720Y-67877700D01*
X90719480Y-67877700D01*
X91099790Y-67802052D01*
X91458035Y-67653662D01*
X91780446Y-67438234D01*
X92054634Y-67164046D01*
X92270062Y-66841635D01*
X92418452Y-66483390D01*
X92494100Y-66103080D01*
X92494100Y-65715320D01*
X92418452Y-65335010D01*
X92270062Y-64976765D01*
X92054634Y-64654354D01*
X91838378Y-64438098D01*
X102086107Y-64438098D01*
X102191466Y-64710628D01*
X102494631Y-64859459D01*
X102821007Y-64946285D01*
X103158050Y-64967770D01*
X103492808Y-64923088D01*
X103812417Y-64813957D01*
X104005734Y-64710628D01*
X104111093Y-64438098D01*
X103098600Y-63425605D01*
X102086107Y-64438098D01*
X91838378Y-64438098D01*
X91780446Y-64380166D01*
X91458035Y-64164738D01*
X91099790Y-64016348D01*
X90719480Y-63940700D01*
X90331720Y-63940700D01*
X89951410Y-64016348D01*
X89593165Y-64164738D01*
X89270754Y-64380166D01*
X88996566Y-64654354D01*
X88781138Y-64976765D01*
X88632748Y-65335010D01*
X88557100Y-65715320D01*
X74141000Y-65715320D01*
X74141000Y-63305450D01*
X101376830Y-63305450D01*
X101421512Y-63640208D01*
X101530643Y-63959817D01*
X101633972Y-64153134D01*
X101906502Y-64258493D01*
X102918995Y-63246000D01*
X103278205Y-63246000D01*
X104290698Y-64258493D01*
X104563228Y-64153134D01*
X104712059Y-63849969D01*
X104798885Y-63523593D01*
X104820370Y-63186550D01*
X104775688Y-62851792D01*
X104666557Y-62532183D01*
X104563228Y-62338866D01*
X104290698Y-62233507D01*
X103278205Y-63246000D01*
X102918995Y-63246000D01*
X101906502Y-62233507D01*
X101633972Y-62338866D01*
X101485141Y-62642031D01*
X101398315Y-62968407D01*
X101376830Y-63305450D01*
X74141000Y-63305450D01*
X74141000Y-60715320D01*
X88557100Y-60715320D01*
X88557100Y-61103080D01*
X88632748Y-61483390D01*
X88781138Y-61841635D01*
X88996566Y-62164046D01*
X89270754Y-62438234D01*
X89593165Y-62653662D01*
X89951410Y-62802052D01*
X90331720Y-62877700D01*
X90719480Y-62877700D01*
X91099790Y-62802052D01*
X91458035Y-62653662D01*
X91780446Y-62438234D01*
X92054634Y-62164046D01*
X92128229Y-62053902D01*
X102086107Y-62053902D01*
X103098600Y-63066395D01*
X104111093Y-62053902D01*
X104005734Y-61781372D01*
X103702569Y-61632541D01*
X103376193Y-61545715D01*
X103039150Y-61524230D01*
X102704392Y-61568912D01*
X102384783Y-61678043D01*
X102191466Y-61781372D01*
X102086107Y-62053902D01*
X92128229Y-62053902D01*
X92270062Y-61841635D01*
X92418452Y-61483390D01*
X92494100Y-61103080D01*
X92494100Y-60715320D01*
X92418452Y-60335010D01*
X92270062Y-59976765D01*
X92054634Y-59654354D01*
X91780446Y-59380166D01*
X91458035Y-59164738D01*
X91099790Y-59016348D01*
X90719480Y-58940700D01*
X90331720Y-58940700D01*
X89951410Y-59016348D01*
X89593165Y-59164738D01*
X89270754Y-59380166D01*
X88996566Y-59654354D01*
X88781138Y-59976765D01*
X88632748Y-60335010D01*
X88557100Y-60715320D01*
X74141000Y-60715320D01*
X74141000Y-45300968D01*
X74485500Y-45300968D01*
X74485500Y-46139032D01*
X74648998Y-46960992D01*
X74969711Y-47735262D01*
X75435314Y-48432086D01*
X76027914Y-49024686D01*
X76724738Y-49490289D01*
X77499008Y-49811002D01*
X78320968Y-49974500D01*
X79159032Y-49974500D01*
X79980992Y-49811002D01*
X80755262Y-49490289D01*
X81452086Y-49024686D01*
X82044686Y-48432086D01*
X82510289Y-47735262D01*
X82831002Y-46960992D01*
X82994500Y-46139032D01*
X82994500Y-45300968D01*
X158305500Y-45300968D01*
X158305500Y-46139032D01*
X158468998Y-46960992D01*
X158789711Y-47735262D01*
X159255314Y-48432086D01*
X159847914Y-49024686D01*
X160544738Y-49490289D01*
X161319008Y-49811002D01*
X162140968Y-49974500D01*
X162979032Y-49974500D01*
X163800992Y-49811002D01*
X164575262Y-49490289D01*
X165272086Y-49024686D01*
X165864686Y-48432086D01*
X166330289Y-47735262D01*
X166651002Y-46960992D01*
X166814500Y-46139032D01*
X166814500Y-45300968D01*
X166651002Y-44479008D01*
X166330289Y-43704738D01*
X165864686Y-43007914D01*
X165272086Y-42415314D01*
X164575262Y-41949711D01*
X163800992Y-41628998D01*
X162979032Y-41465500D01*
X162140968Y-41465500D01*
X161319008Y-41628998D01*
X160544738Y-41949711D01*
X159847914Y-42415314D01*
X159255314Y-43007914D01*
X158789711Y-43704738D01*
X158468998Y-44479008D01*
X158305500Y-45300968D01*
X82994500Y-45300968D01*
X82831002Y-44479008D01*
X82510289Y-43704738D01*
X82044686Y-43007914D01*
X81452086Y-42415314D01*
X80755262Y-41949711D01*
X79980992Y-41628998D01*
X79159032Y-41465500D01*
X78320968Y-41465500D01*
X77499008Y-41628998D01*
X76724738Y-41949711D01*
X76027914Y-42415314D01*
X75435314Y-43007914D01*
X74969711Y-43704738D01*
X74648998Y-44479008D01*
X74485500Y-45300968D01*
X74141000Y-45300968D01*
X74141000Y-41121000D01*
X167159001Y-41121000D01*
X167159000Y-118899000D01*
M02*
