G04 #@! TF.GenerationSoftware,KiCad,Pcbnew,(5.1.5)-3*
G04 #@! TF.CreationDate,2020-06-16T12:54:06-04:00*
G04 #@! TF.ProjectId,DC-Supply-170V-v1,44432d53-7570-4706-9c79-2d313730562d,rev?*
G04 #@! TF.SameCoordinates,Original*
G04 #@! TF.FileFunction,Copper,L1,Top*
G04 #@! TF.FilePolarity,Positive*
%FSLAX46Y46*%
G04 Gerber Fmt 4.6, Leading zero omitted, Abs format (unit mm)*
G04 Created by KiCad (PCBNEW (5.1.5)-3) date 2020-06-16 12:54:06*
%MOMM*%
%LPD*%
G04 APERTURE LIST*
%ADD10O,1.700000X1.700000*%
%ADD11R,1.700000X1.700000*%
%ADD12R,1.600000X2.500000*%
%ADD13R,1.300000X1.300000*%
%ADD14C,0.100000*%
%ADD15R,1.000000X1.000000*%
%ADD16C,2.413000*%
%ADD17C,6.985000*%
%ADD18R,1.400000X0.800000*%
%ADD19R,2.000000X3.500000*%
%ADD20R,3.800000X2.000000*%
%ADD21R,1.500000X2.000000*%
%ADD22O,1.800000X1.800000*%
%ADD23R,1.800000X1.800000*%
%ADD24C,1.524000*%
%ADD25C,2.540000*%
%ADD26R,3.000000X1.800000*%
%ADD27C,2.286000*%
%ADD28R,2.286000X2.286000*%
%ADD29C,2.159000*%
%ADD30R,2.000000X3.800000*%
%ADD31R,2.000000X1.500000*%
%ADD32C,0.762000*%
%ADD33C,2.540000*%
%ADD34C,1.905000*%
%ADD35C,1.778000*%
%ADD36C,1.651000*%
%ADD37C,1.270000*%
%ADD38C,1.016000*%
G04 APERTURE END LIST*
D10*
X163322000Y-79832200D03*
D11*
X163322000Y-77292200D03*
D12*
X113995000Y-96393000D03*
X110395000Y-96393000D03*
X114014000Y-102489000D03*
X110414000Y-102489000D03*
X113995000Y-108585000D03*
X110395000Y-108585000D03*
D10*
X163322000Y-65659000D03*
D11*
X163322000Y-68199000D03*
X100838000Y-96393000D03*
D10*
X103378000Y-96393000D03*
X103378000Y-102489000D03*
D11*
X100838000Y-102489000D03*
X100838000Y-108585000D03*
D10*
X103378000Y-108585000D03*
D13*
X123240800Y-99586400D03*
X123240800Y-101886400D03*
X126060200Y-99586400D03*
X126060200Y-101886400D03*
G04 #@! TA.AperFunction,SMDPad,CuDef*
D14*
G36*
X143684999Y-62118369D02*
G01*
X143712604Y-62122464D01*
X143739675Y-62129245D01*
X143765951Y-62138647D01*
X143791178Y-62150579D01*
X143815115Y-62164926D01*
X143837531Y-62181550D01*
X143858208Y-62200292D01*
X143876950Y-62220969D01*
X143893574Y-62243385D01*
X143907921Y-62267322D01*
X143919853Y-62292549D01*
X143929255Y-62318825D01*
X143936036Y-62345896D01*
X143940131Y-62373501D01*
X143941500Y-62401375D01*
X143941500Y-63582625D01*
X143940131Y-63610499D01*
X143936036Y-63638104D01*
X143929255Y-63665175D01*
X143919853Y-63691451D01*
X143907921Y-63716678D01*
X143893574Y-63740615D01*
X143876950Y-63763031D01*
X143858208Y-63783708D01*
X143837531Y-63802450D01*
X143815115Y-63819074D01*
X143791178Y-63833421D01*
X143765951Y-63845353D01*
X143739675Y-63854755D01*
X143712604Y-63861536D01*
X143684999Y-63865631D01*
X143657125Y-63867000D01*
X142600875Y-63867000D01*
X142573001Y-63865631D01*
X142545396Y-63861536D01*
X142518325Y-63854755D01*
X142492049Y-63845353D01*
X142466822Y-63833421D01*
X142442885Y-63819074D01*
X142420469Y-63802450D01*
X142399792Y-63783708D01*
X142381050Y-63763031D01*
X142364426Y-63740615D01*
X142350079Y-63716678D01*
X142338147Y-63691451D01*
X142328745Y-63665175D01*
X142321964Y-63638104D01*
X142317869Y-63610499D01*
X142316500Y-63582625D01*
X142316500Y-62401375D01*
X142317869Y-62373501D01*
X142321964Y-62345896D01*
X142328745Y-62318825D01*
X142338147Y-62292549D01*
X142350079Y-62267322D01*
X142364426Y-62243385D01*
X142381050Y-62220969D01*
X142399792Y-62200292D01*
X142420469Y-62181550D01*
X142442885Y-62164926D01*
X142466822Y-62150579D01*
X142492049Y-62138647D01*
X142518325Y-62129245D01*
X142545396Y-62122464D01*
X142573001Y-62118369D01*
X142600875Y-62117000D01*
X143657125Y-62117000D01*
X143684999Y-62118369D01*
G37*
G04 #@! TD.AperFunction*
G04 #@! TA.AperFunction,SMDPad,CuDef*
G36*
X146859999Y-62118369D02*
G01*
X146887604Y-62122464D01*
X146914675Y-62129245D01*
X146940951Y-62138647D01*
X146966178Y-62150579D01*
X146990115Y-62164926D01*
X147012531Y-62181550D01*
X147033208Y-62200292D01*
X147051950Y-62220969D01*
X147068574Y-62243385D01*
X147082921Y-62267322D01*
X147094853Y-62292549D01*
X147104255Y-62318825D01*
X147111036Y-62345896D01*
X147115131Y-62373501D01*
X147116500Y-62401375D01*
X147116500Y-63582625D01*
X147115131Y-63610499D01*
X147111036Y-63638104D01*
X147104255Y-63665175D01*
X147094853Y-63691451D01*
X147082921Y-63716678D01*
X147068574Y-63740615D01*
X147051950Y-63763031D01*
X147033208Y-63783708D01*
X147012531Y-63802450D01*
X146990115Y-63819074D01*
X146966178Y-63833421D01*
X146940951Y-63845353D01*
X146914675Y-63854755D01*
X146887604Y-63861536D01*
X146859999Y-63865631D01*
X146832125Y-63867000D01*
X145775875Y-63867000D01*
X145748001Y-63865631D01*
X145720396Y-63861536D01*
X145693325Y-63854755D01*
X145667049Y-63845353D01*
X145641822Y-63833421D01*
X145617885Y-63819074D01*
X145595469Y-63802450D01*
X145574792Y-63783708D01*
X145556050Y-63763031D01*
X145539426Y-63740615D01*
X145525079Y-63716678D01*
X145513147Y-63691451D01*
X145503745Y-63665175D01*
X145496964Y-63638104D01*
X145492869Y-63610499D01*
X145491500Y-63582625D01*
X145491500Y-62401375D01*
X145492869Y-62373501D01*
X145496964Y-62345896D01*
X145503745Y-62318825D01*
X145513147Y-62292549D01*
X145525079Y-62267322D01*
X145539426Y-62243385D01*
X145556050Y-62220969D01*
X145574792Y-62200292D01*
X145595469Y-62181550D01*
X145617885Y-62164926D01*
X145641822Y-62150579D01*
X145667049Y-62138647D01*
X145693325Y-62129245D01*
X145720396Y-62122464D01*
X145748001Y-62118369D01*
X145775875Y-62117000D01*
X146832125Y-62117000D01*
X146859999Y-62118369D01*
G37*
G04 #@! TD.AperFunction*
D15*
X150515000Y-62992000D03*
X153015000Y-62992000D03*
X155722000Y-62992000D03*
X158222000Y-62992000D03*
D16*
X90525600Y-60909200D03*
X90525600Y-65909200D03*
X90525600Y-80909200D03*
X90525600Y-75909200D03*
D17*
X78740000Y-45720000D03*
X162560000Y-45720000D03*
X78740000Y-114300000D03*
X162560000Y-114300000D03*
D18*
X150515000Y-66614000D03*
X150515000Y-68514000D03*
X153015000Y-67564000D03*
X158222000Y-67564000D03*
X155722000Y-68514000D03*
X155722000Y-66614000D03*
D13*
X150742000Y-58420000D03*
X153042000Y-58420000D03*
X145930000Y-67056000D03*
X143630000Y-67056000D03*
X155822000Y-58420000D03*
X158122000Y-58420000D03*
D19*
X150803000Y-73025000D03*
X157553000Y-73025000D03*
D20*
X125552200Y-89737800D03*
D21*
X125552200Y-96037800D03*
X127852200Y-96037800D03*
X123252200Y-96037800D03*
D22*
X133273800Y-100761800D03*
X133273800Y-98221800D03*
D23*
X133273800Y-95681800D03*
D24*
X98069400Y-87858600D03*
X93091000Y-87858600D03*
D25*
X80264000Y-68326000D03*
X80264000Y-72136000D03*
X80264000Y-89916000D03*
X80264000Y-86106000D03*
X161036000Y-90805000D03*
X161036000Y-86995000D03*
X161036000Y-102489000D03*
X161036000Y-106299000D03*
D11*
X100838000Y-114681000D03*
D10*
X103378000Y-114681000D03*
G04 #@! TA.AperFunction,SMDPad,CuDef*
D14*
G36*
X92542099Y-49367569D02*
G01*
X92569704Y-49371664D01*
X92596775Y-49378445D01*
X92623051Y-49387847D01*
X92648278Y-49399779D01*
X92672215Y-49414126D01*
X92694631Y-49430750D01*
X92715308Y-49449492D01*
X92734050Y-49470169D01*
X92750674Y-49492585D01*
X92765021Y-49516522D01*
X92776953Y-49541749D01*
X92786355Y-49568025D01*
X92793136Y-49595096D01*
X92797231Y-49622701D01*
X92798600Y-49650575D01*
X92798600Y-50831825D01*
X92797231Y-50859699D01*
X92793136Y-50887304D01*
X92786355Y-50914375D01*
X92776953Y-50940651D01*
X92765021Y-50965878D01*
X92750674Y-50989815D01*
X92734050Y-51012231D01*
X92715308Y-51032908D01*
X92694631Y-51051650D01*
X92672215Y-51068274D01*
X92648278Y-51082621D01*
X92623051Y-51094553D01*
X92596775Y-51103955D01*
X92569704Y-51110736D01*
X92542099Y-51114831D01*
X92514225Y-51116200D01*
X91457975Y-51116200D01*
X91430101Y-51114831D01*
X91402496Y-51110736D01*
X91375425Y-51103955D01*
X91349149Y-51094553D01*
X91323922Y-51082621D01*
X91299985Y-51068274D01*
X91277569Y-51051650D01*
X91256892Y-51032908D01*
X91238150Y-51012231D01*
X91221526Y-50989815D01*
X91207179Y-50965878D01*
X91195247Y-50940651D01*
X91185845Y-50914375D01*
X91179064Y-50887304D01*
X91174969Y-50859699D01*
X91173600Y-50831825D01*
X91173600Y-49650575D01*
X91174969Y-49622701D01*
X91179064Y-49595096D01*
X91185845Y-49568025D01*
X91195247Y-49541749D01*
X91207179Y-49516522D01*
X91221526Y-49492585D01*
X91238150Y-49470169D01*
X91256892Y-49449492D01*
X91277569Y-49430750D01*
X91299985Y-49414126D01*
X91323922Y-49399779D01*
X91349149Y-49387847D01*
X91375425Y-49378445D01*
X91402496Y-49371664D01*
X91430101Y-49367569D01*
X91457975Y-49366200D01*
X92514225Y-49366200D01*
X92542099Y-49367569D01*
G37*
G04 #@! TD.AperFunction*
G04 #@! TA.AperFunction,SMDPad,CuDef*
G36*
X95717099Y-49367569D02*
G01*
X95744704Y-49371664D01*
X95771775Y-49378445D01*
X95798051Y-49387847D01*
X95823278Y-49399779D01*
X95847215Y-49414126D01*
X95869631Y-49430750D01*
X95890308Y-49449492D01*
X95909050Y-49470169D01*
X95925674Y-49492585D01*
X95940021Y-49516522D01*
X95951953Y-49541749D01*
X95961355Y-49568025D01*
X95968136Y-49595096D01*
X95972231Y-49622701D01*
X95973600Y-49650575D01*
X95973600Y-50831825D01*
X95972231Y-50859699D01*
X95968136Y-50887304D01*
X95961355Y-50914375D01*
X95951953Y-50940651D01*
X95940021Y-50965878D01*
X95925674Y-50989815D01*
X95909050Y-51012231D01*
X95890308Y-51032908D01*
X95869631Y-51051650D01*
X95847215Y-51068274D01*
X95823278Y-51082621D01*
X95798051Y-51094553D01*
X95771775Y-51103955D01*
X95744704Y-51110736D01*
X95717099Y-51114831D01*
X95689225Y-51116200D01*
X94632975Y-51116200D01*
X94605101Y-51114831D01*
X94577496Y-51110736D01*
X94550425Y-51103955D01*
X94524149Y-51094553D01*
X94498922Y-51082621D01*
X94474985Y-51068274D01*
X94452569Y-51051650D01*
X94431892Y-51032908D01*
X94413150Y-51012231D01*
X94396526Y-50989815D01*
X94382179Y-50965878D01*
X94370247Y-50940651D01*
X94360845Y-50914375D01*
X94354064Y-50887304D01*
X94349969Y-50859699D01*
X94348600Y-50831825D01*
X94348600Y-49650575D01*
X94349969Y-49622701D01*
X94354064Y-49595096D01*
X94360845Y-49568025D01*
X94370247Y-49541749D01*
X94382179Y-49516522D01*
X94396526Y-49492585D01*
X94413150Y-49470169D01*
X94431892Y-49449492D01*
X94452569Y-49430750D01*
X94474985Y-49414126D01*
X94498922Y-49399779D01*
X94524149Y-49387847D01*
X94550425Y-49378445D01*
X94577496Y-49371664D01*
X94605101Y-49367569D01*
X94632975Y-49366200D01*
X95689225Y-49366200D01*
X95717099Y-49367569D01*
G37*
G04 #@! TD.AperFunction*
G04 #@! TA.AperFunction,SMDPad,CuDef*
G36*
X133755042Y-47002374D02*
G01*
X133778703Y-47005884D01*
X133801907Y-47011696D01*
X133824429Y-47019754D01*
X133846053Y-47029982D01*
X133866570Y-47042279D01*
X133885783Y-47056529D01*
X133903507Y-47072593D01*
X133919571Y-47090317D01*
X133933821Y-47109530D01*
X133946118Y-47130047D01*
X133956346Y-47151671D01*
X133964404Y-47174193D01*
X133970216Y-47197397D01*
X133973726Y-47221058D01*
X133974900Y-47244950D01*
X133974900Y-48157450D01*
X133973726Y-48181342D01*
X133970216Y-48205003D01*
X133964404Y-48228207D01*
X133956346Y-48250729D01*
X133946118Y-48272353D01*
X133933821Y-48292870D01*
X133919571Y-48312083D01*
X133903507Y-48329807D01*
X133885783Y-48345871D01*
X133866570Y-48360121D01*
X133846053Y-48372418D01*
X133824429Y-48382646D01*
X133801907Y-48390704D01*
X133778703Y-48396516D01*
X133755042Y-48400026D01*
X133731150Y-48401200D01*
X133243650Y-48401200D01*
X133219758Y-48400026D01*
X133196097Y-48396516D01*
X133172893Y-48390704D01*
X133150371Y-48382646D01*
X133128747Y-48372418D01*
X133108230Y-48360121D01*
X133089017Y-48345871D01*
X133071293Y-48329807D01*
X133055229Y-48312083D01*
X133040979Y-48292870D01*
X133028682Y-48272353D01*
X133018454Y-48250729D01*
X133010396Y-48228207D01*
X133004584Y-48205003D01*
X133001074Y-48181342D01*
X132999900Y-48157450D01*
X132999900Y-47244950D01*
X133001074Y-47221058D01*
X133004584Y-47197397D01*
X133010396Y-47174193D01*
X133018454Y-47151671D01*
X133028682Y-47130047D01*
X133040979Y-47109530D01*
X133055229Y-47090317D01*
X133071293Y-47072593D01*
X133089017Y-47056529D01*
X133108230Y-47042279D01*
X133128747Y-47029982D01*
X133150371Y-47019754D01*
X133172893Y-47011696D01*
X133196097Y-47005884D01*
X133219758Y-47002374D01*
X133243650Y-47001200D01*
X133731150Y-47001200D01*
X133755042Y-47002374D01*
G37*
G04 #@! TD.AperFunction*
G04 #@! TA.AperFunction,SMDPad,CuDef*
G36*
X131880042Y-47002374D02*
G01*
X131903703Y-47005884D01*
X131926907Y-47011696D01*
X131949429Y-47019754D01*
X131971053Y-47029982D01*
X131991570Y-47042279D01*
X132010783Y-47056529D01*
X132028507Y-47072593D01*
X132044571Y-47090317D01*
X132058821Y-47109530D01*
X132071118Y-47130047D01*
X132081346Y-47151671D01*
X132089404Y-47174193D01*
X132095216Y-47197397D01*
X132098726Y-47221058D01*
X132099900Y-47244950D01*
X132099900Y-48157450D01*
X132098726Y-48181342D01*
X132095216Y-48205003D01*
X132089404Y-48228207D01*
X132081346Y-48250729D01*
X132071118Y-48272353D01*
X132058821Y-48292870D01*
X132044571Y-48312083D01*
X132028507Y-48329807D01*
X132010783Y-48345871D01*
X131991570Y-48360121D01*
X131971053Y-48372418D01*
X131949429Y-48382646D01*
X131926907Y-48390704D01*
X131903703Y-48396516D01*
X131880042Y-48400026D01*
X131856150Y-48401200D01*
X131368650Y-48401200D01*
X131344758Y-48400026D01*
X131321097Y-48396516D01*
X131297893Y-48390704D01*
X131275371Y-48382646D01*
X131253747Y-48372418D01*
X131233230Y-48360121D01*
X131214017Y-48345871D01*
X131196293Y-48329807D01*
X131180229Y-48312083D01*
X131165979Y-48292870D01*
X131153682Y-48272353D01*
X131143454Y-48250729D01*
X131135396Y-48228207D01*
X131129584Y-48205003D01*
X131126074Y-48181342D01*
X131124900Y-48157450D01*
X131124900Y-47244950D01*
X131126074Y-47221058D01*
X131129584Y-47197397D01*
X131135396Y-47174193D01*
X131143454Y-47151671D01*
X131153682Y-47130047D01*
X131165979Y-47109530D01*
X131180229Y-47090317D01*
X131196293Y-47072593D01*
X131214017Y-47056529D01*
X131233230Y-47042279D01*
X131253747Y-47029982D01*
X131275371Y-47019754D01*
X131297893Y-47011696D01*
X131321097Y-47005884D01*
X131344758Y-47002374D01*
X131368650Y-47001200D01*
X131856150Y-47001200D01*
X131880042Y-47002374D01*
G37*
G04 #@! TD.AperFunction*
G04 #@! TA.AperFunction,SMDPad,CuDef*
G36*
X100492705Y-47002404D02*
G01*
X100516973Y-47006004D01*
X100540772Y-47011965D01*
X100563871Y-47020230D01*
X100586050Y-47030720D01*
X100607093Y-47043332D01*
X100626799Y-47057947D01*
X100644977Y-47074423D01*
X100661453Y-47092601D01*
X100676068Y-47112307D01*
X100688680Y-47133350D01*
X100699170Y-47155529D01*
X100707435Y-47178628D01*
X100713396Y-47202427D01*
X100716996Y-47226695D01*
X100718200Y-47251199D01*
X100718200Y-48151201D01*
X100716996Y-48175705D01*
X100713396Y-48199973D01*
X100707435Y-48223772D01*
X100699170Y-48246871D01*
X100688680Y-48269050D01*
X100676068Y-48290093D01*
X100661453Y-48309799D01*
X100644977Y-48327977D01*
X100626799Y-48344453D01*
X100607093Y-48359068D01*
X100586050Y-48371680D01*
X100563871Y-48382170D01*
X100540772Y-48390435D01*
X100516973Y-48396396D01*
X100492705Y-48399996D01*
X100468201Y-48401200D01*
X99818199Y-48401200D01*
X99793695Y-48399996D01*
X99769427Y-48396396D01*
X99745628Y-48390435D01*
X99722529Y-48382170D01*
X99700350Y-48371680D01*
X99679307Y-48359068D01*
X99659601Y-48344453D01*
X99641423Y-48327977D01*
X99624947Y-48309799D01*
X99610332Y-48290093D01*
X99597720Y-48269050D01*
X99587230Y-48246871D01*
X99578965Y-48223772D01*
X99573004Y-48199973D01*
X99569404Y-48175705D01*
X99568200Y-48151201D01*
X99568200Y-47251199D01*
X99569404Y-47226695D01*
X99573004Y-47202427D01*
X99578965Y-47178628D01*
X99587230Y-47155529D01*
X99597720Y-47133350D01*
X99610332Y-47112307D01*
X99624947Y-47092601D01*
X99641423Y-47074423D01*
X99659601Y-47057947D01*
X99679307Y-47043332D01*
X99700350Y-47030720D01*
X99722529Y-47020230D01*
X99745628Y-47011965D01*
X99769427Y-47006004D01*
X99793695Y-47002404D01*
X99818199Y-47001200D01*
X100468201Y-47001200D01*
X100492705Y-47002404D01*
G37*
G04 #@! TD.AperFunction*
G04 #@! TA.AperFunction,SMDPad,CuDef*
G36*
X102542705Y-47002404D02*
G01*
X102566973Y-47006004D01*
X102590772Y-47011965D01*
X102613871Y-47020230D01*
X102636050Y-47030720D01*
X102657093Y-47043332D01*
X102676799Y-47057947D01*
X102694977Y-47074423D01*
X102711453Y-47092601D01*
X102726068Y-47112307D01*
X102738680Y-47133350D01*
X102749170Y-47155529D01*
X102757435Y-47178628D01*
X102763396Y-47202427D01*
X102766996Y-47226695D01*
X102768200Y-47251199D01*
X102768200Y-48151201D01*
X102766996Y-48175705D01*
X102763396Y-48199973D01*
X102757435Y-48223772D01*
X102749170Y-48246871D01*
X102738680Y-48269050D01*
X102726068Y-48290093D01*
X102711453Y-48309799D01*
X102694977Y-48327977D01*
X102676799Y-48344453D01*
X102657093Y-48359068D01*
X102636050Y-48371680D01*
X102613871Y-48382170D01*
X102590772Y-48390435D01*
X102566973Y-48396396D01*
X102542705Y-48399996D01*
X102518201Y-48401200D01*
X101868199Y-48401200D01*
X101843695Y-48399996D01*
X101819427Y-48396396D01*
X101795628Y-48390435D01*
X101772529Y-48382170D01*
X101750350Y-48371680D01*
X101729307Y-48359068D01*
X101709601Y-48344453D01*
X101691423Y-48327977D01*
X101674947Y-48309799D01*
X101660332Y-48290093D01*
X101647720Y-48269050D01*
X101637230Y-48246871D01*
X101628965Y-48223772D01*
X101623004Y-48199973D01*
X101619404Y-48175705D01*
X101618200Y-48151201D01*
X101618200Y-47251199D01*
X101619404Y-47226695D01*
X101623004Y-47202427D01*
X101628965Y-47178628D01*
X101637230Y-47155529D01*
X101647720Y-47133350D01*
X101660332Y-47112307D01*
X101674947Y-47092601D01*
X101691423Y-47074423D01*
X101709601Y-47057947D01*
X101729307Y-47043332D01*
X101750350Y-47030720D01*
X101772529Y-47020230D01*
X101795628Y-47011965D01*
X101819427Y-47006004D01*
X101843695Y-47002404D01*
X101868199Y-47001200D01*
X102518201Y-47001200D01*
X102542705Y-47002404D01*
G37*
G04 #@! TD.AperFunction*
D26*
X98918200Y-50952400D03*
X103418200Y-50952400D03*
X146966500Y-58420000D03*
X142466500Y-58420000D03*
D13*
X155074000Y-51181000D03*
X152774000Y-51181000D03*
X147922600Y-51181000D03*
X150222600Y-51181000D03*
X133712600Y-50952400D03*
X131412600Y-50952400D03*
X150235300Y-44538900D03*
X147935300Y-44538900D03*
X147935300Y-47853600D03*
X150235300Y-47853600D03*
X92423600Y-47701200D03*
X94723600Y-47701200D03*
X92423600Y-53035200D03*
X94723600Y-53035200D03*
D27*
X126085600Y-65986000D03*
D28*
X126085600Y-78486000D03*
D29*
X103098600Y-78486000D03*
X103098600Y-73406000D03*
X103098600Y-68326000D03*
X103098600Y-63246000D03*
D30*
X137718400Y-48945800D03*
D31*
X144018400Y-48945800D03*
X144018400Y-46645800D03*
X144018400Y-51245800D03*
D24*
X152260286Y-47853600D03*
X148844002Y-73025000D03*
X148920200Y-68503800D03*
X143611600Y-68808600D03*
X148945600Y-62941200D03*
X127711200Y-102412800D03*
X134761357Y-46877357D03*
X159257998Y-61849000D03*
X108331000Y-64008000D03*
D32*
X143129000Y-66555000D02*
X143630000Y-67056000D01*
X143129000Y-62992000D02*
X143129000Y-66555000D01*
X150235300Y-47853600D02*
X152260286Y-47853600D01*
X150803000Y-73025000D02*
X148844002Y-73025000D01*
X150515000Y-68514000D02*
X148930400Y-68514000D01*
X148930400Y-68514000D02*
X148920200Y-68503800D01*
X143630000Y-68790200D02*
X143611600Y-68808600D01*
X143630000Y-67056000D02*
X143630000Y-68790200D01*
X150515000Y-62992000D02*
X148996400Y-62992000D01*
X148996400Y-62992000D02*
X148945600Y-62941200D01*
X127472200Y-101886400D02*
X127711200Y-102125400D01*
X127711200Y-102125400D02*
X127711200Y-102412800D01*
X126060200Y-101886400D02*
X127472200Y-101886400D01*
X133487400Y-47155100D02*
X134483614Y-47155100D01*
X134483614Y-47155100D02*
X134761357Y-46877357D01*
X158222000Y-62992000D02*
X158222000Y-62884998D01*
X158222000Y-62884998D02*
X158495999Y-62610999D01*
X158495999Y-62610999D02*
X159257998Y-61849000D01*
D33*
X90525600Y-80899000D02*
X90525600Y-75899000D01*
D34*
X90525600Y-75899000D02*
X87905600Y-73279000D01*
D35*
X80264000Y-68326000D02*
X80264000Y-72136000D01*
X86762600Y-72136000D02*
X80264000Y-72136000D01*
X87905600Y-73279000D02*
X86762600Y-72136000D01*
D32*
X125933200Y-104952800D02*
X125780800Y-104800400D01*
D36*
X114014000Y-102489000D02*
X118237000Y-102489000D01*
X117332000Y-96393000D02*
X113995000Y-96393000D01*
X118618000Y-97679000D02*
X117332000Y-96393000D01*
X118618000Y-107315000D02*
X118618000Y-97679000D01*
X113995000Y-108585000D02*
X117348000Y-108585000D01*
X133248400Y-102133400D02*
X133248400Y-100736400D01*
D32*
X123240800Y-104851200D02*
X123190000Y-104902000D01*
X123240800Y-101886400D02*
X123240800Y-104851200D01*
D36*
X125933200Y-104952800D02*
X130429000Y-104952800D01*
X130429000Y-104952800D02*
X133248400Y-102133400D01*
X118821200Y-104952800D02*
X125933200Y-104952800D01*
X117348000Y-108585000D02*
X118618000Y-107442000D01*
X118618000Y-107442000D02*
X118618000Y-107315000D01*
X118618000Y-112776000D02*
X118618000Y-107442000D01*
X103378000Y-114681000D02*
X116713000Y-114681000D01*
X116713000Y-114681000D02*
X118618000Y-112776000D01*
D33*
X90525600Y-65899000D02*
X90525600Y-60899000D01*
X90627200Y-66040000D02*
X90627200Y-66010800D01*
X90627200Y-66010800D02*
X90525600Y-65909200D01*
X90525600Y-65909200D02*
X90775800Y-65659000D01*
D32*
X94723600Y-56711200D02*
X90525600Y-60909200D01*
X94723600Y-53035200D02*
X94723600Y-56711200D01*
D34*
X119634000Y-58420000D02*
X142466500Y-58420000D01*
X109728000Y-68326000D02*
X119634000Y-58420000D01*
X97282000Y-68326000D02*
X109728000Y-68326000D01*
X90775800Y-65659000D02*
X94615000Y-65659000D01*
X94615000Y-65659000D02*
X97282000Y-68326000D01*
D35*
X80264000Y-89916000D02*
X80264000Y-87884000D01*
D32*
X80289400Y-87858600D02*
X80264000Y-87884000D01*
D35*
X80264000Y-87884000D02*
X80264000Y-86106000D01*
D32*
X92989400Y-87858600D02*
X93472000Y-87858600D01*
D35*
X93091000Y-87858600D02*
X80289400Y-87858600D01*
D32*
X125552200Y-95936799D02*
X125451199Y-96037800D01*
X125552200Y-89737800D02*
X125552200Y-95936799D01*
X125984000Y-99510200D02*
X126060200Y-99586400D01*
X125552200Y-96037800D02*
X125552200Y-97612200D01*
X125984000Y-98044000D02*
X125984000Y-99510200D01*
X125552200Y-97612200D02*
X125984000Y-98044000D01*
X131902200Y-95681800D02*
X133273800Y-95681800D01*
X126060200Y-99586400D02*
X127997600Y-99586400D01*
X127997600Y-99586400D02*
X131902200Y-95681800D01*
D36*
X103378000Y-96393000D02*
X110395000Y-96393000D01*
X110414000Y-102489000D02*
X103378000Y-102489000D01*
X110395000Y-108585000D02*
X103378000Y-108585000D01*
D35*
X133248400Y-98196400D02*
X138785600Y-98196400D01*
X138811000Y-98221800D02*
X149933800Y-98221800D01*
D32*
X138785600Y-98196400D02*
X138811000Y-98221800D01*
D35*
X161036000Y-86995000D02*
X161036000Y-90805000D01*
X160909000Y-88519000D02*
X161036000Y-88646000D01*
X138785600Y-98196400D02*
X148463000Y-88519000D01*
X148463000Y-88519000D02*
X160909000Y-88519000D01*
D32*
X123252200Y-99575000D02*
X123240800Y-99586400D01*
X123252200Y-96037800D02*
X123252200Y-99575000D01*
X146304000Y-66682000D02*
X145930000Y-67056000D01*
X146304000Y-62992000D02*
X146304000Y-66682000D01*
X147066000Y-62230000D02*
X146304000Y-62992000D01*
X147066000Y-58420000D02*
X147066000Y-62230000D01*
X146966500Y-58420000D02*
X147066000Y-58420000D01*
X146966500Y-58420000D02*
X150742000Y-58420000D01*
X153042000Y-62965000D02*
X153015000Y-62992000D01*
X153042000Y-58420000D02*
X153042000Y-62965000D01*
X150515000Y-65492000D02*
X153015000Y-62992000D01*
X150515000Y-66614000D02*
X150515000Y-65492000D01*
X153965000Y-66614000D02*
X155722000Y-66614000D01*
X153015000Y-67564000D02*
X153965000Y-66614000D01*
X155722000Y-58520000D02*
X155822000Y-58420000D01*
X155722000Y-62992000D02*
X155722000Y-58520000D01*
X155722000Y-62992000D02*
X155722000Y-66614000D01*
D36*
X100838000Y-102489000D02*
X100838000Y-108585000D01*
X100838000Y-102489000D02*
X100838000Y-96393000D01*
X101067499Y-93242501D02*
X108204000Y-86106000D01*
X108204000Y-86106000D02*
X108204000Y-78486000D01*
X100838000Y-96393000D02*
X101067499Y-96163501D01*
X101067499Y-96163501D02*
X101067499Y-93242501D01*
D33*
X103124000Y-78486000D02*
X123440800Y-78486000D01*
X163249000Y-78489200D02*
X123444000Y-78489200D01*
X163322000Y-77292200D02*
X163322000Y-79832200D01*
D36*
X100838000Y-114681000D02*
X100838000Y-108585000D01*
D37*
X130302000Y-82702400D02*
X126085600Y-78486000D01*
X127852200Y-96037800D02*
X130302000Y-93588000D01*
X130302000Y-93588000D02*
X130302000Y-82702400D01*
D32*
X158222000Y-67564000D02*
X157886402Y-67564000D01*
X158222000Y-69115198D02*
X158222000Y-67564000D01*
X163322000Y-77292200D02*
X163322000Y-74215198D01*
X163322000Y-74215198D02*
X158222000Y-69115198D01*
X158122000Y-54229000D02*
X158122000Y-57912000D01*
X155074000Y-51181000D02*
X158122000Y-54229000D01*
X161036000Y-64750000D02*
X158222000Y-67564000D01*
X158122000Y-58420000D02*
X159534000Y-58420000D01*
X161036000Y-59922000D02*
X161036000Y-64750000D01*
X159534000Y-58420000D02*
X161036000Y-59922000D01*
X155722000Y-71194000D02*
X157553000Y-73025000D01*
X155722000Y-68514000D02*
X155722000Y-71194000D01*
X91986100Y-48138700D02*
X92423600Y-47701200D01*
X91986100Y-50241200D02*
X91986100Y-48138700D01*
X91986100Y-52597700D02*
X92423600Y-53035200D01*
X91986100Y-50241200D02*
X91986100Y-52597700D01*
X95161100Y-48138700D02*
X94723600Y-47701200D01*
X95161100Y-50241200D02*
X95161100Y-48138700D01*
X94723600Y-47701200D02*
X100143200Y-47701200D01*
X98918200Y-49925800D02*
X98918200Y-50952400D01*
X100143200Y-47701200D02*
X100143200Y-48700800D01*
X100143200Y-48700800D02*
X98918200Y-49925800D01*
X131612400Y-50752600D02*
X131612400Y-47701200D01*
X131412600Y-50952400D02*
X131612400Y-50752600D01*
X150222600Y-51181000D02*
X152774000Y-51181000D01*
X147922600Y-51181000D02*
X147897200Y-51206400D01*
X144032400Y-51231800D02*
X144018400Y-51245800D01*
X147922600Y-51155600D02*
X147846400Y-51231800D01*
X147846400Y-51231800D02*
X144032400Y-51231800D01*
D38*
X144018400Y-48945800D02*
X137718400Y-48945800D01*
D32*
X137718400Y-46609400D02*
X137718400Y-48945800D01*
X147935300Y-44538900D02*
X139788900Y-44538900D01*
X139788900Y-44538900D02*
X137718400Y-46609400D01*
X134569200Y-50952400D02*
X133712600Y-50952400D01*
X137718400Y-48945800D02*
X136575800Y-48945800D01*
X136575800Y-48945800D02*
X134569200Y-50952400D01*
X144018400Y-46645800D02*
X145591500Y-46645800D01*
X146799300Y-47853600D02*
X147935300Y-47853600D01*
X145591500Y-46645800D02*
X146799300Y-47853600D01*
X150235300Y-45776500D02*
X150235300Y-44538900D01*
X149824201Y-46187599D02*
X150235300Y-45776500D01*
X147935300Y-46441600D02*
X148171999Y-46204901D01*
X147935300Y-47853600D02*
X147935300Y-46441600D01*
X148755197Y-46204901D02*
X148772499Y-46187599D01*
X148171999Y-46204901D02*
X148755197Y-46204901D01*
X148772499Y-46187599D02*
X149824201Y-46187599D01*
D34*
X101142800Y-73406000D02*
X103124000Y-73406000D01*
X98069400Y-87858600D02*
X98069400Y-76479400D01*
X98069400Y-76479400D02*
X101142800Y-73406000D01*
D32*
X108331000Y-57790200D02*
X108331000Y-64008000D01*
X103418200Y-52877400D02*
X108331000Y-57790200D01*
X103418200Y-50952400D02*
X103418200Y-52877400D01*
X103418200Y-49816800D02*
X103418200Y-50952400D01*
X102193200Y-47701200D02*
X102193200Y-48591800D01*
X102193200Y-48591800D02*
X103418200Y-49816800D01*
M02*
