M48
; DRILL file {KiCad (5.1.5)-3} date 6/25/2020 2:16:13 PM
; FORMAT={-:-/ absolute / inch / decimal}
; #@! TF.CreationDate,2020-06-25T14:16:13-04:00
; #@! TF.GenerationSoftware,Kicad,Pcbnew,(5.1.5)-3
; #@! TF.FileFunction,Plated,1,2,PTH
FMAT,2
INCH
T1C0.0300
T2C0.0315
T3C0.0394
T4C0.0400
T5C0.0430
T6C0.0530
T7C0.0550
T8C0.1440
%
G90
G05
T1
X3.665Y-3.459
X3.861Y-3.459
T2
X4.265Y-2.52
X5.028Y-4.032
X5.3056Y-1.8456
X5.654Y-2.709
X5.86Y-2.875
X5.863Y-2.697
X5.864Y-2.478
X5.9945Y-1.884
X6.27Y-2.435
T3
X3.97Y-4.275
X4.07Y-4.275
X5.247Y-3.767
X5.247Y-3.867
X5.247Y-3.967
X3.97Y-4.035
X4.07Y-4.035
X3.97Y-3.795
X4.07Y-3.795
X3.97Y-4.515
X4.07Y-4.515
X6.43Y-2.585
X6.43Y-2.685
X6.43Y-3.043
X6.43Y-3.143
T4
X6.34Y-3.425
X6.34Y-3.575
X6.34Y-4.035
X6.34Y-4.185
X3.16Y-3.39
X3.16Y-3.54
X3.16Y-2.69
X3.16Y-2.84
T5
X4.964Y-2.5979
X4.964Y-3.09
T6
X4.059Y-2.49
X4.059Y-2.69
X4.059Y-2.89
X4.059Y-3.09
T7
X3.564Y-2.398
X3.564Y-2.5949
X3.564Y-2.9886
X3.564Y-3.1854
T8
X3.1Y-4.5
X6.4Y-1.8
X6.4Y-4.5
X3.1Y-1.8
T0
M30
