G04 #@! TF.GenerationSoftware,KiCad,Pcbnew,(5.1.5)-3*
G04 #@! TF.CreationDate,2020-06-10T18:28:01-04:00*
G04 #@! TF.ProjectId,DC-Supply-170V-v1,44432d53-7570-4706-9c79-2d313730562d,rev?*
G04 #@! TF.SameCoordinates,Original*
G04 #@! TF.FileFunction,Legend,Top*
G04 #@! TF.FilePolarity,Positive*
%FSLAX46Y46*%
G04 Gerber Fmt 4.6, Leading zero omitted, Abs format (unit mm)*
G04 Created by KiCad (PCBNEW (5.1.5)-3) date 2020-06-10 18:28:01*
%MOMM*%
%LPD*%
G04 APERTURE LIST*
%ADD10C,0.254000*%
%ADD11C,0.304800*%
%ADD12C,0.120000*%
%ADD13C,0.127000*%
%ADD14C,0.203200*%
%ADD15C,0.150000*%
G04 APERTURE END LIST*
D10*
X76230842Y-60494635D02*
X75142271Y-60494635D01*
X75686557Y-60494635D02*
X75686557Y-58589635D01*
X75505128Y-58861778D01*
X75323700Y-59043207D01*
X75142271Y-59133921D01*
X76956557Y-58771064D02*
X77047271Y-58680350D01*
X77228700Y-58589635D01*
X77682271Y-58589635D01*
X77863700Y-58680350D01*
X77954414Y-58771064D01*
X78045128Y-58952492D01*
X78045128Y-59133921D01*
X77954414Y-59406064D01*
X76865842Y-60494635D01*
X78045128Y-60494635D01*
X79224414Y-58589635D02*
X79405842Y-58589635D01*
X79587271Y-58680350D01*
X79677985Y-58771064D01*
X79768700Y-58952492D01*
X79859414Y-59315350D01*
X79859414Y-59768921D01*
X79768700Y-60131778D01*
X79677985Y-60313207D01*
X79587271Y-60403921D01*
X79405842Y-60494635D01*
X79224414Y-60494635D01*
X79042985Y-60403921D01*
X78952271Y-60313207D01*
X78861557Y-60131778D01*
X78770842Y-59768921D01*
X78770842Y-59315350D01*
X78861557Y-58952492D01*
X78952271Y-58771064D01*
X79042985Y-58680350D01*
X79224414Y-58589635D01*
X80403700Y-58589635D02*
X81038700Y-60494635D01*
X81673700Y-58589635D01*
X82217985Y-59950350D02*
X83125128Y-59950350D01*
X82036557Y-60494635D02*
X82671557Y-58589635D01*
X83306557Y-60494635D01*
X85030128Y-60313207D02*
X84939414Y-60403921D01*
X84667271Y-60494635D01*
X84485842Y-60494635D01*
X84213700Y-60403921D01*
X84032271Y-60222492D01*
X83941557Y-60041064D01*
X83850842Y-59678207D01*
X83850842Y-59406064D01*
X83941557Y-59043207D01*
X84032271Y-58861778D01*
X84213700Y-58680350D01*
X84485842Y-58589635D01*
X84667271Y-58589635D01*
X84939414Y-58680350D01*
X85030128Y-58771064D01*
X77818342Y-63606135D02*
X77818342Y-61701135D01*
X78453342Y-63061850D01*
X79088342Y-61701135D01*
X79088342Y-63606135D01*
X80811914Y-63606135D02*
X80811914Y-62608278D01*
X80721200Y-62426850D01*
X80539771Y-62336135D01*
X80176914Y-62336135D01*
X79995485Y-62426850D01*
X80811914Y-63515421D02*
X80630485Y-63606135D01*
X80176914Y-63606135D01*
X79995485Y-63515421D01*
X79904771Y-63333992D01*
X79904771Y-63152564D01*
X79995485Y-62971135D01*
X80176914Y-62880421D01*
X80630485Y-62880421D01*
X80811914Y-62789707D01*
X81537628Y-63606135D02*
X82535485Y-62336135D01*
X81537628Y-62336135D02*
X82535485Y-63606135D01*
X97635785Y-45184785D02*
X97635785Y-43279785D01*
X98270785Y-44640500D01*
X98905785Y-43279785D01*
X98905785Y-45184785D01*
X100629357Y-45184785D02*
X100629357Y-44186928D01*
X100538642Y-44005500D01*
X100357214Y-43914785D01*
X99994357Y-43914785D01*
X99812928Y-44005500D01*
X100629357Y-45094071D02*
X100447928Y-45184785D01*
X99994357Y-45184785D01*
X99812928Y-45094071D01*
X99722214Y-44912642D01*
X99722214Y-44731214D01*
X99812928Y-44549785D01*
X99994357Y-44459071D01*
X100447928Y-44459071D01*
X100629357Y-44368357D01*
X101536500Y-45184785D02*
X101536500Y-43914785D01*
X101536500Y-43279785D02*
X101445785Y-43370500D01*
X101536500Y-43461214D01*
X101627214Y-43370500D01*
X101536500Y-43279785D01*
X101536500Y-43461214D01*
X102443642Y-43914785D02*
X102443642Y-45184785D01*
X102443642Y-44096214D02*
X102534357Y-44005500D01*
X102715785Y-43914785D01*
X102987928Y-43914785D01*
X103169357Y-44005500D01*
X103260071Y-44186928D01*
X103260071Y-45184785D01*
X104076500Y-45094071D02*
X104257928Y-45184785D01*
X104620785Y-45184785D01*
X104802214Y-45094071D01*
X104892928Y-44912642D01*
X104892928Y-44821928D01*
X104802214Y-44640500D01*
X104620785Y-44549785D01*
X104348642Y-44549785D01*
X104167214Y-44459071D01*
X104076500Y-44277642D01*
X104076500Y-44186928D01*
X104167214Y-44005500D01*
X104348642Y-43914785D01*
X104620785Y-43914785D01*
X104802214Y-44005500D01*
X127916214Y-43279785D02*
X128551214Y-45184785D01*
X129186214Y-43279785D01*
X129821214Y-45184785D02*
X129821214Y-43914785D01*
X129821214Y-44277642D02*
X129911928Y-44096214D01*
X130002642Y-44005500D01*
X130184071Y-43914785D01*
X130365500Y-43914785D01*
X131726214Y-45094071D02*
X131544785Y-45184785D01*
X131181928Y-45184785D01*
X131000500Y-45094071D01*
X130909785Y-44912642D01*
X130909785Y-44186928D01*
X131000500Y-44005500D01*
X131181928Y-43914785D01*
X131544785Y-43914785D01*
X131726214Y-44005500D01*
X131816928Y-44186928D01*
X131816928Y-44368357D01*
X130909785Y-44549785D01*
X133449785Y-45094071D02*
X133268357Y-45184785D01*
X132905500Y-45184785D01*
X132724071Y-45094071D01*
X132633357Y-45003357D01*
X132542642Y-44821928D01*
X132542642Y-44277642D01*
X132633357Y-44096214D01*
X132724071Y-44005500D01*
X132905500Y-43914785D01*
X133268357Y-43914785D01*
X133449785Y-44005500D01*
X133994071Y-43914785D02*
X134719785Y-43914785D01*
X134266214Y-43279785D02*
X134266214Y-44912642D01*
X134356928Y-45094071D01*
X134538357Y-45184785D01*
X134719785Y-45184785D01*
X165199785Y-81709985D02*
X167104785Y-81074985D01*
X165199785Y-80439985D01*
X167104785Y-79804985D02*
X165834785Y-79804985D01*
X166197642Y-79804985D02*
X166016214Y-79714271D01*
X165925500Y-79623557D01*
X165834785Y-79442128D01*
X165834785Y-79260700D01*
X167014071Y-77899985D02*
X167104785Y-78081414D01*
X167104785Y-78444271D01*
X167014071Y-78625700D01*
X166832642Y-78716414D01*
X166106928Y-78716414D01*
X165925500Y-78625700D01*
X165834785Y-78444271D01*
X165834785Y-78081414D01*
X165925500Y-77899985D01*
X166106928Y-77809271D01*
X166288357Y-77809271D01*
X166469785Y-78716414D01*
X167014071Y-76176414D02*
X167104785Y-76357842D01*
X167104785Y-76720700D01*
X167014071Y-76902128D01*
X166923357Y-76992842D01*
X166741928Y-77083557D01*
X166197642Y-77083557D01*
X166016214Y-76992842D01*
X165925500Y-76902128D01*
X165834785Y-76720700D01*
X165834785Y-76357842D01*
X165925500Y-76176414D01*
X165834785Y-75632128D02*
X165834785Y-74906414D01*
X165199785Y-75359985D02*
X166832642Y-75359985D01*
X167014071Y-75269271D01*
X167104785Y-75087842D01*
X167104785Y-74906414D01*
X91347471Y-115579071D02*
X91619614Y-115669785D01*
X92073185Y-115669785D01*
X92254614Y-115579071D01*
X92345328Y-115488357D01*
X92436042Y-115306928D01*
X92436042Y-115125500D01*
X92345328Y-114944071D01*
X92254614Y-114853357D01*
X92073185Y-114762642D01*
X91710328Y-114671928D01*
X91528900Y-114581214D01*
X91438185Y-114490500D01*
X91347471Y-114309071D01*
X91347471Y-114127642D01*
X91438185Y-113946214D01*
X91528900Y-113855500D01*
X91710328Y-113764785D01*
X92163900Y-113764785D01*
X92436042Y-113855500D01*
X93252471Y-115669785D02*
X93252471Y-113764785D01*
X94068900Y-115669785D02*
X94068900Y-114671928D01*
X93978185Y-114490500D01*
X93796757Y-114399785D01*
X93524614Y-114399785D01*
X93343185Y-114490500D01*
X93252471Y-114581214D01*
X95248185Y-115669785D02*
X95066757Y-115579071D01*
X94976042Y-115488357D01*
X94885328Y-115306928D01*
X94885328Y-114762642D01*
X94976042Y-114581214D01*
X95066757Y-114490500D01*
X95248185Y-114399785D01*
X95520328Y-114399785D01*
X95701757Y-114490500D01*
X95792471Y-114581214D01*
X95883185Y-114762642D01*
X95883185Y-115306928D01*
X95792471Y-115488357D01*
X95701757Y-115579071D01*
X95520328Y-115669785D01*
X95248185Y-115669785D01*
X96699614Y-115669785D02*
X96699614Y-114399785D01*
X96699614Y-114762642D02*
X96790328Y-114581214D01*
X96881042Y-114490500D01*
X97062471Y-114399785D01*
X97243900Y-114399785D01*
X97606757Y-114399785D02*
X98332471Y-114399785D01*
X97878900Y-113764785D02*
X97878900Y-115397642D01*
X97969614Y-115579071D01*
X98151042Y-115669785D01*
X98332471Y-115669785D01*
X83709328Y-97381785D02*
X82620757Y-97381785D01*
X83165042Y-97381785D02*
X83165042Y-95476785D01*
X82983614Y-95748928D01*
X82802185Y-95930357D01*
X82620757Y-96021071D01*
X84888614Y-95476785D02*
X85070042Y-95476785D01*
X85251471Y-95567500D01*
X85342185Y-95658214D01*
X85432900Y-95839642D01*
X85523614Y-96202500D01*
X85523614Y-96656071D01*
X85432900Y-97018928D01*
X85342185Y-97200357D01*
X85251471Y-97291071D01*
X85070042Y-97381785D01*
X84888614Y-97381785D01*
X84707185Y-97291071D01*
X84616471Y-97200357D01*
X84525757Y-97018928D01*
X84435042Y-96656071D01*
X84435042Y-96202500D01*
X84525757Y-95839642D01*
X84616471Y-95658214D01*
X84707185Y-95567500D01*
X84888614Y-95476785D01*
X86340042Y-97381785D02*
X86340042Y-96111785D01*
X86340042Y-96293214D02*
X86430757Y-96202500D01*
X86612185Y-96111785D01*
X86884328Y-96111785D01*
X87065757Y-96202500D01*
X87156471Y-96383928D01*
X87156471Y-97381785D01*
X87156471Y-96383928D02*
X87247185Y-96202500D01*
X87428614Y-96111785D01*
X87700757Y-96111785D01*
X87882185Y-96202500D01*
X87972900Y-96383928D01*
X87972900Y-97381785D01*
X88789328Y-96837500D02*
X89696471Y-96837500D01*
X88607900Y-97381785D02*
X89242900Y-95476785D01*
X89877900Y-97381785D01*
X91873614Y-95386071D02*
X90240757Y-97835357D01*
X93506471Y-97381785D02*
X92417900Y-97381785D01*
X92962185Y-97381785D02*
X92962185Y-95476785D01*
X92780757Y-95748928D01*
X92599328Y-95930357D01*
X92417900Y-96021071D01*
X94322900Y-97200357D02*
X94413614Y-97291071D01*
X94322900Y-97381785D01*
X94232185Y-97291071D01*
X94322900Y-97200357D01*
X94322900Y-97381785D01*
X95048614Y-95476785D02*
X96318614Y-95476785D01*
X95502185Y-97381785D01*
X96862900Y-95476785D02*
X97316471Y-97381785D01*
X97679328Y-96021071D01*
X98042185Y-97381785D01*
X98495757Y-95476785D01*
X82802185Y-109573785D02*
X81713614Y-109573785D01*
X82257900Y-109573785D02*
X82257900Y-107668785D01*
X82076471Y-107940928D01*
X81895042Y-108122357D01*
X81713614Y-108213071D01*
X83981471Y-107668785D02*
X84162900Y-107668785D01*
X84344328Y-107759500D01*
X84435042Y-107850214D01*
X84525757Y-108031642D01*
X84616471Y-108394500D01*
X84616471Y-108848071D01*
X84525757Y-109210928D01*
X84435042Y-109392357D01*
X84344328Y-109483071D01*
X84162900Y-109573785D01*
X83981471Y-109573785D01*
X83800042Y-109483071D01*
X83709328Y-109392357D01*
X83618614Y-109210928D01*
X83527900Y-108848071D01*
X83527900Y-108394500D01*
X83618614Y-108031642D01*
X83709328Y-107850214D01*
X83800042Y-107759500D01*
X83981471Y-107668785D01*
X85795757Y-107668785D02*
X85977185Y-107668785D01*
X86158614Y-107759500D01*
X86249328Y-107850214D01*
X86340042Y-108031642D01*
X86430757Y-108394500D01*
X86430757Y-108848071D01*
X86340042Y-109210928D01*
X86249328Y-109392357D01*
X86158614Y-109483071D01*
X85977185Y-109573785D01*
X85795757Y-109573785D01*
X85614328Y-109483071D01*
X85523614Y-109392357D01*
X85432900Y-109210928D01*
X85342185Y-108848071D01*
X85342185Y-108394500D01*
X85432900Y-108031642D01*
X85523614Y-107850214D01*
X85614328Y-107759500D01*
X85795757Y-107668785D01*
X87247185Y-109573785D02*
X87247185Y-108303785D01*
X87247185Y-108485214D02*
X87337900Y-108394500D01*
X87519328Y-108303785D01*
X87791471Y-108303785D01*
X87972900Y-108394500D01*
X88063614Y-108575928D01*
X88063614Y-109573785D01*
X88063614Y-108575928D02*
X88154328Y-108394500D01*
X88335757Y-108303785D01*
X88607900Y-108303785D01*
X88789328Y-108394500D01*
X88880042Y-108575928D01*
X88880042Y-109573785D01*
X89696471Y-109029500D02*
X90603614Y-109029500D01*
X89515042Y-109573785D02*
X90150042Y-107668785D01*
X90785042Y-109573785D01*
X92780757Y-107578071D02*
X91147900Y-110027357D01*
X94413614Y-109573785D02*
X93325042Y-109573785D01*
X93869328Y-109573785D02*
X93869328Y-107668785D01*
X93687900Y-107940928D01*
X93506471Y-108122357D01*
X93325042Y-108213071D01*
X95048614Y-107668785D02*
X96318614Y-107668785D01*
X95502185Y-109573785D01*
X96862900Y-107668785D02*
X97316471Y-109573785D01*
X97679328Y-108213071D01*
X98042185Y-109573785D01*
X98495757Y-107668785D01*
X83618614Y-101572785D02*
X82711471Y-101572785D01*
X82620757Y-102479928D01*
X82711471Y-102389214D01*
X82892900Y-102298500D01*
X83346471Y-102298500D01*
X83527900Y-102389214D01*
X83618614Y-102479928D01*
X83709328Y-102661357D01*
X83709328Y-103114928D01*
X83618614Y-103296357D01*
X83527900Y-103387071D01*
X83346471Y-103477785D01*
X82892900Y-103477785D01*
X82711471Y-103387071D01*
X82620757Y-103296357D01*
X84888614Y-101572785D02*
X85070042Y-101572785D01*
X85251471Y-101663500D01*
X85342185Y-101754214D01*
X85432900Y-101935642D01*
X85523614Y-102298500D01*
X85523614Y-102752071D01*
X85432900Y-103114928D01*
X85342185Y-103296357D01*
X85251471Y-103387071D01*
X85070042Y-103477785D01*
X84888614Y-103477785D01*
X84707185Y-103387071D01*
X84616471Y-103296357D01*
X84525757Y-103114928D01*
X84435042Y-102752071D01*
X84435042Y-102298500D01*
X84525757Y-101935642D01*
X84616471Y-101754214D01*
X84707185Y-101663500D01*
X84888614Y-101572785D01*
X86340042Y-103477785D02*
X86340042Y-102207785D01*
X86340042Y-102389214D02*
X86430757Y-102298500D01*
X86612185Y-102207785D01*
X86884328Y-102207785D01*
X87065757Y-102298500D01*
X87156471Y-102479928D01*
X87156471Y-103477785D01*
X87156471Y-102479928D02*
X87247185Y-102298500D01*
X87428614Y-102207785D01*
X87700757Y-102207785D01*
X87882185Y-102298500D01*
X87972900Y-102479928D01*
X87972900Y-103477785D01*
X88789328Y-102933500D02*
X89696471Y-102933500D01*
X88607900Y-103477785D02*
X89242900Y-101572785D01*
X89877900Y-103477785D01*
X91873614Y-101482071D02*
X90240757Y-103931357D01*
X92780757Y-102389214D02*
X92599328Y-102298500D01*
X92508614Y-102207785D01*
X92417900Y-102026357D01*
X92417900Y-101935642D01*
X92508614Y-101754214D01*
X92599328Y-101663500D01*
X92780757Y-101572785D01*
X93143614Y-101572785D01*
X93325042Y-101663500D01*
X93415757Y-101754214D01*
X93506471Y-101935642D01*
X93506471Y-102026357D01*
X93415757Y-102207785D01*
X93325042Y-102298500D01*
X93143614Y-102389214D01*
X92780757Y-102389214D01*
X92599328Y-102479928D01*
X92508614Y-102570642D01*
X92417900Y-102752071D01*
X92417900Y-103114928D01*
X92508614Y-103296357D01*
X92599328Y-103387071D01*
X92780757Y-103477785D01*
X93143614Y-103477785D01*
X93325042Y-103387071D01*
X93415757Y-103296357D01*
X93506471Y-103114928D01*
X93506471Y-102752071D01*
X93415757Y-102570642D01*
X93325042Y-102479928D01*
X93143614Y-102389214D01*
X94322900Y-103296357D02*
X94413614Y-103387071D01*
X94322900Y-103477785D01*
X94232185Y-103387071D01*
X94322900Y-103296357D01*
X94322900Y-103477785D01*
X96137185Y-101572785D02*
X95230042Y-101572785D01*
X95139328Y-102479928D01*
X95230042Y-102389214D01*
X95411471Y-102298500D01*
X95865042Y-102298500D01*
X96046471Y-102389214D01*
X96137185Y-102479928D01*
X96227900Y-102661357D01*
X96227900Y-103114928D01*
X96137185Y-103296357D01*
X96046471Y-103387071D01*
X95865042Y-103477785D01*
X95411471Y-103477785D01*
X95230042Y-103387071D01*
X95139328Y-103296357D01*
X96862900Y-101572785D02*
X97316471Y-103477785D01*
X97679328Y-102117071D01*
X98042185Y-103477785D01*
X98495757Y-101572785D01*
X165290500Y-68126428D02*
X165199785Y-68307857D01*
X165199785Y-68580000D01*
X165290500Y-68852142D01*
X165471928Y-69033571D01*
X165653357Y-69124285D01*
X166016214Y-69215000D01*
X166288357Y-69215000D01*
X166651214Y-69124285D01*
X166832642Y-69033571D01*
X167014071Y-68852142D01*
X167104785Y-68580000D01*
X167104785Y-68398571D01*
X167014071Y-68126428D01*
X166923357Y-68035714D01*
X166288357Y-68035714D01*
X166288357Y-68398571D01*
X167104785Y-67219285D02*
X165199785Y-67219285D01*
X167104785Y-66130714D01*
X165199785Y-66130714D01*
X167104785Y-65223571D02*
X165199785Y-65223571D01*
X165199785Y-64770000D01*
X165290500Y-64497857D01*
X165471928Y-64316428D01*
X165653357Y-64225714D01*
X166016214Y-64135000D01*
X166288357Y-64135000D01*
X166651214Y-64225714D01*
X166832642Y-64316428D01*
X167014071Y-64497857D01*
X167104785Y-64770000D01*
X167104785Y-65223571D01*
X78464228Y-77112585D02*
X77557085Y-77112585D01*
X77557085Y-75207585D01*
X79099228Y-77112585D02*
X79099228Y-75207585D01*
X80006371Y-77112585D02*
X80006371Y-75207585D01*
X81094942Y-77112585D01*
X81094942Y-75207585D01*
X82002085Y-76114728D02*
X82637085Y-76114728D01*
X82909228Y-77112585D02*
X82002085Y-77112585D01*
X82002085Y-75207585D01*
X82909228Y-75207585D01*
X74492757Y-82954585D02*
X74492757Y-81049585D01*
X75581328Y-82954585D01*
X75581328Y-81049585D01*
X76488471Y-81956728D02*
X77123471Y-81956728D01*
X77395614Y-82954585D02*
X76488471Y-82954585D01*
X76488471Y-81049585D01*
X77395614Y-81049585D01*
X78212042Y-81049585D02*
X78212042Y-82591728D01*
X78302757Y-82773157D01*
X78393471Y-82863871D01*
X78574900Y-82954585D01*
X78937757Y-82954585D01*
X79119185Y-82863871D01*
X79209900Y-82773157D01*
X79300614Y-82591728D01*
X79300614Y-81049585D01*
X79935614Y-81049585D02*
X81024185Y-81049585D01*
X80479900Y-82954585D02*
X80479900Y-81049585D01*
X82747757Y-82954585D02*
X82112757Y-82047442D01*
X81659185Y-82954585D02*
X81659185Y-81049585D01*
X82384900Y-81049585D01*
X82566328Y-81140300D01*
X82657042Y-81231014D01*
X82747757Y-81412442D01*
X82747757Y-81684585D01*
X82657042Y-81866014D01*
X82566328Y-81956728D01*
X82384900Y-82047442D01*
X81659185Y-82047442D01*
X83473471Y-82410300D02*
X84380614Y-82410300D01*
X83292042Y-82954585D02*
X83927042Y-81049585D01*
X84562042Y-82954585D01*
X86104185Y-82954585D02*
X85197042Y-82954585D01*
X85197042Y-81049585D01*
X94206785Y-78331785D02*
X94206785Y-79238928D01*
X95113928Y-79329642D01*
X95023214Y-79238928D01*
X94932500Y-79057500D01*
X94932500Y-78603928D01*
X95023214Y-78422500D01*
X95113928Y-78331785D01*
X95295357Y-78241071D01*
X95748928Y-78241071D01*
X95930357Y-78331785D01*
X96021071Y-78422500D01*
X96111785Y-78603928D01*
X96111785Y-79057500D01*
X96021071Y-79238928D01*
X95930357Y-79329642D01*
X96111785Y-77424642D02*
X94841785Y-77424642D01*
X95023214Y-77424642D02*
X94932500Y-77333928D01*
X94841785Y-77152500D01*
X94841785Y-76880357D01*
X94932500Y-76698928D01*
X95113928Y-76608214D01*
X96111785Y-76608214D01*
X95113928Y-76608214D02*
X94932500Y-76517500D01*
X94841785Y-76336071D01*
X94841785Y-76063928D01*
X94932500Y-75882500D01*
X95113928Y-75791785D01*
X96111785Y-75791785D01*
X96111785Y-74884642D02*
X94841785Y-74884642D01*
X95023214Y-74884642D02*
X94932500Y-74793928D01*
X94841785Y-74612500D01*
X94841785Y-74340357D01*
X94932500Y-74158928D01*
X95113928Y-74068214D01*
X96111785Y-74068214D01*
X95113928Y-74068214D02*
X94932500Y-73977500D01*
X94841785Y-73796071D01*
X94841785Y-73523928D01*
X94932500Y-73342500D01*
X95113928Y-73251785D01*
X96111785Y-73251785D01*
X96111785Y-72526071D02*
X94841785Y-71528214D01*
X94841785Y-72526071D02*
X96111785Y-71528214D01*
X94388214Y-70893214D02*
X94297500Y-70802500D01*
X94206785Y-70621071D01*
X94206785Y-70167500D01*
X94297500Y-69986071D01*
X94388214Y-69895357D01*
X94569642Y-69804642D01*
X94751071Y-69804642D01*
X95023214Y-69895357D01*
X96111785Y-70983928D01*
X96111785Y-69804642D01*
X94206785Y-68625357D02*
X94206785Y-68443928D01*
X94297500Y-68262500D01*
X94388214Y-68171785D01*
X94569642Y-68081071D01*
X94932500Y-67990357D01*
X95386071Y-67990357D01*
X95748928Y-68081071D01*
X95930357Y-68171785D01*
X96021071Y-68262500D01*
X96111785Y-68443928D01*
X96111785Y-68625357D01*
X96021071Y-68806785D01*
X95930357Y-68897500D01*
X95748928Y-68988214D01*
X95386071Y-69078928D01*
X94932500Y-69078928D01*
X94569642Y-68988214D01*
X94388214Y-68897500D01*
X94297500Y-68806785D01*
X94206785Y-68625357D01*
X96111785Y-67173928D02*
X94841785Y-67173928D01*
X95023214Y-67173928D02*
X94932500Y-67083214D01*
X94841785Y-66901785D01*
X94841785Y-66629642D01*
X94932500Y-66448214D01*
X95113928Y-66357500D01*
X96111785Y-66357500D01*
X95113928Y-66357500D02*
X94932500Y-66266785D01*
X94841785Y-66085357D01*
X94841785Y-65813214D01*
X94932500Y-65631785D01*
X95113928Y-65541071D01*
X96111785Y-65541071D01*
X96111785Y-64633928D02*
X94841785Y-64633928D01*
X95023214Y-64633928D02*
X94932500Y-64543214D01*
X94841785Y-64361785D01*
X94841785Y-64089642D01*
X94932500Y-63908214D01*
X95113928Y-63817500D01*
X96111785Y-63817500D01*
X95113928Y-63817500D02*
X94932500Y-63726785D01*
X94841785Y-63545357D01*
X94841785Y-63273214D01*
X94932500Y-63091785D01*
X95113928Y-63001071D01*
X96111785Y-63001071D01*
D11*
X121135019Y-117328647D02*
X119683590Y-117328647D01*
X120409304Y-117328647D02*
X120409304Y-114788647D01*
X120167400Y-115151504D01*
X119925495Y-115393409D01*
X119683590Y-115514361D01*
X121981685Y-114788647D02*
X123675019Y-114788647D01*
X122586447Y-117328647D01*
X125126447Y-114788647D02*
X125368352Y-114788647D01*
X125610257Y-114909600D01*
X125731209Y-115030552D01*
X125852161Y-115272457D01*
X125973114Y-115756266D01*
X125973114Y-116361028D01*
X125852161Y-116844838D01*
X125731209Y-117086742D01*
X125610257Y-117207695D01*
X125368352Y-117328647D01*
X125126447Y-117328647D01*
X124884542Y-117207695D01*
X124763590Y-117086742D01*
X124642638Y-116844838D01*
X124521685Y-116361028D01*
X124521685Y-115756266D01*
X124642638Y-115272457D01*
X124763590Y-115030552D01*
X124884542Y-114909600D01*
X125126447Y-114788647D01*
X126698828Y-114788647D02*
X127545495Y-117328647D01*
X128392161Y-114788647D01*
X131174066Y-117328647D02*
X131174066Y-114788647D01*
X131778828Y-114788647D01*
X132141685Y-114909600D01*
X132383590Y-115151504D01*
X132504542Y-115393409D01*
X132625495Y-115877219D01*
X132625495Y-116240076D01*
X132504542Y-116723885D01*
X132383590Y-116965790D01*
X132141685Y-117207695D01*
X131778828Y-117328647D01*
X131174066Y-117328647D01*
X135165495Y-117086742D02*
X135044542Y-117207695D01*
X134681685Y-117328647D01*
X134439780Y-117328647D01*
X134076923Y-117207695D01*
X133835019Y-116965790D01*
X133714066Y-116723885D01*
X133593114Y-116240076D01*
X133593114Y-115877219D01*
X133714066Y-115393409D01*
X133835019Y-115151504D01*
X134076923Y-114909600D01*
X134439780Y-114788647D01*
X134681685Y-114788647D01*
X135044542Y-114909600D01*
X135165495Y-115030552D01*
X138068352Y-117207695D02*
X138431209Y-117328647D01*
X139035971Y-117328647D01*
X139277876Y-117207695D01*
X139398828Y-117086742D01*
X139519780Y-116844838D01*
X139519780Y-116602933D01*
X139398828Y-116361028D01*
X139277876Y-116240076D01*
X139035971Y-116119123D01*
X138552161Y-115998171D01*
X138310257Y-115877219D01*
X138189304Y-115756266D01*
X138068352Y-115514361D01*
X138068352Y-115272457D01*
X138189304Y-115030552D01*
X138310257Y-114909600D01*
X138552161Y-114788647D01*
X139156923Y-114788647D01*
X139519780Y-114909600D01*
X141696923Y-115635314D02*
X141696923Y-117328647D01*
X140608352Y-115635314D02*
X140608352Y-116965790D01*
X140729304Y-117207695D01*
X140971209Y-117328647D01*
X141334066Y-117328647D01*
X141575971Y-117207695D01*
X141696923Y-117086742D01*
X142906447Y-115635314D02*
X142906447Y-118175314D01*
X142906447Y-115756266D02*
X143148352Y-115635314D01*
X143632161Y-115635314D01*
X143874066Y-115756266D01*
X143995019Y-115877219D01*
X144115971Y-116119123D01*
X144115971Y-116844838D01*
X143995019Y-117086742D01*
X143874066Y-117207695D01*
X143632161Y-117328647D01*
X143148352Y-117328647D01*
X142906447Y-117207695D01*
X145204542Y-115635314D02*
X145204542Y-118175314D01*
X145204542Y-115756266D02*
X145446447Y-115635314D01*
X145930257Y-115635314D01*
X146172161Y-115756266D01*
X146293114Y-115877219D01*
X146414066Y-116119123D01*
X146414066Y-116844838D01*
X146293114Y-117086742D01*
X146172161Y-117207695D01*
X145930257Y-117328647D01*
X145446447Y-117328647D01*
X145204542Y-117207695D01*
X147865495Y-117328647D02*
X147623590Y-117207695D01*
X147502638Y-116965790D01*
X147502638Y-114788647D01*
X148591209Y-115635314D02*
X149195971Y-117328647D01*
X149800733Y-115635314D02*
X149195971Y-117328647D01*
X148954066Y-117933409D01*
X148833114Y-118054361D01*
X148591209Y-118175314D01*
X152340733Y-114788647D02*
X153187400Y-117328647D01*
X154034066Y-114788647D01*
X156211209Y-117328647D02*
X154759780Y-117328647D01*
X155485495Y-117328647D02*
X155485495Y-114788647D01*
X155243590Y-115151504D01*
X155001685Y-115393409D01*
X154759780Y-115514361D01*
D10*
X156482142Y-94175035D02*
X157117142Y-96080035D01*
X157752142Y-94175035D01*
X158659285Y-96080035D02*
X158477857Y-95989321D01*
X158387142Y-95898607D01*
X158296428Y-95717178D01*
X158296428Y-95172892D01*
X158387142Y-94991464D01*
X158477857Y-94900750D01*
X158659285Y-94810035D01*
X158931428Y-94810035D01*
X159112857Y-94900750D01*
X159203571Y-94991464D01*
X159294285Y-95172892D01*
X159294285Y-95717178D01*
X159203571Y-95898607D01*
X159112857Y-95989321D01*
X158931428Y-96080035D01*
X158659285Y-96080035D01*
X160927142Y-94810035D02*
X160927142Y-96080035D01*
X160110714Y-94810035D02*
X160110714Y-95807892D01*
X160201428Y-95989321D01*
X160382857Y-96080035D01*
X160655000Y-96080035D01*
X160836428Y-95989321D01*
X160927142Y-95898607D01*
X161562142Y-94810035D02*
X162287857Y-94810035D01*
X161834285Y-94175035D02*
X161834285Y-95807892D01*
X161925000Y-95989321D01*
X162106428Y-96080035D01*
X162287857Y-96080035D01*
X164374285Y-95354321D02*
X165825714Y-95354321D01*
X165100000Y-96080035D02*
X165100000Y-94628607D01*
X157298571Y-99191535D02*
X156210000Y-99191535D01*
X156754285Y-99191535D02*
X156754285Y-97286535D01*
X156572857Y-97558678D01*
X156391428Y-97740107D01*
X156210000Y-97830821D01*
X157933571Y-97286535D02*
X159203571Y-97286535D01*
X158387142Y-99191535D01*
X160292142Y-97286535D02*
X160473571Y-97286535D01*
X160655000Y-97377250D01*
X160745714Y-97467964D01*
X160836428Y-97649392D01*
X160927142Y-98012250D01*
X160927142Y-98465821D01*
X160836428Y-98828678D01*
X160745714Y-99010107D01*
X160655000Y-99100821D01*
X160473571Y-99191535D01*
X160292142Y-99191535D01*
X160110714Y-99100821D01*
X160020000Y-99010107D01*
X159929285Y-98828678D01*
X159838571Y-98465821D01*
X159838571Y-98012250D01*
X159929285Y-97649392D01*
X160020000Y-97467964D01*
X160110714Y-97377250D01*
X160292142Y-97286535D01*
X161471428Y-97286535D02*
X162106428Y-99191535D01*
X162741428Y-97286535D01*
X164827857Y-98465821D02*
X166279285Y-98465821D01*
D12*
X161992000Y-75962200D02*
X163322000Y-75962200D01*
X161992000Y-77292200D02*
X161992000Y-75962200D01*
X161992000Y-78562200D02*
X164652000Y-78562200D01*
X164652000Y-78562200D02*
X164652000Y-81162200D01*
X161992000Y-78562200D02*
X161992000Y-81162200D01*
X161992000Y-81162200D02*
X164652000Y-81162200D01*
X111195000Y-94913000D02*
X113195000Y-94913000D01*
X113195000Y-97873000D02*
X111195000Y-97873000D01*
X111214000Y-101009000D02*
X113214000Y-101009000D01*
X113214000Y-103969000D02*
X111214000Y-103969000D01*
X111195000Y-107105000D02*
X113195000Y-107105000D01*
X113195000Y-110065000D02*
X111195000Y-110065000D01*
X164652000Y-69529000D02*
X163322000Y-69529000D01*
X164652000Y-68199000D02*
X164652000Y-69529000D01*
X164652000Y-66929000D02*
X161992000Y-66929000D01*
X161992000Y-66929000D02*
X161992000Y-64329000D01*
X164652000Y-66929000D02*
X164652000Y-64329000D01*
X164652000Y-64329000D02*
X161992000Y-64329000D01*
X104708000Y-97723000D02*
X104708000Y-95063000D01*
X102108000Y-97723000D02*
X104708000Y-97723000D01*
X102108000Y-95063000D02*
X104708000Y-95063000D01*
X102108000Y-97723000D02*
X102108000Y-95063000D01*
X100838000Y-97723000D02*
X99508000Y-97723000D01*
X99508000Y-97723000D02*
X99508000Y-96393000D01*
X99508000Y-103819000D02*
X99508000Y-102489000D01*
X100838000Y-103819000D02*
X99508000Y-103819000D01*
X102108000Y-103819000D02*
X102108000Y-101159000D01*
X102108000Y-101159000D02*
X104708000Y-101159000D01*
X102108000Y-103819000D02*
X104708000Y-103819000D01*
X104708000Y-103819000D02*
X104708000Y-101159000D01*
X104708000Y-109915000D02*
X104708000Y-107255000D01*
X102108000Y-109915000D02*
X104708000Y-109915000D01*
X102108000Y-107255000D02*
X104708000Y-107255000D01*
X102108000Y-109915000D02*
X102108000Y-107255000D01*
X100838000Y-109915000D02*
X99508000Y-109915000D01*
X99508000Y-109915000D02*
X99508000Y-108585000D01*
X122360800Y-101336400D02*
X122360800Y-100136400D01*
X124120800Y-100136400D02*
X124120800Y-101336400D01*
X125180200Y-101336400D02*
X125180200Y-100136400D01*
X126940200Y-100136400D02*
X126940200Y-101336400D01*
X140304436Y-62082000D02*
X141508564Y-62082000D01*
X140304436Y-63902000D02*
X141508564Y-63902000D01*
X149855000Y-63842000D02*
X146705000Y-63842000D01*
X149855000Y-62142000D02*
X146705000Y-62142000D01*
X149855000Y-63842000D02*
X149855000Y-62142000D01*
X151262000Y-62142000D02*
X151262000Y-63842000D01*
X151262000Y-63842000D02*
X154412000Y-63842000D01*
X151262000Y-62142000D02*
X154412000Y-62142000D01*
D13*
X91541600Y-68728200D02*
X89509600Y-68728200D01*
X89509600Y-68728200D02*
X89509600Y-69490200D01*
X89509600Y-69490200D02*
X91541600Y-69490200D01*
X91541600Y-69490200D02*
X91541600Y-68728200D01*
X91541600Y-69490200D02*
X91541600Y-72538200D01*
X91541600Y-72538200D02*
X89509600Y-72538200D01*
X89509600Y-72538200D02*
X89509600Y-69490200D01*
X89509600Y-73300200D02*
X91541600Y-73300200D01*
X91541600Y-73300200D02*
X91541600Y-72538200D01*
X89509600Y-72538200D02*
X89509600Y-73300200D01*
X93325600Y-59409200D02*
X93325600Y-82409200D01*
X93325600Y-82409200D02*
X87725600Y-82409200D01*
X87725600Y-82409200D02*
X87725600Y-59409200D01*
X87725600Y-59409200D02*
X93325600Y-59409200D01*
X87725600Y-74409200D02*
X93325600Y-74409200D01*
X87725600Y-67409200D02*
X93325600Y-67409200D01*
X90525600Y-73309200D02*
X90525600Y-74109200D01*
X90525600Y-67909200D02*
X90525600Y-68709200D01*
D12*
X148715000Y-69144000D02*
X148715000Y-68214000D01*
X148715000Y-65984000D02*
X148715000Y-66914000D01*
X148715000Y-65984000D02*
X146555000Y-65984000D01*
X148715000Y-69144000D02*
X147255000Y-69144000D01*
X153922000Y-69144000D02*
X152462000Y-69144000D01*
X153922000Y-65984000D02*
X151762000Y-65984000D01*
X153922000Y-65984000D02*
X153922000Y-66914000D01*
X153922000Y-69144000D02*
X153922000Y-68214000D01*
X148682000Y-59300000D02*
X147482000Y-59300000D01*
X147482000Y-57540000D02*
X148682000Y-57540000D01*
X140370000Y-66176000D02*
X141570000Y-66176000D01*
X141570000Y-67936000D02*
X140370000Y-67936000D01*
X153762000Y-59300000D02*
X152562000Y-59300000D01*
X152562000Y-57540000D02*
X153762000Y-57540000D01*
D13*
X152218000Y-70993000D02*
X148518000Y-70993000D01*
X152218000Y-75057000D02*
X148518000Y-75057000D01*
D12*
X128962200Y-90977800D02*
X127702200Y-90977800D01*
X122142200Y-90977800D02*
X123402200Y-90977800D01*
X128962200Y-94737800D02*
X128962200Y-90977800D01*
X122142200Y-96987800D02*
X122142200Y-90977800D01*
X136963800Y-100761800D02*
X134339800Y-100761800D01*
X136963800Y-98221800D02*
X134339800Y-98221800D01*
X136963800Y-95681800D02*
X134323800Y-95681800D01*
X153085800Y-103555800D02*
X136956800Y-103555800D01*
X153085800Y-92887800D02*
X136956800Y-92887800D01*
X153085800Y-92887800D02*
X153085800Y-103555800D01*
X136956800Y-92887800D02*
X136956800Y-103555800D01*
D13*
X99847400Y-89865200D02*
X91338400Y-89865200D01*
X91338400Y-89865200D02*
X91338400Y-85852000D01*
X91338400Y-85852000D02*
X99847400Y-85852000D01*
X99847400Y-85852000D02*
X99847400Y-89865200D01*
D11*
X75184000Y-68199000D02*
X77978000Y-68199000D01*
X77978000Y-68199000D02*
X77216000Y-67437000D01*
X77978000Y-68199000D02*
X77216000Y-68961000D01*
X77978000Y-72009000D02*
X77216000Y-71247000D01*
X77978000Y-72009000D02*
X77216000Y-72771000D01*
X75184000Y-72009000D02*
X77978000Y-72009000D01*
X74041000Y-74041000D02*
X85217000Y-74041000D01*
X74041000Y-66421000D02*
X85217000Y-66421000D01*
X74041000Y-74041000D02*
X74041000Y-66421000D01*
X85217000Y-74041000D02*
X85217000Y-66421000D01*
X85217000Y-91821000D02*
X85217000Y-84201000D01*
X74041000Y-91821000D02*
X74041000Y-84201000D01*
X74041000Y-84201000D02*
X85217000Y-84201000D01*
X74041000Y-91821000D02*
X85217000Y-91821000D01*
X75184000Y-89789000D02*
X77978000Y-89789000D01*
X77978000Y-89789000D02*
X77216000Y-90551000D01*
X77978000Y-89789000D02*
X77216000Y-89027000D01*
X77978000Y-85979000D02*
X77216000Y-86741000D01*
X77978000Y-85979000D02*
X77216000Y-85217000D01*
X75184000Y-85979000D02*
X77978000Y-85979000D01*
X166116000Y-90932000D02*
X163322000Y-90932000D01*
X163322000Y-90932000D02*
X164084000Y-91694000D01*
X163322000Y-90932000D02*
X164084000Y-90170000D01*
X163322000Y-87122000D02*
X164084000Y-87884000D01*
X163322000Y-87122000D02*
X164084000Y-86360000D01*
X166116000Y-87122000D02*
X163322000Y-87122000D01*
X167259000Y-85090000D02*
X156083000Y-85090000D01*
X167259000Y-92710000D02*
X156083000Y-92710000D01*
X167259000Y-85090000D02*
X167259000Y-92710000D01*
X156083000Y-85090000D02*
X156083000Y-92710000D01*
X156083000Y-100584000D02*
X156083000Y-108204000D01*
X167259000Y-100584000D02*
X167259000Y-108204000D01*
X167259000Y-108204000D02*
X156083000Y-108204000D01*
X167259000Y-100584000D02*
X156083000Y-100584000D01*
X166116000Y-102616000D02*
X163322000Y-102616000D01*
X163322000Y-102616000D02*
X164084000Y-101854000D01*
X163322000Y-102616000D02*
X164084000Y-103378000D01*
X163322000Y-106426000D02*
X164084000Y-105664000D01*
X163322000Y-106426000D02*
X164084000Y-107188000D01*
X166116000Y-106426000D02*
X163322000Y-106426000D01*
D12*
X104708000Y-116011000D02*
X104708000Y-113351000D01*
X102108000Y-116011000D02*
X104708000Y-116011000D01*
X102108000Y-113351000D02*
X104708000Y-113351000D01*
X102108000Y-116011000D02*
X102108000Y-113351000D01*
X100838000Y-116011000D02*
X99508000Y-116011000D01*
X99508000Y-116011000D02*
X99508000Y-114681000D01*
X92971536Y-49331200D02*
X94175664Y-49331200D01*
X92971536Y-51151200D02*
X94175664Y-51151200D01*
X131549900Y-48661200D02*
X134234900Y-48661200D01*
X134234900Y-48661200D02*
X134234900Y-46741200D01*
X134234900Y-46741200D02*
X131549900Y-46741200D01*
X102168200Y-46741200D02*
X99308200Y-46741200D01*
X99308200Y-46741200D02*
X99308200Y-48661200D01*
X99308200Y-48661200D02*
X102168200Y-48661200D01*
X105568200Y-52602400D02*
X98668200Y-52602400D01*
X105568200Y-49302400D02*
X98668200Y-49302400D01*
X105568200Y-52602400D02*
X105568200Y-49302400D01*
X142830000Y-60070000D02*
X142830000Y-56770000D01*
X142830000Y-56770000D02*
X135930000Y-56770000D01*
X142830000Y-60070000D02*
X135930000Y-60070000D01*
X153324000Y-50301000D02*
X154524000Y-50301000D01*
X154524000Y-52061000D02*
X153324000Y-52061000D01*
X149672600Y-52061000D02*
X148472600Y-52061000D01*
X148472600Y-50301000D02*
X149672600Y-50301000D01*
X131962600Y-50072400D02*
X133162600Y-50072400D01*
X133162600Y-51832400D02*
X131962600Y-51832400D01*
X148485300Y-43658900D02*
X149685300Y-43658900D01*
X149685300Y-45418900D02*
X148485300Y-45418900D01*
X149685300Y-48733600D02*
X148485300Y-48733600D01*
X148485300Y-46973600D02*
X149685300Y-46973600D01*
X94173600Y-48581200D02*
X92973600Y-48581200D01*
X92973600Y-46821200D02*
X94173600Y-46821200D01*
X94173600Y-53915200D02*
X92973600Y-53915200D01*
X92973600Y-52155200D02*
X94173600Y-52155200D01*
D13*
X126125600Y-84232000D02*
X126125600Y-81184000D01*
X127141600Y-82708000D02*
X127649600Y-82708000D01*
X124601600Y-82708000D02*
X127141600Y-82708000D01*
D12*
X128265600Y-66915000D02*
X137456600Y-66915000D01*
X128265600Y-67275000D02*
X137617600Y-67275000D01*
X114553600Y-67275000D02*
X123905600Y-67275000D01*
X128265600Y-66795000D02*
X137400600Y-66795000D01*
X114570600Y-67235000D02*
X123905600Y-67235000D01*
X128265600Y-66835000D02*
X137419600Y-66835000D01*
X114659600Y-67035000D02*
X123905600Y-67035000D01*
X114536600Y-67315000D02*
X123905600Y-67315000D01*
X128265600Y-66555000D02*
X137281600Y-66555000D01*
X128265600Y-66675000D02*
X137341600Y-66675000D01*
X128265600Y-66875000D02*
X137438600Y-66875000D01*
X114929600Y-66475000D02*
X123905600Y-66475000D01*
X128265600Y-67035000D02*
X137511600Y-67035000D01*
X128265600Y-67115000D02*
X137547600Y-67115000D01*
X114992600Y-66355000D02*
X123905600Y-66355000D01*
X128265600Y-66515000D02*
X137261600Y-66515000D01*
X114587600Y-67195000D02*
X123905600Y-67195000D01*
X128265600Y-66315000D02*
X137157600Y-66315000D01*
X128265600Y-67235000D02*
X137600600Y-67235000D01*
X128265600Y-67315000D02*
X137634600Y-67315000D01*
X128265600Y-67355000D02*
X137651600Y-67355000D01*
X114519600Y-67355000D02*
X123905600Y-67355000D01*
X128265600Y-67075000D02*
X137530600Y-67075000D01*
X128265600Y-67395000D02*
X137668600Y-67395000D01*
X114770600Y-66795000D02*
X123905600Y-66795000D01*
X114732600Y-66875000D02*
X123905600Y-66875000D01*
X114971600Y-66395000D02*
X123905600Y-66395000D01*
X128265600Y-67195000D02*
X137583600Y-67195000D01*
X128265600Y-67435000D02*
X137685600Y-67435000D01*
X115013600Y-66315000D02*
X123905600Y-66315000D01*
X114868600Y-66595000D02*
X123905600Y-66595000D01*
X114849600Y-66635000D02*
X123905600Y-66635000D01*
X128265600Y-66955000D02*
X137475600Y-66955000D01*
X128265600Y-66395000D02*
X137199600Y-66395000D01*
X114695600Y-66955000D02*
X123905600Y-66955000D01*
X128265600Y-67475000D02*
X137701600Y-67475000D01*
X114437600Y-67555000D02*
X123905600Y-67555000D01*
X114950600Y-66435000D02*
X123905600Y-66435000D01*
X128265600Y-67515000D02*
X137717600Y-67515000D01*
X114640600Y-67075000D02*
X123905600Y-67075000D01*
X114605600Y-67155000D02*
X123905600Y-67155000D01*
X128265600Y-66755000D02*
X137380600Y-66755000D01*
X114909600Y-66515000D02*
X123905600Y-66515000D01*
X114889600Y-66555000D02*
X123905600Y-66555000D01*
X128265600Y-66595000D02*
X137302600Y-66595000D01*
X128265600Y-66635000D02*
X137321600Y-66635000D01*
X114809600Y-66715000D02*
X123905600Y-66715000D01*
X128265600Y-66995000D02*
X137493600Y-66995000D01*
X114677600Y-66995000D02*
X123905600Y-66995000D01*
X128265600Y-66475000D02*
X137241600Y-66475000D01*
X114751600Y-66835000D02*
X123905600Y-66835000D01*
X114623600Y-67115000D02*
X123905600Y-67115000D01*
X128265600Y-67155000D02*
X137565600Y-67155000D01*
X128265600Y-66435000D02*
X137220600Y-66435000D01*
X114790600Y-66755000D02*
X123905600Y-66755000D01*
X128265600Y-66715000D02*
X137361600Y-66715000D01*
X114502600Y-67395000D02*
X123905600Y-67395000D01*
X114829600Y-66675000D02*
X123905600Y-66675000D01*
X114485600Y-67435000D02*
X123905600Y-67435000D01*
X114469600Y-67475000D02*
X123905600Y-67475000D01*
X128265600Y-66355000D02*
X137178600Y-66355000D01*
X114714600Y-66915000D02*
X123905600Y-66915000D01*
X114453600Y-67515000D02*
X123905600Y-67515000D01*
X128265600Y-67555000D02*
X137733600Y-67555000D01*
X128265600Y-68275000D02*
X137997600Y-68275000D01*
X128265600Y-68595000D02*
X138098600Y-68595000D01*
X128265600Y-68675000D02*
X138122600Y-68675000D01*
X128265600Y-68715000D02*
X138133600Y-68715000D01*
X128265600Y-68235000D02*
X137983600Y-68235000D01*
X128265600Y-67635000D02*
X137765600Y-67635000D01*
X114405600Y-67635000D02*
X123905600Y-67635000D01*
X114048600Y-68675000D02*
X123905600Y-68675000D01*
X114037600Y-68715000D02*
X138133600Y-68715000D01*
X128265600Y-68755000D02*
X138145600Y-68755000D01*
X114025600Y-68755000D02*
X138185600Y-68755000D01*
X114187600Y-68235000D02*
X137983600Y-68235000D01*
X114147600Y-68355000D02*
X138023600Y-68355000D01*
X128265600Y-67875000D02*
X137856600Y-67875000D01*
X128265600Y-68795000D02*
X138156600Y-68795000D01*
X114014600Y-68795000D02*
X123905600Y-68795000D01*
X128265600Y-68835000D02*
X138168600Y-68835000D01*
X128265600Y-68355000D02*
X138023600Y-68355000D01*
X128265600Y-68475000D02*
X138061600Y-68475000D01*
X114097600Y-68515000D02*
X123905600Y-68515000D01*
X128265600Y-68035000D02*
X137914600Y-68035000D01*
X114072600Y-68595000D02*
X123905600Y-68595000D01*
X128265600Y-67995000D02*
X137900600Y-67995000D01*
X114002600Y-68835000D02*
X138168600Y-68835000D01*
X128265600Y-67595000D02*
X137749600Y-67595000D01*
X128265600Y-67675000D02*
X137781600Y-67675000D01*
X114343600Y-67795000D02*
X123905600Y-67795000D01*
X114328600Y-67835000D02*
X123905600Y-67835000D01*
X128265600Y-67795000D02*
X137827600Y-67795000D01*
X114270600Y-67995000D02*
X123910600Y-67995000D01*
X128265600Y-68155000D02*
X137956600Y-68155000D01*
X114200600Y-68195000D02*
X137985600Y-68195000D01*
X128265600Y-68315000D02*
X138010600Y-68315000D01*
X114256600Y-68035000D02*
X123910600Y-68036000D01*
X128265600Y-67755000D02*
X137811600Y-67755000D01*
X114284600Y-67955000D02*
X123905600Y-67955000D01*
X128265600Y-67715000D02*
X137796600Y-67715000D01*
X128265600Y-68395000D02*
X138036600Y-68395000D01*
X128265600Y-67835000D02*
X137842600Y-67835000D01*
X114134600Y-68395000D02*
X138036600Y-68395000D01*
X114084600Y-68555000D02*
X138085600Y-68555000D01*
X128265600Y-67955000D02*
X137886600Y-67955000D01*
X128265600Y-68515000D02*
X138073600Y-68515000D01*
X128265600Y-67915000D02*
X137871600Y-67915000D01*
X128265600Y-68075000D02*
X137928600Y-68075000D01*
X114109600Y-68475000D02*
X138061600Y-68475000D01*
X114374600Y-67715000D02*
X123905600Y-67715000D01*
X114359600Y-67755000D02*
X123905600Y-67755000D01*
X114299600Y-67915000D02*
X123905600Y-67915000D01*
X114314600Y-67875000D02*
X123905600Y-67875000D01*
X114389600Y-67675000D02*
X123905600Y-67675000D01*
X114242600Y-68075000D02*
X123910600Y-68075000D01*
X114421600Y-67595000D02*
X123905600Y-67595000D01*
X128265600Y-68115000D02*
X137942600Y-68115000D01*
X114214600Y-68155000D02*
X123910600Y-68161000D01*
X114160600Y-68315000D02*
X138010600Y-68315000D01*
X128265600Y-68435000D02*
X138048600Y-68435000D01*
X114122600Y-68435000D02*
X138048600Y-68435000D01*
X114228600Y-68115000D02*
X123885600Y-68136000D01*
X128265600Y-68555000D02*
X138086600Y-68555000D01*
X128265600Y-68635000D02*
X138110600Y-68635000D01*
X128265600Y-68195000D02*
X137970600Y-68195000D01*
X114173600Y-68275000D02*
X137985600Y-68275000D01*
X114060600Y-68635000D02*
X138110600Y-68635000D01*
X128265600Y-68915000D02*
X138190600Y-68915000D01*
X113841600Y-69475000D02*
X138329600Y-69475000D01*
X113714600Y-70115000D02*
X138456600Y-70115000D01*
X113969600Y-68955000D02*
X123905600Y-68955000D01*
X113694600Y-70235000D02*
X138476600Y-70235000D01*
X113721600Y-70075000D02*
X138449600Y-70075000D01*
X113806600Y-69635000D02*
X138364600Y-69635000D01*
X113814600Y-69595000D02*
X138356600Y-69595000D01*
X113688600Y-70275000D02*
X138482600Y-70275000D01*
X113773600Y-69795000D02*
X138397600Y-69795000D01*
X113991600Y-68875000D02*
X138179600Y-68875000D01*
X113798600Y-69675000D02*
X138372600Y-69675000D01*
X113743600Y-69955000D02*
X138427600Y-69955000D01*
X113676600Y-70355000D02*
X138494600Y-70355000D01*
X113917600Y-69155000D02*
X138285600Y-69155000D01*
X128265600Y-68955000D02*
X138201600Y-68955000D01*
X113670600Y-70395000D02*
X138500600Y-70395000D01*
X113658600Y-70475000D02*
X138512600Y-70475000D01*
X113653600Y-70515000D02*
X138517600Y-70515000D01*
X113647600Y-70555000D02*
X138523600Y-70555000D01*
X113642600Y-70595000D02*
X138528600Y-70595000D01*
X113632600Y-70675000D02*
X138538600Y-70675000D01*
X113627600Y-70715000D02*
X138543600Y-70715000D01*
X113622600Y-70755000D02*
X138548600Y-70755000D01*
X113850600Y-69435000D02*
X138320600Y-69435000D01*
X113832600Y-69515000D02*
X138338600Y-69515000D01*
X113708600Y-70155000D02*
X138462600Y-70155000D01*
X113728600Y-70035000D02*
X138442600Y-70035000D01*
X113959600Y-68995000D02*
X138211600Y-68995000D01*
X113878600Y-69315000D02*
X123905600Y-69315000D01*
X113701600Y-70195000D02*
X138469600Y-70195000D01*
X113617600Y-70795000D02*
X138553600Y-70795000D01*
X113980600Y-68915000D02*
X138185600Y-68915000D01*
X113637600Y-70635000D02*
X138533600Y-70635000D01*
X113613600Y-70835000D02*
X138557600Y-70835000D01*
X113735600Y-69995000D02*
X138435600Y-69995000D01*
X113823600Y-69555000D02*
X138347600Y-69555000D01*
X113927600Y-69115000D02*
X123905600Y-69115000D01*
X113897600Y-69235000D02*
X138285600Y-69235000D01*
X113682600Y-70315000D02*
X138488600Y-70315000D01*
X113664600Y-70435000D02*
X138506600Y-70435000D01*
X128265600Y-69035000D02*
X138222600Y-69035000D01*
X113907600Y-69195000D02*
X138285600Y-69195000D01*
X113938600Y-69075000D02*
X138232600Y-69075000D01*
X128265600Y-68995000D02*
X138211600Y-68995000D01*
X128265600Y-69075000D02*
X138232600Y-69075000D01*
X128265600Y-68875000D02*
X138179600Y-68875000D01*
X113859600Y-69395000D02*
X123905600Y-69395000D01*
X113789600Y-69715000D02*
X138381600Y-69715000D01*
X113868600Y-69355000D02*
X138285600Y-69355000D01*
X113781600Y-69755000D02*
X138389600Y-69755000D01*
X113887600Y-69275000D02*
X138285600Y-69275000D01*
X113765600Y-69835000D02*
X138405600Y-69835000D01*
X113948600Y-69035000D02*
X138222600Y-69035000D01*
X113758600Y-69875000D02*
X138412600Y-69875000D01*
X113750600Y-69915000D02*
X138420600Y-69915000D01*
X113549600Y-71636000D02*
X138621600Y-71636000D01*
X113539600Y-71916000D02*
X138631600Y-71916000D01*
X113537600Y-71996000D02*
X138633600Y-71996000D01*
X113553600Y-71556000D02*
X138617600Y-71556000D01*
X113541600Y-71836000D02*
X138629600Y-71836000D01*
X113536600Y-72036000D02*
X138634600Y-72036000D01*
X113584600Y-71115000D02*
X138586600Y-71115000D01*
X113604600Y-70915000D02*
X138566600Y-70915000D01*
X113535600Y-72196000D02*
X138635600Y-72196000D01*
X113563600Y-71395000D02*
X138607600Y-71395000D01*
X113535600Y-72236000D02*
X138635600Y-72236000D01*
X113578600Y-71195000D02*
X138592600Y-71195000D01*
X113544600Y-71756000D02*
X138626600Y-71756000D01*
X113560600Y-71435000D02*
X138610600Y-71435000D01*
X113574600Y-71235000D02*
X138596600Y-71235000D01*
X113608600Y-70875000D02*
X138562600Y-70875000D01*
X113555600Y-71515000D02*
X138615600Y-71515000D01*
X113540600Y-71876000D02*
X138630600Y-71876000D01*
X113588600Y-71075000D02*
X138582600Y-71075000D01*
X113536600Y-72076000D02*
X138634600Y-72076000D01*
X113581600Y-71155000D02*
X138589600Y-71155000D01*
X113568600Y-71315000D02*
X138602600Y-71315000D01*
X113545600Y-71716000D02*
X138625600Y-71716000D01*
X138675600Y-72236000D02*
G75*
G03X138675600Y-72236000I-12590000J0D01*
G01*
X113565600Y-71355000D02*
X138605600Y-71355000D01*
X113547600Y-71676000D02*
X138623600Y-71676000D01*
X113538600Y-71956000D02*
X138632600Y-71956000D01*
X113542600Y-71796000D02*
X138628600Y-71796000D01*
X113557600Y-71475000D02*
X138613600Y-71475000D01*
X113600600Y-70955000D02*
X138570600Y-70955000D01*
X113551600Y-71596000D02*
X138619600Y-71596000D01*
X113535600Y-72116000D02*
X138635600Y-72116000D01*
X113535600Y-72156000D02*
X138635600Y-72156000D01*
X113596600Y-70995000D02*
X138574600Y-70995000D01*
X113592600Y-71035000D02*
X138578600Y-71035000D01*
X113571600Y-71275000D02*
X138599600Y-71275000D01*
X128265600Y-66155000D02*
X137070600Y-66155000D01*
X115100600Y-66155000D02*
X123905600Y-66155000D01*
X128265600Y-66195000D02*
X137092600Y-66195000D01*
X115078600Y-66195000D02*
X123905600Y-66195000D01*
X128265600Y-66235000D02*
X137114600Y-66235000D01*
X128265600Y-66075000D02*
X137026600Y-66075000D01*
X128265600Y-66275000D02*
X137135600Y-66275000D01*
X115035600Y-66275000D02*
X123905600Y-66275000D01*
X115056600Y-66235000D02*
X123905600Y-66235000D01*
X128265600Y-66035000D02*
X137003600Y-66035000D01*
X115167600Y-66035000D02*
X123905600Y-66035000D01*
X128265600Y-65995000D02*
X136980600Y-65995000D01*
X115190600Y-65995000D02*
X123905600Y-65995000D01*
X115144600Y-66075000D02*
X123905600Y-66075000D01*
X128265600Y-66115000D02*
X137048600Y-66115000D01*
X115122600Y-66115000D02*
X123905600Y-66115000D01*
X125256600Y-59676000D02*
X126914600Y-59676000D01*
X118913600Y-61916000D02*
X133257600Y-61916000D01*
X118856600Y-61956000D02*
X133314600Y-61956000D01*
X118800600Y-61996000D02*
X133370600Y-61996000D01*
X118744600Y-62036000D02*
X133426600Y-62036000D01*
X123531600Y-59916000D02*
X128639600Y-59916000D01*
X120868600Y-60796000D02*
X131302600Y-60796000D01*
X124464600Y-59756000D02*
X127706600Y-59756000D01*
X121735600Y-60436000D02*
X130435600Y-60436000D01*
X119029600Y-61836000D02*
X133141600Y-61836000D01*
X123348600Y-59956000D02*
X128822600Y-59956000D01*
X118689600Y-62076000D02*
X133481600Y-62076000D01*
X121045600Y-60716000D02*
X131125600Y-60716000D01*
X122717600Y-60116000D02*
X129453600Y-60116000D01*
X120614600Y-60916000D02*
X131556600Y-60916000D01*
X120073600Y-61196000D02*
X132097600Y-61196000D01*
X122577600Y-60156000D02*
X129593600Y-60156000D01*
X121425600Y-60556000D02*
X130745600Y-60556000D01*
X119789600Y-61356000D02*
X132381600Y-61356000D01*
X119588600Y-61476000D02*
X132582600Y-61476000D01*
X122072600Y-60316000D02*
X130098600Y-60316000D01*
X121526600Y-60516000D02*
X130644600Y-60516000D01*
X120000600Y-61236000D02*
X132170600Y-61236000D01*
X119208600Y-61716000D02*
X132962600Y-61716000D01*
X119148600Y-61756000D02*
X133022600Y-61756000D01*
X118635600Y-62116000D02*
X133535600Y-62116000D01*
X118581600Y-62156000D02*
X133589600Y-62156000D01*
X119458600Y-61556000D02*
X132712600Y-61556000D01*
X118528600Y-62196000D02*
X133642600Y-62196000D01*
X118475600Y-62236000D02*
X133695600Y-62236000D01*
X123177600Y-59996000D02*
X128993600Y-59996000D01*
X121956600Y-60356000D02*
X130214600Y-60356000D01*
X124187600Y-59796000D02*
X127983600Y-59796000D01*
X119721600Y-61396000D02*
X132449600Y-61396000D01*
X121137600Y-60676000D02*
X131033600Y-60676000D01*
X119859600Y-61316000D02*
X132311600Y-61316000D01*
X120297600Y-61076000D02*
X131873600Y-61076000D01*
X122444600Y-60196000D02*
X129726600Y-60196000D01*
X121629600Y-60476000D02*
X130541600Y-60476000D01*
X120453600Y-60996000D02*
X131717600Y-60996000D01*
X120221600Y-61116000D02*
X131949600Y-61116000D01*
X120146600Y-61156000D02*
X132024600Y-61156000D01*
X122192600Y-60276000D02*
X129978600Y-60276000D01*
X121844600Y-60396000D02*
X130326600Y-60396000D01*
X122316600Y-60236000D02*
X129854600Y-60236000D01*
X120374600Y-61036000D02*
X131796600Y-61036000D01*
X119929600Y-61276000D02*
X132241600Y-61276000D01*
X119522600Y-61516000D02*
X132648600Y-61516000D01*
X123729600Y-59876000D02*
X128441600Y-59876000D01*
X119331600Y-61636000D02*
X132839600Y-61636000D01*
X120956600Y-60756000D02*
X131214600Y-60756000D01*
X124799600Y-59716000D02*
X127371600Y-59716000D01*
X121231600Y-60636000D02*
X130939600Y-60636000D01*
X120781600Y-60836000D02*
X131389600Y-60836000D01*
X123015600Y-60036000D02*
X129155600Y-60036000D01*
X122862600Y-60076000D02*
X129308600Y-60076000D01*
X120533600Y-60956000D02*
X131637600Y-60956000D01*
X119394600Y-61596000D02*
X132776600Y-61596000D01*
X119269600Y-61676000D02*
X132901600Y-61676000D01*
X119088600Y-61796000D02*
X133082600Y-61796000D01*
X121327600Y-60596000D02*
X130843600Y-60596000D01*
X120697600Y-60876000D02*
X131473600Y-60876000D01*
X119654600Y-61436000D02*
X132516600Y-61436000D01*
X123945600Y-59836000D02*
X128225600Y-59836000D01*
X118971600Y-61876000D02*
X133199600Y-61876000D01*
X118074600Y-62556000D02*
X134096600Y-62556000D01*
X117280600Y-63276000D02*
X134890600Y-63276000D01*
X117240600Y-63316000D02*
X134930600Y-63316000D01*
X118372600Y-62316000D02*
X133798600Y-62316000D01*
X117321600Y-63236000D02*
X134849600Y-63236000D01*
X118271600Y-62396000D02*
X133899600Y-62396000D01*
X117749600Y-62836000D02*
X134421600Y-62836000D01*
X117160600Y-63396000D02*
X135010600Y-63396000D01*
X117121600Y-63436000D02*
X135049600Y-63436000D01*
X118171600Y-62476000D02*
X133999600Y-62476000D01*
X117403600Y-63156000D02*
X134767600Y-63156000D01*
X117082600Y-63476000D02*
X135088600Y-63476000D01*
X117794600Y-62796000D02*
X134376600Y-62796000D01*
X117616600Y-62956000D02*
X134554600Y-62956000D01*
X117043600Y-63516000D02*
X135127600Y-63516000D01*
X117362600Y-63196000D02*
X134808600Y-63196000D01*
X116967600Y-63596000D02*
X135203600Y-63596000D01*
X116892600Y-63676000D02*
X135278600Y-63676000D01*
X117200600Y-63356000D02*
X134970600Y-63356000D01*
X116711600Y-63876000D02*
X123910600Y-63876000D01*
X116606600Y-63996000D02*
X123910600Y-63996000D01*
X116571600Y-64036000D02*
X123910600Y-64036000D01*
X117704600Y-62876000D02*
X134466600Y-62876000D01*
X116210600Y-64475000D02*
X123910600Y-64461000D01*
X118321600Y-62356000D02*
X133849600Y-62356000D01*
X118123600Y-62516000D02*
X134047600Y-62516000D01*
X117445600Y-63116000D02*
X134725600Y-63116000D01*
X116675600Y-63916000D02*
X123910600Y-63916000D01*
X116537600Y-64075000D02*
X123910600Y-64075000D01*
X117979600Y-62636000D02*
X134191600Y-62636000D01*
X117932600Y-62676000D02*
X134238600Y-62676000D01*
X116338600Y-64315000D02*
X123910600Y-64315000D01*
X116305600Y-64355000D02*
X123910600Y-64355000D01*
X116242600Y-64435000D02*
X123910600Y-64435000D01*
X116403600Y-64235000D02*
X123910600Y-64235000D01*
X116057600Y-64675000D02*
X123910600Y-64675000D01*
X116469600Y-64155000D02*
X123910600Y-64155000D01*
X116027600Y-64715000D02*
X123910600Y-64715000D01*
X116819600Y-63756000D02*
X135351600Y-63756000D01*
X117660600Y-62916000D02*
X134510600Y-62916000D01*
X117487600Y-63076000D02*
X134683600Y-63076000D01*
X116273600Y-64395000D02*
X123910600Y-64395000D01*
X117886600Y-62716000D02*
X134284600Y-62716000D01*
X117840600Y-62756000D02*
X134330600Y-62756000D01*
X116929600Y-63636000D02*
X135241600Y-63636000D01*
X116746600Y-63836000D02*
X123910600Y-63836000D01*
X116436600Y-64195000D02*
X123910600Y-64195000D01*
X116370600Y-64275000D02*
X123910600Y-64275000D01*
X117573600Y-62996000D02*
X134597600Y-62996000D01*
X118221600Y-62436000D02*
X133949600Y-62436000D01*
X117530600Y-63036000D02*
X134640600Y-63036000D01*
X117005600Y-63556000D02*
X135165600Y-63556000D01*
X116640600Y-63956000D02*
X123910600Y-63956000D01*
X118423600Y-62276000D02*
X133747600Y-62276000D01*
X116503600Y-64115000D02*
X123910600Y-64115000D01*
X116782600Y-63796000D02*
X135388600Y-63796000D01*
X116179600Y-64515000D02*
X123910600Y-64515000D01*
X116855600Y-63716000D02*
X135315600Y-63716000D01*
X116148600Y-64555000D02*
X123910600Y-64555000D01*
X116118600Y-64595000D02*
X123910600Y-64595000D01*
X116087600Y-64635000D02*
X123910600Y-64635000D01*
X118026600Y-62596000D02*
X134144600Y-62596000D01*
X115997600Y-64755000D02*
X123910600Y-64755000D01*
X115968600Y-64795000D02*
X123910600Y-64795000D01*
X115714600Y-65155000D02*
X123905600Y-65155000D01*
X115503600Y-65475000D02*
X123905600Y-65475000D01*
X128265600Y-65635000D02*
X136767600Y-65635000D01*
X115741600Y-65115000D02*
X123905600Y-65115000D01*
X115306600Y-65795000D02*
X123905600Y-65795000D01*
X128265600Y-65595000D02*
X136742600Y-65595000D01*
X128265600Y-65715000D02*
X136816600Y-65715000D01*
X128265600Y-65755000D02*
X136840600Y-65755000D01*
X128265600Y-65155000D02*
X136456600Y-65155000D01*
X115259600Y-65875000D02*
X123905600Y-65875000D01*
X128265600Y-65275000D02*
X136537600Y-65275000D01*
X128265600Y-65875000D02*
X136911600Y-65875000D01*
X128265600Y-65915000D02*
X136934600Y-65915000D01*
X128265600Y-65795000D02*
X136864600Y-65795000D01*
X115236600Y-65915000D02*
X123905600Y-65915000D01*
X115660600Y-65235000D02*
X123905600Y-65235000D01*
X115581600Y-65355000D02*
X123905600Y-65355000D01*
X128265600Y-65435000D02*
X136641600Y-65435000D01*
X128265600Y-65515000D02*
X136692600Y-65515000D01*
X128265600Y-65955000D02*
X136957600Y-65955000D01*
X115687600Y-65195000D02*
X123905600Y-65195000D01*
X115213600Y-65955000D02*
X123905600Y-65955000D01*
X128265600Y-65115000D02*
X136429600Y-65115000D01*
X115796600Y-65035000D02*
X123910600Y-65035000D01*
X115633600Y-65275000D02*
X123905600Y-65275000D01*
X115428600Y-65595000D02*
X123905600Y-65595000D01*
X128265600Y-65555000D02*
X136717600Y-65555000D01*
X115939600Y-64835000D02*
X123910600Y-64835000D01*
X128265600Y-65475000D02*
X136667600Y-65475000D01*
X115403600Y-65635000D02*
X123905600Y-65635000D01*
X128265600Y-65675000D02*
X136791600Y-65675000D01*
X128265600Y-65315000D02*
X136563600Y-65315000D01*
X115453600Y-65555000D02*
X123905600Y-65555000D01*
X115354600Y-65715000D02*
X123905600Y-65715000D01*
X115910600Y-64875000D02*
X123910600Y-64875000D01*
X115555600Y-65395000D02*
X123905600Y-65395000D01*
X128265600Y-65835000D02*
X136887600Y-65835000D01*
X128265600Y-65395000D02*
X136615600Y-65395000D01*
X115853600Y-64955000D02*
X123910600Y-64955000D01*
X115881600Y-64915000D02*
X123910600Y-64915000D01*
X115379600Y-65675000D02*
X123905600Y-65675000D01*
X128265600Y-65075000D02*
X136401600Y-65075000D01*
X128265600Y-65235000D02*
X136510600Y-65235000D01*
X128265600Y-65355000D02*
X136589600Y-65355000D01*
X115607600Y-65315000D02*
X123905600Y-65315000D01*
X115478600Y-65515000D02*
X123905600Y-65515000D01*
X115529600Y-65435000D02*
X123905600Y-65435000D01*
X115824600Y-64995000D02*
X123910600Y-64995000D01*
X115330600Y-65755000D02*
X123905600Y-65755000D01*
X115769600Y-65075000D02*
X123905600Y-65075000D01*
X128265600Y-65195000D02*
X136483600Y-65195000D01*
X115283600Y-65835000D02*
X123905600Y-65835000D01*
X128260600Y-65036000D02*
X136385600Y-65036000D01*
X128260600Y-64995000D02*
X136360600Y-64995000D01*
X128260600Y-64995000D02*
X136360600Y-64995000D01*
X128260600Y-64955000D02*
X136335600Y-64955000D01*
X128260600Y-64915000D02*
X136310600Y-64915000D01*
X128260600Y-64875000D02*
X136260600Y-64875000D01*
X128260600Y-64835000D02*
X136235600Y-64835000D01*
X128260600Y-64795000D02*
X136210600Y-64795000D01*
X128260600Y-64755000D02*
X136185600Y-64755000D01*
X128260600Y-64755000D02*
X136185600Y-64755000D01*
X128260600Y-64715000D02*
X136160600Y-64715000D01*
X128260600Y-64675000D02*
X136135600Y-64675000D01*
X128260600Y-64635000D02*
X136085600Y-64635000D01*
X128260600Y-64595000D02*
X136060600Y-64595000D01*
X128260600Y-64555000D02*
X136035600Y-64555000D01*
X128260600Y-64515000D02*
X136010600Y-64515000D01*
X128260600Y-64461000D02*
X135960600Y-64461000D01*
X128260600Y-64435000D02*
X135935600Y-64435000D01*
X128260600Y-64395000D02*
X135910600Y-64395000D01*
X128260600Y-64355000D02*
X135885600Y-64355000D01*
X128260600Y-64315000D02*
X135835600Y-64315000D01*
X128260600Y-64275000D02*
X135810600Y-64275000D01*
X128260600Y-64236000D02*
X135760600Y-64236000D01*
X128260600Y-64195000D02*
X135760600Y-64195000D01*
X128260600Y-64155000D02*
X135710600Y-64155000D01*
X128260600Y-64115000D02*
X135685600Y-64115000D01*
X128260600Y-64075000D02*
X135635600Y-64075000D01*
X128260600Y-64036000D02*
X135610600Y-64036000D01*
X128260600Y-63996000D02*
X135585600Y-63996000D01*
X128260600Y-63996000D02*
X135560600Y-63996000D01*
X128260600Y-63956000D02*
X135535600Y-63956000D01*
X128260600Y-63916000D02*
X135510600Y-63916000D01*
X128260600Y-63876000D02*
X135485600Y-63876000D01*
X128260600Y-63836000D02*
X135435600Y-63836000D01*
X128260600Y-68149000D02*
X137956600Y-68155000D01*
D13*
X101295200Y-82042000D02*
X101295200Y-59690000D01*
X101295200Y-59690000D02*
X104902000Y-59690000D01*
X104902000Y-59690000D02*
X104902000Y-82042000D01*
X104902000Y-82042000D02*
X101295200Y-82042000D01*
X101298600Y-80466000D02*
X104898600Y-80466000D01*
D12*
X138958400Y-45535800D02*
X138958400Y-46795800D01*
X138958400Y-52355800D02*
X138958400Y-51095800D01*
X142718400Y-45535800D02*
X138958400Y-45535800D01*
X144968400Y-52355800D02*
X138958400Y-52355800D01*
D14*
X111983333Y-94413523D02*
X111560000Y-93808761D01*
X111257619Y-94413523D02*
X111257619Y-93143523D01*
X111741428Y-93143523D01*
X111862380Y-93204000D01*
X111922857Y-93264476D01*
X111983333Y-93385428D01*
X111983333Y-93566857D01*
X111922857Y-93687809D01*
X111862380Y-93748285D01*
X111741428Y-93808761D01*
X111257619Y-93808761D01*
X113192857Y-94413523D02*
X112467142Y-94413523D01*
X112830000Y-94413523D02*
X112830000Y-93143523D01*
X112709047Y-93324952D01*
X112588095Y-93445904D01*
X112467142Y-93506380D01*
X112002333Y-100509523D02*
X111579000Y-99904761D01*
X111276619Y-100509523D02*
X111276619Y-99239523D01*
X111760428Y-99239523D01*
X111881380Y-99300000D01*
X111941857Y-99360476D01*
X112002333Y-99481428D01*
X112002333Y-99662857D01*
X111941857Y-99783809D01*
X111881380Y-99844285D01*
X111760428Y-99904761D01*
X111276619Y-99904761D01*
X112486142Y-99360476D02*
X112546619Y-99300000D01*
X112667571Y-99239523D01*
X112969952Y-99239523D01*
X113090904Y-99300000D01*
X113151380Y-99360476D01*
X113211857Y-99481428D01*
X113211857Y-99602380D01*
X113151380Y-99783809D01*
X112425666Y-100509523D01*
X113211857Y-100509523D01*
X111983333Y-106605523D02*
X111560000Y-106000761D01*
X111257619Y-106605523D02*
X111257619Y-105335523D01*
X111741428Y-105335523D01*
X111862380Y-105396000D01*
X111922857Y-105456476D01*
X111983333Y-105577428D01*
X111983333Y-105758857D01*
X111922857Y-105879809D01*
X111862380Y-105940285D01*
X111741428Y-106000761D01*
X111257619Y-106000761D01*
X112406666Y-105335523D02*
X113192857Y-105335523D01*
X112769523Y-105819333D01*
X112950952Y-105819333D01*
X113071904Y-105879809D01*
X113132380Y-105940285D01*
X113192857Y-106061238D01*
X113192857Y-106363619D01*
X113132380Y-106484571D01*
X113071904Y-106545047D01*
X112950952Y-106605523D01*
X112588095Y-106605523D01*
X112467142Y-106545047D01*
X112406666Y-106484571D01*
X121910323Y-100795666D02*
X121305561Y-101219000D01*
X121910323Y-101521380D02*
X120640323Y-101521380D01*
X120640323Y-101037571D01*
X120700800Y-100916619D01*
X120761276Y-100856142D01*
X120882228Y-100795666D01*
X121063657Y-100795666D01*
X121184609Y-100856142D01*
X121245085Y-100916619D01*
X121305561Y-101037571D01*
X121305561Y-101521380D01*
X121063657Y-99707095D02*
X121910323Y-99707095D01*
X120579847Y-100009476D02*
X121486990Y-100311857D01*
X121486990Y-99525666D01*
X128742923Y-100694066D02*
X128138161Y-101117400D01*
X128742923Y-101419780D02*
X127472923Y-101419780D01*
X127472923Y-100935971D01*
X127533400Y-100815019D01*
X127593876Y-100754542D01*
X127714828Y-100694066D01*
X127896257Y-100694066D01*
X128017209Y-100754542D01*
X128077685Y-100815019D01*
X128138161Y-100935971D01*
X128138161Y-101419780D01*
X127472923Y-99545019D02*
X127472923Y-100149780D01*
X128077685Y-100210257D01*
X128017209Y-100149780D01*
X127956733Y-100028828D01*
X127956733Y-99726447D01*
X128017209Y-99605495D01*
X128077685Y-99545019D01*
X128198638Y-99484542D01*
X128501019Y-99484542D01*
X128621971Y-99545019D01*
X128682447Y-99605495D01*
X128742923Y-99726447D01*
X128742923Y-100028828D01*
X128682447Y-100149780D01*
X128621971Y-100210257D01*
D15*
X140739833Y-61529142D02*
X140692214Y-61576761D01*
X140549357Y-61624380D01*
X140454119Y-61624380D01*
X140311261Y-61576761D01*
X140216023Y-61481523D01*
X140168404Y-61386285D01*
X140120785Y-61195809D01*
X140120785Y-61052952D01*
X140168404Y-60862476D01*
X140216023Y-60767238D01*
X140311261Y-60672000D01*
X140454119Y-60624380D01*
X140549357Y-60624380D01*
X140692214Y-60672000D01*
X140739833Y-60719619D01*
X141120785Y-60719619D02*
X141168404Y-60672000D01*
X141263642Y-60624380D01*
X141501738Y-60624380D01*
X141596976Y-60672000D01*
X141644595Y-60719619D01*
X141692214Y-60814857D01*
X141692214Y-60910095D01*
X141644595Y-61052952D01*
X141073166Y-61624380D01*
X141692214Y-61624380D01*
X147216904Y-61666380D02*
X147216904Y-60666380D01*
X147455000Y-60666380D01*
X147597857Y-60714000D01*
X147693095Y-60809238D01*
X147740714Y-60904476D01*
X147788333Y-61094952D01*
X147788333Y-61237809D01*
X147740714Y-61428285D01*
X147693095Y-61523523D01*
X147597857Y-61618761D01*
X147455000Y-61666380D01*
X147216904Y-61666380D01*
X148121666Y-60666380D02*
X148740714Y-60666380D01*
X148407380Y-61047333D01*
X148550238Y-61047333D01*
X148645476Y-61094952D01*
X148693095Y-61142571D01*
X148740714Y-61237809D01*
X148740714Y-61475904D01*
X148693095Y-61571142D01*
X148645476Y-61618761D01*
X148550238Y-61666380D01*
X148264523Y-61666380D01*
X148169285Y-61618761D01*
X148121666Y-61571142D01*
X152423904Y-61590180D02*
X152423904Y-60590180D01*
X152662000Y-60590180D01*
X152804857Y-60637800D01*
X152900095Y-60733038D01*
X152947714Y-60828276D01*
X152995333Y-61018752D01*
X152995333Y-61161609D01*
X152947714Y-61352085D01*
X152900095Y-61447323D01*
X152804857Y-61542561D01*
X152662000Y-61590180D01*
X152423904Y-61590180D01*
X153852476Y-60923514D02*
X153852476Y-61590180D01*
X153614380Y-60542561D02*
X153376285Y-61256847D01*
X153995333Y-61256847D01*
D14*
X90076866Y-58151485D02*
X89653533Y-58151485D01*
X89653533Y-58816723D02*
X89653533Y-57546723D01*
X90258295Y-57546723D01*
X91407342Y-58816723D02*
X90681628Y-58816723D01*
X91044485Y-58816723D02*
X91044485Y-57546723D01*
X90923533Y-57728152D01*
X90802580Y-57849104D01*
X90681628Y-57909580D01*
D15*
X77025714Y-46672380D02*
X77025714Y-45672380D01*
X77359047Y-46386666D01*
X77692380Y-45672380D01*
X77692380Y-46672380D01*
X78025714Y-45672380D02*
X78597142Y-45672380D01*
X78311428Y-46672380D02*
X78311428Y-45672380D01*
X78930476Y-46672380D02*
X78930476Y-45672380D01*
X78930476Y-46148571D02*
X79501904Y-46148571D01*
X79501904Y-46672380D02*
X79501904Y-45672380D01*
X80501904Y-46672380D02*
X79930476Y-46672380D01*
X80216190Y-46672380D02*
X80216190Y-45672380D01*
X80120952Y-45815238D01*
X80025714Y-45910476D01*
X79930476Y-45958095D01*
X160845714Y-46672380D02*
X160845714Y-45672380D01*
X161179047Y-46386666D01*
X161512380Y-45672380D01*
X161512380Y-46672380D01*
X161845714Y-45672380D02*
X162417142Y-45672380D01*
X162131428Y-46672380D02*
X162131428Y-45672380D01*
X162750476Y-46672380D02*
X162750476Y-45672380D01*
X162750476Y-46148571D02*
X163321904Y-46148571D01*
X163321904Y-46672380D02*
X163321904Y-45672380D01*
X163750476Y-45767619D02*
X163798095Y-45720000D01*
X163893333Y-45672380D01*
X164131428Y-45672380D01*
X164226666Y-45720000D01*
X164274285Y-45767619D01*
X164321904Y-45862857D01*
X164321904Y-45958095D01*
X164274285Y-46100952D01*
X163702857Y-46672380D01*
X164321904Y-46672380D01*
X77025714Y-115252380D02*
X77025714Y-114252380D01*
X77359047Y-114966666D01*
X77692380Y-114252380D01*
X77692380Y-115252380D01*
X78025714Y-114252380D02*
X78597142Y-114252380D01*
X78311428Y-115252380D02*
X78311428Y-114252380D01*
X78930476Y-115252380D02*
X78930476Y-114252380D01*
X78930476Y-114728571D02*
X79501904Y-114728571D01*
X79501904Y-115252380D02*
X79501904Y-114252380D01*
X79882857Y-114252380D02*
X80501904Y-114252380D01*
X80168571Y-114633333D01*
X80311428Y-114633333D01*
X80406666Y-114680952D01*
X80454285Y-114728571D01*
X80501904Y-114823809D01*
X80501904Y-115061904D01*
X80454285Y-115157142D01*
X80406666Y-115204761D01*
X80311428Y-115252380D01*
X80025714Y-115252380D01*
X79930476Y-115204761D01*
X79882857Y-115157142D01*
X160845714Y-115252380D02*
X160845714Y-114252380D01*
X161179047Y-114966666D01*
X161512380Y-114252380D01*
X161512380Y-115252380D01*
X161845714Y-114252380D02*
X162417142Y-114252380D01*
X162131428Y-115252380D02*
X162131428Y-114252380D01*
X162750476Y-115252380D02*
X162750476Y-114252380D01*
X162750476Y-114728571D02*
X163321904Y-114728571D01*
X163321904Y-115252380D02*
X163321904Y-114252380D01*
X164226666Y-114585714D02*
X164226666Y-115252380D01*
X163988571Y-114204761D02*
X163750476Y-114919047D01*
X164369523Y-114919047D01*
X147859761Y-65611619D02*
X147764523Y-65564000D01*
X147669285Y-65468761D01*
X147526428Y-65325904D01*
X147431190Y-65278285D01*
X147335952Y-65278285D01*
X147383571Y-65516380D02*
X147288333Y-65468761D01*
X147193095Y-65373523D01*
X147145476Y-65183047D01*
X147145476Y-64849714D01*
X147193095Y-64659238D01*
X147288333Y-64564000D01*
X147383571Y-64516380D01*
X147574047Y-64516380D01*
X147669285Y-64564000D01*
X147764523Y-64659238D01*
X147812142Y-64849714D01*
X147812142Y-65183047D01*
X147764523Y-65373523D01*
X147669285Y-65468761D01*
X147574047Y-65516380D01*
X147383571Y-65516380D01*
X148145476Y-64516380D02*
X148764523Y-64516380D01*
X148431190Y-64897333D01*
X148574047Y-64897333D01*
X148669285Y-64944952D01*
X148716904Y-64992571D01*
X148764523Y-65087809D01*
X148764523Y-65325904D01*
X148716904Y-65421142D01*
X148669285Y-65468761D01*
X148574047Y-65516380D01*
X148288333Y-65516380D01*
X148193095Y-65468761D01*
X148145476Y-65421142D01*
X153066761Y-65611619D02*
X152971523Y-65564000D01*
X152876285Y-65468761D01*
X152733428Y-65325904D01*
X152638190Y-65278285D01*
X152542952Y-65278285D01*
X152590571Y-65516380D02*
X152495333Y-65468761D01*
X152400095Y-65373523D01*
X152352476Y-65183047D01*
X152352476Y-64849714D01*
X152400095Y-64659238D01*
X152495333Y-64564000D01*
X152590571Y-64516380D01*
X152781047Y-64516380D01*
X152876285Y-64564000D01*
X152971523Y-64659238D01*
X153019142Y-64849714D01*
X153019142Y-65183047D01*
X152971523Y-65373523D01*
X152876285Y-65468761D01*
X152781047Y-65516380D01*
X152590571Y-65516380D01*
X153876285Y-64849714D02*
X153876285Y-65516380D01*
X153638190Y-64468761D02*
X153400095Y-65183047D01*
X154019142Y-65183047D01*
X147915333Y-57221380D02*
X147582000Y-56745190D01*
X147343904Y-57221380D02*
X147343904Y-56221380D01*
X147724857Y-56221380D01*
X147820095Y-56269000D01*
X147867714Y-56316619D01*
X147915333Y-56411857D01*
X147915333Y-56554714D01*
X147867714Y-56649952D01*
X147820095Y-56697571D01*
X147724857Y-56745190D01*
X147343904Y-56745190D01*
X148772476Y-56221380D02*
X148582000Y-56221380D01*
X148486761Y-56269000D01*
X148439142Y-56316619D01*
X148343904Y-56459476D01*
X148296285Y-56649952D01*
X148296285Y-57030904D01*
X148343904Y-57126142D01*
X148391523Y-57173761D01*
X148486761Y-57221380D01*
X148677238Y-57221380D01*
X148772476Y-57173761D01*
X148820095Y-57126142D01*
X148867714Y-57030904D01*
X148867714Y-56792809D01*
X148820095Y-56697571D01*
X148772476Y-56649952D01*
X148677238Y-56602333D01*
X148486761Y-56602333D01*
X148391523Y-56649952D01*
X148343904Y-56697571D01*
X148296285Y-56792809D01*
X140810333Y-65857380D02*
X140477000Y-65381190D01*
X140238904Y-65857380D02*
X140238904Y-64857380D01*
X140619857Y-64857380D01*
X140715095Y-64905000D01*
X140762714Y-64952619D01*
X140810333Y-65047857D01*
X140810333Y-65190714D01*
X140762714Y-65285952D01*
X140715095Y-65333571D01*
X140619857Y-65381190D01*
X140238904Y-65381190D01*
X141143666Y-64857380D02*
X141810333Y-64857380D01*
X141381761Y-65857380D01*
X152995333Y-57172380D02*
X152662000Y-56696190D01*
X152423904Y-57172380D02*
X152423904Y-56172380D01*
X152804857Y-56172380D01*
X152900095Y-56220000D01*
X152947714Y-56267619D01*
X152995333Y-56362857D01*
X152995333Y-56505714D01*
X152947714Y-56600952D01*
X152900095Y-56648571D01*
X152804857Y-56696190D01*
X152423904Y-56696190D01*
X153566761Y-56600952D02*
X153471523Y-56553333D01*
X153423904Y-56505714D01*
X153376285Y-56410476D01*
X153376285Y-56362857D01*
X153423904Y-56267619D01*
X153471523Y-56220000D01*
X153566761Y-56172380D01*
X153757238Y-56172380D01*
X153852476Y-56220000D01*
X153900095Y-56267619D01*
X153947714Y-56362857D01*
X153947714Y-56410476D01*
X153900095Y-56505714D01*
X153852476Y-56553333D01*
X153757238Y-56600952D01*
X153566761Y-56600952D01*
X153471523Y-56648571D01*
X153423904Y-56696190D01*
X153376285Y-56791428D01*
X153376285Y-56981904D01*
X153423904Y-57077142D01*
X153471523Y-57124761D01*
X153566761Y-57172380D01*
X153757238Y-57172380D01*
X153852476Y-57124761D01*
X153900095Y-57077142D01*
X153947714Y-56981904D01*
X153947714Y-56791428D01*
X153900095Y-56696190D01*
X153852476Y-56648571D01*
X153757238Y-56600952D01*
X150201333Y-70556380D02*
X149868000Y-70080190D01*
X149629904Y-70556380D02*
X149629904Y-69556380D01*
X150010857Y-69556380D01*
X150106095Y-69604000D01*
X150153714Y-69651619D01*
X150201333Y-69746857D01*
X150201333Y-69889714D01*
X150153714Y-69984952D01*
X150106095Y-70032571D01*
X150010857Y-70080190D01*
X149629904Y-70080190D01*
X150677523Y-70556380D02*
X150868000Y-70556380D01*
X150963238Y-70508761D01*
X151010857Y-70461142D01*
X151106095Y-70318285D01*
X151153714Y-70127809D01*
X151153714Y-69746857D01*
X151106095Y-69651619D01*
X151058476Y-69604000D01*
X150963238Y-69556380D01*
X150772761Y-69556380D01*
X150677523Y-69604000D01*
X150629904Y-69651619D01*
X150582285Y-69746857D01*
X150582285Y-69984952D01*
X150629904Y-70080190D01*
X150677523Y-70127809D01*
X150772761Y-70175428D01*
X150963238Y-70175428D01*
X151058476Y-70127809D01*
X151106095Y-70080190D01*
X151153714Y-69984952D01*
D14*
X125431247Y-88096876D02*
X125310295Y-88036400D01*
X125189342Y-87915447D01*
X125007914Y-87734019D01*
X124886961Y-87673542D01*
X124766009Y-87673542D01*
X124826485Y-87975923D02*
X124705533Y-87915447D01*
X124584580Y-87794495D01*
X124524104Y-87552590D01*
X124524104Y-87129257D01*
X124584580Y-86887352D01*
X124705533Y-86766400D01*
X124826485Y-86705923D01*
X125068390Y-86705923D01*
X125189342Y-86766400D01*
X125310295Y-86887352D01*
X125370771Y-87129257D01*
X125370771Y-87552590D01*
X125310295Y-87794495D01*
X125189342Y-87915447D01*
X125068390Y-87975923D01*
X124826485Y-87975923D01*
X125854580Y-86826876D02*
X125915057Y-86766400D01*
X126036009Y-86705923D01*
X126338390Y-86705923D01*
X126459342Y-86766400D01*
X126519819Y-86826876D01*
X126580295Y-86947828D01*
X126580295Y-87068780D01*
X126519819Y-87250209D01*
X125794104Y-87975923D01*
X126580295Y-87975923D01*
X149739047Y-92389476D02*
X149618095Y-92329000D01*
X149497142Y-92208047D01*
X149315714Y-92026619D01*
X149194761Y-91966142D01*
X149073809Y-91966142D01*
X149134285Y-92268523D02*
X149013333Y-92208047D01*
X148892380Y-92087095D01*
X148831904Y-91845190D01*
X148831904Y-91421857D01*
X148892380Y-91179952D01*
X149013333Y-91059000D01*
X149134285Y-90998523D01*
X149376190Y-90998523D01*
X149497142Y-91059000D01*
X149618095Y-91179952D01*
X149678571Y-91421857D01*
X149678571Y-91845190D01*
X149618095Y-92087095D01*
X149497142Y-92208047D01*
X149376190Y-92268523D01*
X149134285Y-92268523D01*
X150888095Y-92268523D02*
X150162380Y-92268523D01*
X150525238Y-92268523D02*
X150525238Y-90998523D01*
X150404285Y-91179952D01*
X150283333Y-91300904D01*
X150162380Y-91361380D01*
X94884723Y-85359723D02*
X94461390Y-84754961D01*
X94159009Y-85359723D02*
X94159009Y-84089723D01*
X94642819Y-84089723D01*
X94763771Y-84150200D01*
X94824247Y-84210676D01*
X94884723Y-84331628D01*
X94884723Y-84513057D01*
X94824247Y-84634009D01*
X94763771Y-84694485D01*
X94642819Y-84754961D01*
X94159009Y-84754961D01*
X95247580Y-84089723D02*
X95973295Y-84089723D01*
X95610438Y-85359723D02*
X95610438Y-84089723D01*
X97061866Y-85359723D02*
X96336152Y-85359723D01*
X96699009Y-85359723D02*
X96699009Y-84089723D01*
X96578057Y-84271152D01*
X96457104Y-84392104D01*
X96336152Y-84452580D01*
D15*
X89876333Y-50572942D02*
X89828714Y-50620561D01*
X89685857Y-50668180D01*
X89590619Y-50668180D01*
X89447761Y-50620561D01*
X89352523Y-50525323D01*
X89304904Y-50430085D01*
X89257285Y-50239609D01*
X89257285Y-50096752D01*
X89304904Y-49906276D01*
X89352523Y-49811038D01*
X89447761Y-49715800D01*
X89590619Y-49668180D01*
X89685857Y-49668180D01*
X89828714Y-49715800D01*
X89876333Y-49763419D01*
X90209666Y-49668180D02*
X90828714Y-49668180D01*
X90495380Y-50049133D01*
X90638238Y-50049133D01*
X90733476Y-50096752D01*
X90781095Y-50144371D01*
X90828714Y-50239609D01*
X90828714Y-50477704D01*
X90781095Y-50572942D01*
X90733476Y-50620561D01*
X90638238Y-50668180D01*
X90352523Y-50668180D01*
X90257285Y-50620561D01*
X90209666Y-50572942D01*
X129017804Y-48153580D02*
X129017804Y-47153580D01*
X129255900Y-47153580D01*
X129398757Y-47201200D01*
X129493995Y-47296438D01*
X129541614Y-47391676D01*
X129589233Y-47582152D01*
X129589233Y-47725009D01*
X129541614Y-47915485D01*
X129493995Y-48010723D01*
X129398757Y-48105961D01*
X129255900Y-48153580D01*
X129017804Y-48153580D01*
X129970185Y-47248819D02*
X130017804Y-47201200D01*
X130113042Y-47153580D01*
X130351138Y-47153580D01*
X130446376Y-47201200D01*
X130493995Y-47248819D01*
X130541614Y-47344057D01*
X130541614Y-47439295D01*
X130493995Y-47582152D01*
X129922566Y-48153580D01*
X130541614Y-48153580D01*
X103274904Y-48128180D02*
X103274904Y-47128180D01*
X103513000Y-47128180D01*
X103655857Y-47175800D01*
X103751095Y-47271038D01*
X103798714Y-47366276D01*
X103846333Y-47556752D01*
X103846333Y-47699609D01*
X103798714Y-47890085D01*
X103751095Y-47985323D01*
X103655857Y-48080561D01*
X103513000Y-48128180D01*
X103274904Y-48128180D01*
X104751095Y-47128180D02*
X104274904Y-47128180D01*
X104227285Y-47604371D01*
X104274904Y-47556752D01*
X104370142Y-47509133D01*
X104608238Y-47509133D01*
X104703476Y-47556752D01*
X104751095Y-47604371D01*
X104798714Y-47699609D01*
X104798714Y-47937704D01*
X104751095Y-48032942D01*
X104703476Y-48080561D01*
X104608238Y-48128180D01*
X104370142Y-48128180D01*
X104274904Y-48080561D01*
X104227285Y-48032942D01*
X105814904Y-51455580D02*
X105814904Y-50455580D01*
X106053000Y-50455580D01*
X106195857Y-50503200D01*
X106291095Y-50598438D01*
X106338714Y-50693676D01*
X106386333Y-50884152D01*
X106386333Y-51027009D01*
X106338714Y-51217485D01*
X106291095Y-51312723D01*
X106195857Y-51407961D01*
X106053000Y-51455580D01*
X105814904Y-51455580D01*
X107243476Y-50455580D02*
X107053000Y-50455580D01*
X106957761Y-50503200D01*
X106910142Y-50550819D01*
X106814904Y-50693676D01*
X106767285Y-50884152D01*
X106767285Y-51265104D01*
X106814904Y-51360342D01*
X106862523Y-51407961D01*
X106957761Y-51455580D01*
X107148238Y-51455580D01*
X107243476Y-51407961D01*
X107291095Y-51360342D01*
X107338714Y-51265104D01*
X107338714Y-51027009D01*
X107291095Y-50931771D01*
X107243476Y-50884152D01*
X107148238Y-50836533D01*
X106957761Y-50836533D01*
X106862523Y-50884152D01*
X106814904Y-50931771D01*
X106767285Y-51027009D01*
X137691904Y-56408580D02*
X137691904Y-55408580D01*
X137930000Y-55408580D01*
X138072857Y-55456200D01*
X138168095Y-55551438D01*
X138215714Y-55646676D01*
X138263333Y-55837152D01*
X138263333Y-55980009D01*
X138215714Y-56170485D01*
X138168095Y-56265723D01*
X138072857Y-56360961D01*
X137930000Y-56408580D01*
X137691904Y-56408580D01*
X138596666Y-55408580D02*
X139263333Y-55408580D01*
X138834761Y-56408580D01*
X153255742Y-53462180D02*
X152922409Y-52985990D01*
X152684314Y-53462180D02*
X152684314Y-52462180D01*
X153065266Y-52462180D01*
X153160504Y-52509800D01*
X153208123Y-52557419D01*
X153255742Y-52652657D01*
X153255742Y-52795514D01*
X153208123Y-52890752D01*
X153160504Y-52938371D01*
X153065266Y-52985990D01*
X152684314Y-52985990D01*
X154208123Y-53462180D02*
X153636695Y-53462180D01*
X153922409Y-53462180D02*
X153922409Y-52462180D01*
X153827171Y-52605038D01*
X153731933Y-52700276D01*
X153636695Y-52747895D01*
X154827171Y-52462180D02*
X154922409Y-52462180D01*
X155017647Y-52509800D01*
X155065266Y-52557419D01*
X155112885Y-52652657D01*
X155160504Y-52843133D01*
X155160504Y-53081228D01*
X155112885Y-53271704D01*
X155065266Y-53366942D01*
X155017647Y-53414561D01*
X154922409Y-53462180D01*
X154827171Y-53462180D01*
X154731933Y-53414561D01*
X154684314Y-53366942D01*
X154636695Y-53271704D01*
X154589076Y-53081228D01*
X154589076Y-52843133D01*
X154636695Y-52652657D01*
X154684314Y-52557419D01*
X154731933Y-52509800D01*
X154827171Y-52462180D01*
X148429742Y-53487580D02*
X148096409Y-53011390D01*
X147858314Y-53487580D02*
X147858314Y-52487580D01*
X148239266Y-52487580D01*
X148334504Y-52535200D01*
X148382123Y-52582819D01*
X148429742Y-52678057D01*
X148429742Y-52820914D01*
X148382123Y-52916152D01*
X148334504Y-52963771D01*
X148239266Y-53011390D01*
X147858314Y-53011390D01*
X149382123Y-53487580D02*
X148810695Y-53487580D01*
X149096409Y-53487580D02*
X149096409Y-52487580D01*
X149001171Y-52630438D01*
X148905933Y-52725676D01*
X148810695Y-52773295D01*
X149763076Y-52582819D02*
X149810695Y-52535200D01*
X149905933Y-52487580D01*
X150144028Y-52487580D01*
X150239266Y-52535200D01*
X150286885Y-52582819D01*
X150334504Y-52678057D01*
X150334504Y-52773295D01*
X150286885Y-52916152D01*
X149715457Y-53487580D01*
X150334504Y-53487580D01*
X127995442Y-51455580D02*
X127662109Y-50979390D01*
X127424014Y-51455580D02*
X127424014Y-50455580D01*
X127804966Y-50455580D01*
X127900204Y-50503200D01*
X127947823Y-50550819D01*
X127995442Y-50646057D01*
X127995442Y-50788914D01*
X127947823Y-50884152D01*
X127900204Y-50931771D01*
X127804966Y-50979390D01*
X127424014Y-50979390D01*
X128947823Y-51455580D02*
X128376395Y-51455580D01*
X128662109Y-51455580D02*
X128662109Y-50455580D01*
X128566871Y-50598438D01*
X128471633Y-50693676D01*
X128376395Y-50741295D01*
X129804966Y-50788914D02*
X129804966Y-51455580D01*
X129566871Y-50407961D02*
X129328776Y-51122247D01*
X129947823Y-51122247D01*
X152227042Y-44991280D02*
X151893709Y-44515090D01*
X151655614Y-44991280D02*
X151655614Y-43991280D01*
X152036566Y-43991280D01*
X152131804Y-44038900D01*
X152179423Y-44086519D01*
X152227042Y-44181757D01*
X152227042Y-44324614D01*
X152179423Y-44419852D01*
X152131804Y-44467471D01*
X152036566Y-44515090D01*
X151655614Y-44515090D01*
X153179423Y-44991280D02*
X152607995Y-44991280D01*
X152893709Y-44991280D02*
X152893709Y-43991280D01*
X152798471Y-44134138D01*
X152703233Y-44229376D01*
X152607995Y-44276995D01*
X154084185Y-43991280D02*
X153607995Y-43991280D01*
X153560376Y-44467471D01*
X153607995Y-44419852D01*
X153703233Y-44372233D01*
X153941328Y-44372233D01*
X154036566Y-44419852D01*
X154084185Y-44467471D01*
X154131804Y-44562709D01*
X154131804Y-44800804D01*
X154084185Y-44896042D01*
X154036566Y-44943661D01*
X153941328Y-44991280D01*
X153703233Y-44991280D01*
X153607995Y-44943661D01*
X153560376Y-44896042D01*
X153674842Y-48344080D02*
X153341509Y-47867890D01*
X153103414Y-48344080D02*
X153103414Y-47344080D01*
X153484366Y-47344080D01*
X153579604Y-47391700D01*
X153627223Y-47439319D01*
X153674842Y-47534557D01*
X153674842Y-47677414D01*
X153627223Y-47772652D01*
X153579604Y-47820271D01*
X153484366Y-47867890D01*
X153103414Y-47867890D01*
X154627223Y-48344080D02*
X154055795Y-48344080D01*
X154341509Y-48344080D02*
X154341509Y-47344080D01*
X154246271Y-47486938D01*
X154151033Y-47582176D01*
X154055795Y-47629795D01*
X155484366Y-47344080D02*
X155293890Y-47344080D01*
X155198652Y-47391700D01*
X155151033Y-47439319D01*
X155055795Y-47582176D01*
X155008176Y-47772652D01*
X155008176Y-48153604D01*
X155055795Y-48248842D01*
X155103414Y-48296461D01*
X155198652Y-48344080D01*
X155389128Y-48344080D01*
X155484366Y-48296461D01*
X155531985Y-48248842D01*
X155579604Y-48153604D01*
X155579604Y-47915509D01*
X155531985Y-47820271D01*
X155484366Y-47772652D01*
X155389128Y-47725033D01*
X155198652Y-47725033D01*
X155103414Y-47772652D01*
X155055795Y-47820271D01*
X155008176Y-47915509D01*
X89019142Y-48178980D02*
X88685809Y-47702790D01*
X88447714Y-48178980D02*
X88447714Y-47178980D01*
X88828666Y-47178980D01*
X88923904Y-47226600D01*
X88971523Y-47274219D01*
X89019142Y-47369457D01*
X89019142Y-47512314D01*
X88971523Y-47607552D01*
X88923904Y-47655171D01*
X88828666Y-47702790D01*
X88447714Y-47702790D01*
X89971523Y-48178980D02*
X89400095Y-48178980D01*
X89685809Y-48178980D02*
X89685809Y-47178980D01*
X89590571Y-47321838D01*
X89495333Y-47417076D01*
X89400095Y-47464695D01*
X90304857Y-47178980D02*
X90923904Y-47178980D01*
X90590571Y-47559933D01*
X90733428Y-47559933D01*
X90828666Y-47607552D01*
X90876285Y-47655171D01*
X90923904Y-47750409D01*
X90923904Y-47988504D01*
X90876285Y-48083742D01*
X90828666Y-48131361D01*
X90733428Y-48178980D01*
X90447714Y-48178980D01*
X90352476Y-48131361D01*
X90304857Y-48083742D01*
X89095342Y-53436780D02*
X88762009Y-52960590D01*
X88523914Y-53436780D02*
X88523914Y-52436780D01*
X88904866Y-52436780D01*
X89000104Y-52484400D01*
X89047723Y-52532019D01*
X89095342Y-52627257D01*
X89095342Y-52770114D01*
X89047723Y-52865352D01*
X89000104Y-52912971D01*
X88904866Y-52960590D01*
X88523914Y-52960590D01*
X90047723Y-53436780D02*
X89476295Y-53436780D01*
X89762009Y-53436780D02*
X89762009Y-52436780D01*
X89666771Y-52579638D01*
X89571533Y-52674876D01*
X89476295Y-52722495D01*
X91000104Y-53436780D02*
X90428676Y-53436780D01*
X90714390Y-53436780D02*
X90714390Y-52436780D01*
X90619152Y-52579638D01*
X90523914Y-52674876D01*
X90428676Y-52722495D01*
X136552742Y-61811666D02*
X136600361Y-61859285D01*
X136647980Y-62002142D01*
X136647980Y-62097380D01*
X136600361Y-62240238D01*
X136505123Y-62335476D01*
X136409885Y-62383095D01*
X136219409Y-62430714D01*
X136076552Y-62430714D01*
X135886076Y-62383095D01*
X135790838Y-62335476D01*
X135695600Y-62240238D01*
X135647980Y-62097380D01*
X135647980Y-62002142D01*
X135695600Y-61859285D01*
X135743219Y-61811666D01*
X136647980Y-60859285D02*
X136647980Y-61430714D01*
X136647980Y-61145000D02*
X135647980Y-61145000D01*
X135790838Y-61240238D01*
X135886076Y-61335476D01*
X135933695Y-61430714D01*
X99105980Y-71604095D02*
X98105980Y-71604095D01*
X98105980Y-71366000D01*
X98153600Y-71223142D01*
X98248838Y-71127904D01*
X98344076Y-71080285D01*
X98534552Y-71032666D01*
X98677409Y-71032666D01*
X98867885Y-71080285D01*
X98963123Y-71127904D01*
X99058361Y-71223142D01*
X99105980Y-71366000D01*
X99105980Y-71604095D01*
X99105980Y-70080285D02*
X99105980Y-70651714D01*
X99105980Y-70366000D02*
X98105980Y-70366000D01*
X98248838Y-70461238D01*
X98344076Y-70556476D01*
X98391695Y-70651714D01*
X102020028Y-77396952D02*
X102020028Y-76635047D01*
X102400980Y-77016000D02*
X101639076Y-77016000D01*
X102020028Y-61896952D02*
X102020028Y-61135047D01*
X102181933Y-71406476D02*
X102181933Y-71025523D01*
X102410504Y-71482666D02*
X101610504Y-71216000D01*
X102410504Y-70949333D01*
X102334314Y-70225523D02*
X102372409Y-70263619D01*
X102410504Y-70377904D01*
X102410504Y-70454095D01*
X102372409Y-70568380D01*
X102296219Y-70644571D01*
X102220028Y-70682666D01*
X102067647Y-70720761D01*
X101953361Y-70720761D01*
X101800980Y-70682666D01*
X101724790Y-70644571D01*
X101648600Y-70568380D01*
X101610504Y-70454095D01*
X101610504Y-70377904D01*
X101648600Y-70263619D01*
X101686695Y-70225523D01*
X140106495Y-52898180D02*
X140106495Y-53707704D01*
X140154114Y-53802942D01*
X140201733Y-53850561D01*
X140296971Y-53898180D01*
X140487447Y-53898180D01*
X140582685Y-53850561D01*
X140630304Y-53802942D01*
X140677923Y-53707704D01*
X140677923Y-52898180D01*
X141677923Y-53898180D02*
X141106495Y-53898180D01*
X141392209Y-53898180D02*
X141392209Y-52898180D01*
X141296971Y-53041038D01*
X141201733Y-53136276D01*
X141106495Y-53183895D01*
M02*
