G04 #@! TF.GenerationSoftware,KiCad,Pcbnew,(5.1.5)-3*
G04 #@! TF.CreationDate,2020-06-10T18:28:01-04:00*
G04 #@! TF.ProjectId,DC-Supply-170V-v1,44432d53-7570-4706-9c79-2d313730562d,rev?*
G04 #@! TF.SameCoordinates,Original*
G04 #@! TF.FileFunction,Soldermask,Top*
G04 #@! TF.FilePolarity,Negative*
%FSLAX46Y46*%
G04 Gerber Fmt 4.6, Leading zero omitted, Abs format (unit mm)*
G04 Created by KiCad (PCBNEW (5.1.5)-3) date 2020-06-10 18:28:01*
%MOMM*%
%LPD*%
G04 APERTURE LIST*
%ADD10C,0.100000*%
G04 APERTURE END LIST*
D10*
G36*
X163637996Y-110746324D02*
G01*
X164310570Y-111024913D01*
X164915871Y-111429362D01*
X165430638Y-111944129D01*
X165835087Y-112549430D01*
X166113676Y-113222004D01*
X166255700Y-113936005D01*
X166255700Y-114663995D01*
X166113676Y-115377996D01*
X165835087Y-116050570D01*
X165430638Y-116655871D01*
X164915871Y-117170638D01*
X164310570Y-117575087D01*
X163637996Y-117853676D01*
X162923995Y-117995700D01*
X162196005Y-117995700D01*
X161482004Y-117853676D01*
X160809430Y-117575087D01*
X160204129Y-117170638D01*
X159689362Y-116655871D01*
X159284913Y-116050570D01*
X159006324Y-115377996D01*
X158864300Y-114663995D01*
X158864300Y-113936005D01*
X159006324Y-113222004D01*
X159284913Y-112549430D01*
X159689362Y-111944129D01*
X160204129Y-111429362D01*
X160809430Y-111024913D01*
X161482004Y-110746324D01*
X162196005Y-110604300D01*
X162923995Y-110604300D01*
X163637996Y-110746324D01*
G37*
G36*
X79817996Y-110746324D02*
G01*
X80490570Y-111024913D01*
X81095871Y-111429362D01*
X81610638Y-111944129D01*
X82015087Y-112549430D01*
X82293676Y-113222004D01*
X82435700Y-113936005D01*
X82435700Y-114663995D01*
X82293676Y-115377996D01*
X82015087Y-116050570D01*
X81610638Y-116655871D01*
X81095871Y-117170638D01*
X80490570Y-117575087D01*
X79817996Y-117853676D01*
X79103995Y-117995700D01*
X78376005Y-117995700D01*
X77662004Y-117853676D01*
X76989430Y-117575087D01*
X76384129Y-117170638D01*
X75869362Y-116655871D01*
X75464913Y-116050570D01*
X75186324Y-115377996D01*
X75044300Y-114663995D01*
X75044300Y-113936005D01*
X75186324Y-113222004D01*
X75464913Y-112549430D01*
X75869362Y-111944129D01*
X76384129Y-111429362D01*
X76989430Y-111024913D01*
X77662004Y-110746324D01*
X78376005Y-110604300D01*
X79103995Y-110604300D01*
X79817996Y-110746324D01*
G37*
G36*
X101891200Y-115734200D02*
G01*
X99784800Y-115734200D01*
X99784800Y-113627800D01*
X101891200Y-113627800D01*
X101891200Y-115734200D01*
G37*
G36*
X103685207Y-113668274D02*
G01*
X103876877Y-113747666D01*
X104049376Y-113862926D01*
X104196074Y-114009624D01*
X104311334Y-114182123D01*
X104390726Y-114373793D01*
X104431200Y-114577269D01*
X104431200Y-114784731D01*
X104390726Y-114988207D01*
X104311334Y-115179877D01*
X104196074Y-115352376D01*
X104049376Y-115499074D01*
X103876877Y-115614334D01*
X103685207Y-115693726D01*
X103481731Y-115734200D01*
X103274269Y-115734200D01*
X103070793Y-115693726D01*
X102879123Y-115614334D01*
X102706624Y-115499074D01*
X102559926Y-115352376D01*
X102444666Y-115179877D01*
X102365274Y-114988207D01*
X102324800Y-114784731D01*
X102324800Y-114577269D01*
X102365274Y-114373793D01*
X102444666Y-114182123D01*
X102559926Y-114009624D01*
X102706624Y-113862926D01*
X102879123Y-113747666D01*
X103070793Y-113668274D01*
X103274269Y-113627800D01*
X103481731Y-113627800D01*
X103685207Y-113668274D01*
G37*
G36*
X114998200Y-110038200D02*
G01*
X112991800Y-110038200D01*
X112991800Y-107131800D01*
X114998200Y-107131800D01*
X114998200Y-110038200D01*
G37*
G36*
X111398200Y-110038200D02*
G01*
X109391800Y-110038200D01*
X109391800Y-107131800D01*
X111398200Y-107131800D01*
X111398200Y-110038200D01*
G37*
G36*
X103685207Y-107572274D02*
G01*
X103876877Y-107651666D01*
X104049376Y-107766926D01*
X104196074Y-107913624D01*
X104311334Y-108086123D01*
X104390726Y-108277793D01*
X104431200Y-108481269D01*
X104431200Y-108688731D01*
X104390726Y-108892207D01*
X104311334Y-109083877D01*
X104196074Y-109256376D01*
X104049376Y-109403074D01*
X103876877Y-109518334D01*
X103685207Y-109597726D01*
X103481731Y-109638200D01*
X103274269Y-109638200D01*
X103070793Y-109597726D01*
X102879123Y-109518334D01*
X102706624Y-109403074D01*
X102559926Y-109256376D01*
X102444666Y-109083877D01*
X102365274Y-108892207D01*
X102324800Y-108688731D01*
X102324800Y-108481269D01*
X102365274Y-108277793D01*
X102444666Y-108086123D01*
X102559926Y-107913624D01*
X102706624Y-107766926D01*
X102879123Y-107651666D01*
X103070793Y-107572274D01*
X103274269Y-107531800D01*
X103481731Y-107531800D01*
X103685207Y-107572274D01*
G37*
G36*
X101891200Y-109638200D02*
G01*
X99784800Y-109638200D01*
X99784800Y-107531800D01*
X101891200Y-107531800D01*
X101891200Y-109638200D01*
G37*
G36*
X161237711Y-104837061D02*
G01*
X161465716Y-104882413D01*
X161733822Y-104993467D01*
X161733823Y-104993468D01*
X161975111Y-105154691D01*
X162180309Y-105359889D01*
X162288035Y-105521113D01*
X162341533Y-105601178D01*
X162452587Y-105869284D01*
X162509200Y-106153903D01*
X162509200Y-106444097D01*
X162452587Y-106728716D01*
X162397059Y-106862770D01*
X162341533Y-106996822D01*
X162341532Y-106996823D01*
X162180309Y-107238111D01*
X161975111Y-107443309D01*
X161842674Y-107531800D01*
X161733822Y-107604533D01*
X161620033Y-107651666D01*
X161465716Y-107715587D01*
X161237711Y-107760939D01*
X161181098Y-107772200D01*
X160890902Y-107772200D01*
X160834289Y-107760939D01*
X160606284Y-107715587D01*
X160451967Y-107651666D01*
X160338178Y-107604533D01*
X160229326Y-107531800D01*
X160096889Y-107443309D01*
X159891691Y-107238111D01*
X159730468Y-106996823D01*
X159730467Y-106996822D01*
X159674941Y-106862770D01*
X159619413Y-106728716D01*
X159562800Y-106444097D01*
X159562800Y-106153903D01*
X159619413Y-105869284D01*
X159730467Y-105601178D01*
X159783965Y-105521113D01*
X159891691Y-105359889D01*
X160096889Y-105154691D01*
X160338177Y-104993468D01*
X160338178Y-104993467D01*
X160472230Y-104937941D01*
X160606284Y-104882413D01*
X160834289Y-104837061D01*
X160890902Y-104825800D01*
X161181098Y-104825800D01*
X161237711Y-104837061D01*
G37*
G36*
X161237711Y-101027061D02*
G01*
X161465716Y-101072413D01*
X161733822Y-101183467D01*
X161733823Y-101183468D01*
X161975111Y-101344691D01*
X162180309Y-101549889D01*
X162226294Y-101618711D01*
X162341533Y-101791178D01*
X162372111Y-101865000D01*
X162452587Y-102059284D01*
X162509200Y-102343903D01*
X162509200Y-102634097D01*
X162452587Y-102918716D01*
X162423939Y-102987877D01*
X162341533Y-103186822D01*
X162341532Y-103186823D01*
X162180309Y-103428111D01*
X161975111Y-103633309D01*
X161813887Y-103741035D01*
X161733822Y-103794533D01*
X161599770Y-103850059D01*
X161465716Y-103905587D01*
X161237711Y-103950939D01*
X161181098Y-103962200D01*
X160890902Y-103962200D01*
X160834289Y-103950939D01*
X160606284Y-103905587D01*
X160472230Y-103850059D01*
X160338178Y-103794533D01*
X160258113Y-103741035D01*
X160096889Y-103633309D01*
X159891691Y-103428111D01*
X159730468Y-103186823D01*
X159730467Y-103186822D01*
X159648061Y-102987877D01*
X159619413Y-102918716D01*
X159562800Y-102634097D01*
X159562800Y-102343903D01*
X159619413Y-102059284D01*
X159699889Y-101865000D01*
X159730467Y-101791178D01*
X159845706Y-101618711D01*
X159891691Y-101549889D01*
X160096889Y-101344691D01*
X160338177Y-101183468D01*
X160338178Y-101183467D01*
X160472230Y-101127941D01*
X160606284Y-101072413D01*
X160834289Y-101027061D01*
X160890902Y-101015800D01*
X161181098Y-101015800D01*
X161237711Y-101027061D01*
G37*
G36*
X115017200Y-103942200D02*
G01*
X113010800Y-103942200D01*
X113010800Y-101035800D01*
X115017200Y-101035800D01*
X115017200Y-103942200D01*
G37*
G36*
X111417200Y-103942200D02*
G01*
X109410800Y-103942200D01*
X109410800Y-101035800D01*
X111417200Y-101035800D01*
X111417200Y-103942200D01*
G37*
G36*
X101891200Y-103542200D02*
G01*
X99784800Y-103542200D01*
X99784800Y-101435800D01*
X101891200Y-101435800D01*
X101891200Y-103542200D01*
G37*
G36*
X103685207Y-101476274D02*
G01*
X103876877Y-101555666D01*
X104049376Y-101670926D01*
X104196074Y-101817624D01*
X104311334Y-101990123D01*
X104390726Y-102181793D01*
X104431200Y-102385269D01*
X104431200Y-102592731D01*
X104390726Y-102796207D01*
X104311334Y-102987877D01*
X104196074Y-103160376D01*
X104049376Y-103307074D01*
X103876877Y-103422334D01*
X103685207Y-103501726D01*
X103481731Y-103542200D01*
X103274269Y-103542200D01*
X103070793Y-103501726D01*
X102879123Y-103422334D01*
X102706624Y-103307074D01*
X102559926Y-103160376D01*
X102444666Y-102987877D01*
X102365274Y-102796207D01*
X102324800Y-102592731D01*
X102324800Y-102385269D01*
X102365274Y-102181793D01*
X102444666Y-101990123D01*
X102559926Y-101817624D01*
X102706624Y-101670926D01*
X102879123Y-101555666D01*
X103070793Y-101476274D01*
X103274269Y-101435800D01*
X103481731Y-101435800D01*
X103685207Y-101476274D01*
G37*
G36*
X124094000Y-102739600D02*
G01*
X122387600Y-102739600D01*
X122387600Y-101033200D01*
X124094000Y-101033200D01*
X124094000Y-102739600D01*
G37*
G36*
X126913400Y-102739600D02*
G01*
X125207000Y-102739600D01*
X125207000Y-101033200D01*
X126913400Y-101033200D01*
X126913400Y-102739600D01*
G37*
G36*
X133595592Y-99700995D02*
G01*
X133796361Y-99784157D01*
X133977049Y-99904889D01*
X134130711Y-100058551D01*
X134251443Y-100239239D01*
X134334605Y-100440008D01*
X134377000Y-100653144D01*
X134377000Y-100870456D01*
X134334605Y-101083592D01*
X134251443Y-101284361D01*
X134130711Y-101465049D01*
X133977049Y-101618711D01*
X133796361Y-101739443D01*
X133595592Y-101822605D01*
X133382456Y-101865000D01*
X133165144Y-101865000D01*
X132952008Y-101822605D01*
X132751239Y-101739443D01*
X132570551Y-101618711D01*
X132416889Y-101465049D01*
X132296157Y-101284361D01*
X132212995Y-101083592D01*
X132170600Y-100870456D01*
X132170600Y-100653144D01*
X132212995Y-100440008D01*
X132296157Y-100239239D01*
X132416889Y-100058551D01*
X132570551Y-99904889D01*
X132751239Y-99784157D01*
X132952008Y-99700995D01*
X133165144Y-99658600D01*
X133382456Y-99658600D01*
X133595592Y-99700995D01*
G37*
G36*
X126913400Y-100439600D02*
G01*
X125207000Y-100439600D01*
X125207000Y-98733200D01*
X126913400Y-98733200D01*
X126913400Y-100439600D01*
G37*
G36*
X124094000Y-100439600D02*
G01*
X122387600Y-100439600D01*
X122387600Y-98733200D01*
X124094000Y-98733200D01*
X124094000Y-100439600D01*
G37*
G36*
X150503528Y-96343660D02*
G01*
X150858987Y-96490896D01*
X151178893Y-96704650D01*
X151450950Y-96976707D01*
X151664704Y-97296613D01*
X151811940Y-97652072D01*
X151887000Y-98029427D01*
X151887000Y-98414173D01*
X151811940Y-98791528D01*
X151664704Y-99146987D01*
X151450950Y-99466893D01*
X151178893Y-99738950D01*
X150858987Y-99952704D01*
X150503528Y-100099940D01*
X150126173Y-100175000D01*
X149741427Y-100175000D01*
X149364072Y-100099940D01*
X149008613Y-99952704D01*
X148688707Y-99738950D01*
X148416650Y-99466893D01*
X148202896Y-99146987D01*
X148055660Y-98791528D01*
X147980600Y-98414173D01*
X147980600Y-98029427D01*
X148055660Y-97652072D01*
X148202896Y-97296613D01*
X148416650Y-96976707D01*
X148688707Y-96704650D01*
X149008613Y-96490896D01*
X149364072Y-96343660D01*
X149741427Y-96268600D01*
X150126173Y-96268600D01*
X150503528Y-96343660D01*
G37*
G36*
X133595592Y-97160995D02*
G01*
X133796361Y-97244157D01*
X133977049Y-97364889D01*
X134130711Y-97518551D01*
X134251443Y-97699239D01*
X134334605Y-97900008D01*
X134377000Y-98113144D01*
X134377000Y-98330456D01*
X134334605Y-98543592D01*
X134251443Y-98744361D01*
X134130711Y-98925049D01*
X133977049Y-99078711D01*
X133796361Y-99199443D01*
X133595592Y-99282605D01*
X133382456Y-99325000D01*
X133165144Y-99325000D01*
X132952008Y-99282605D01*
X132751239Y-99199443D01*
X132570551Y-99078711D01*
X132416889Y-98925049D01*
X132296157Y-98744361D01*
X132212995Y-98543592D01*
X132170600Y-98330456D01*
X132170600Y-98113144D01*
X132212995Y-97900008D01*
X132296157Y-97699239D01*
X132416889Y-97518551D01*
X132570551Y-97364889D01*
X132751239Y-97244157D01*
X132952008Y-97160995D01*
X133165144Y-97118600D01*
X133382456Y-97118600D01*
X133595592Y-97160995D01*
G37*
G36*
X114998200Y-97846200D02*
G01*
X112991800Y-97846200D01*
X112991800Y-94939800D01*
X114998200Y-94939800D01*
X114998200Y-97846200D01*
G37*
G36*
X111398200Y-97846200D02*
G01*
X109391800Y-97846200D01*
X109391800Y-94939800D01*
X111398200Y-94939800D01*
X111398200Y-97846200D01*
G37*
G36*
X101891200Y-97446200D02*
G01*
X99784800Y-97446200D01*
X99784800Y-95339800D01*
X101891200Y-95339800D01*
X101891200Y-97446200D01*
G37*
G36*
X103685207Y-95380274D02*
G01*
X103876877Y-95459666D01*
X104049376Y-95574926D01*
X104196074Y-95721624D01*
X104311334Y-95894123D01*
X104390726Y-96085793D01*
X104431200Y-96289269D01*
X104431200Y-96496731D01*
X104390726Y-96700207D01*
X104311334Y-96891877D01*
X104196074Y-97064376D01*
X104049376Y-97211074D01*
X103876877Y-97326334D01*
X103685207Y-97405726D01*
X103481731Y-97446200D01*
X103274269Y-97446200D01*
X103070793Y-97405726D01*
X102879123Y-97326334D01*
X102706624Y-97211074D01*
X102559926Y-97064376D01*
X102444666Y-96891877D01*
X102365274Y-96700207D01*
X102324800Y-96496731D01*
X102324800Y-96289269D01*
X102365274Y-96085793D01*
X102444666Y-95894123D01*
X102559926Y-95721624D01*
X102706624Y-95574926D01*
X102879123Y-95459666D01*
X103070793Y-95380274D01*
X103274269Y-95339800D01*
X103481731Y-95339800D01*
X103685207Y-95380274D01*
G37*
G36*
X126505400Y-97241000D02*
G01*
X124599000Y-97241000D01*
X124599000Y-94834600D01*
X126505400Y-94834600D01*
X126505400Y-97241000D01*
G37*
G36*
X124205400Y-97241000D02*
G01*
X122299000Y-97241000D01*
X122299000Y-94834600D01*
X124205400Y-94834600D01*
X124205400Y-97241000D01*
G37*
G36*
X128805400Y-97241000D02*
G01*
X126899000Y-97241000D01*
X126899000Y-94834600D01*
X128805400Y-94834600D01*
X128805400Y-97241000D01*
G37*
G36*
X134377000Y-96785000D02*
G01*
X132170600Y-96785000D01*
X132170600Y-94578600D01*
X134377000Y-94578600D01*
X134377000Y-96785000D01*
G37*
G36*
X161237711Y-89343061D02*
G01*
X161465716Y-89388413D01*
X161733822Y-89499467D01*
X161733823Y-89499468D01*
X161975111Y-89660691D01*
X162180309Y-89865889D01*
X162288035Y-90027113D01*
X162341533Y-90107178D01*
X162397059Y-90241230D01*
X162452587Y-90375284D01*
X162509200Y-90659903D01*
X162509200Y-90950097D01*
X162452587Y-91234716D01*
X162412047Y-91332586D01*
X162341533Y-91502822D01*
X162341532Y-91502823D01*
X162180309Y-91744111D01*
X161975111Y-91949309D01*
X161813887Y-92057035D01*
X161733822Y-92110533D01*
X161599770Y-92166059D01*
X161465716Y-92221587D01*
X161237711Y-92266939D01*
X161181098Y-92278200D01*
X160890902Y-92278200D01*
X160834289Y-92266939D01*
X160606284Y-92221587D01*
X160338178Y-92110533D01*
X160258113Y-92057035D01*
X160096889Y-91949309D01*
X159891691Y-91744111D01*
X159730468Y-91502823D01*
X159730467Y-91502822D01*
X159659953Y-91332586D01*
X159619413Y-91234716D01*
X159562800Y-90950097D01*
X159562800Y-90659903D01*
X159619413Y-90375284D01*
X159674941Y-90241230D01*
X159730467Y-90107178D01*
X159783965Y-90027113D01*
X159891691Y-89865889D01*
X160096889Y-89660691D01*
X160338177Y-89499468D01*
X160338178Y-89499467D01*
X160472230Y-89443941D01*
X160606284Y-89388413D01*
X160834289Y-89343061D01*
X160890902Y-89331800D01*
X161181098Y-89331800D01*
X161237711Y-89343061D01*
G37*
G36*
X80465711Y-88454061D02*
G01*
X80693716Y-88499413D01*
X80827770Y-88554941D01*
X80961822Y-88610467D01*
X80961823Y-88610468D01*
X81203111Y-88771691D01*
X81408309Y-88976889D01*
X81516035Y-89138113D01*
X81569533Y-89218178D01*
X81616597Y-89331800D01*
X81680587Y-89486284D01*
X81737200Y-89770903D01*
X81737200Y-90061097D01*
X81680587Y-90345716D01*
X81668339Y-90375284D01*
X81569533Y-90613822D01*
X81516035Y-90693887D01*
X81408309Y-90855111D01*
X81203111Y-91060309D01*
X81041887Y-91168035D01*
X80961822Y-91221533D01*
X80693716Y-91332587D01*
X80465711Y-91377939D01*
X80409098Y-91389200D01*
X80118902Y-91389200D01*
X80062289Y-91377939D01*
X79834284Y-91332587D01*
X79566178Y-91221533D01*
X79486113Y-91168035D01*
X79324889Y-91060309D01*
X79119691Y-90855111D01*
X79011965Y-90693887D01*
X78958467Y-90613822D01*
X78859661Y-90375284D01*
X78847413Y-90345716D01*
X78790800Y-90061097D01*
X78790800Y-89770903D01*
X78847413Y-89486284D01*
X78911403Y-89331800D01*
X78958467Y-89218178D01*
X79011965Y-89138113D01*
X79119691Y-88976889D01*
X79324889Y-88771691D01*
X79566177Y-88610468D01*
X79566178Y-88610467D01*
X79834284Y-88499413D01*
X80062289Y-88454061D01*
X80118902Y-88442800D01*
X80409098Y-88442800D01*
X80465711Y-88454061D01*
G37*
G36*
X127655400Y-90941000D02*
G01*
X123449000Y-90941000D01*
X123449000Y-88534600D01*
X127655400Y-88534600D01*
X127655400Y-90941000D01*
G37*
G36*
X98201555Y-86900778D02*
G01*
X98350937Y-86930491D01*
X98415824Y-86957369D01*
X98526594Y-87003251D01*
X98684679Y-87108880D01*
X98819120Y-87243321D01*
X98924749Y-87401406D01*
X98970631Y-87512176D01*
X98997509Y-87577063D01*
X99034600Y-87763537D01*
X99034600Y-87953663D01*
X98997509Y-88140137D01*
X98970631Y-88205024D01*
X98924749Y-88315794D01*
X98819120Y-88473879D01*
X98684679Y-88608320D01*
X98526594Y-88713949D01*
X98415824Y-88759831D01*
X98350937Y-88786709D01*
X98201555Y-88816422D01*
X98164464Y-88823800D01*
X97974336Y-88823800D01*
X97937245Y-88816422D01*
X97787863Y-88786709D01*
X97722976Y-88759831D01*
X97612206Y-88713949D01*
X97454121Y-88608320D01*
X97319680Y-88473879D01*
X97214051Y-88315794D01*
X97168169Y-88205024D01*
X97141291Y-88140137D01*
X97104200Y-87953663D01*
X97104200Y-87763537D01*
X97141291Y-87577063D01*
X97168169Y-87512176D01*
X97214051Y-87401406D01*
X97319680Y-87243321D01*
X97454121Y-87108880D01*
X97612206Y-87003251D01*
X97722976Y-86957369D01*
X97787863Y-86930491D01*
X97937245Y-86900778D01*
X97974336Y-86893400D01*
X98164464Y-86893400D01*
X98201555Y-86900778D01*
G37*
G36*
X93223155Y-86900778D02*
G01*
X93372537Y-86930491D01*
X93437424Y-86957369D01*
X93548194Y-87003251D01*
X93706279Y-87108880D01*
X93840720Y-87243321D01*
X93946349Y-87401406D01*
X93992231Y-87512176D01*
X94019109Y-87577063D01*
X94056200Y-87763537D01*
X94056200Y-87953663D01*
X94019109Y-88140137D01*
X93992231Y-88205024D01*
X93946349Y-88315794D01*
X93840720Y-88473879D01*
X93706279Y-88608320D01*
X93548194Y-88713949D01*
X93437424Y-88759831D01*
X93372537Y-88786709D01*
X93223155Y-88816422D01*
X93186064Y-88823800D01*
X92995936Y-88823800D01*
X92958845Y-88816422D01*
X92809463Y-88786709D01*
X92744576Y-88759831D01*
X92633806Y-88713949D01*
X92475721Y-88608320D01*
X92341280Y-88473879D01*
X92235651Y-88315794D01*
X92189769Y-88205024D01*
X92162891Y-88140137D01*
X92125800Y-87953663D01*
X92125800Y-87763537D01*
X92162891Y-87577063D01*
X92189769Y-87512176D01*
X92235651Y-87401406D01*
X92341280Y-87243321D01*
X92475721Y-87108880D01*
X92633806Y-87003251D01*
X92744576Y-86957369D01*
X92809463Y-86930491D01*
X92958845Y-86900778D01*
X92995936Y-86893400D01*
X93186064Y-86893400D01*
X93223155Y-86900778D01*
G37*
G36*
X161237711Y-85533061D02*
G01*
X161465716Y-85578413D01*
X161599770Y-85633941D01*
X161733822Y-85689467D01*
X161733823Y-85689468D01*
X161975111Y-85850691D01*
X162180309Y-86055889D01*
X162288035Y-86217113D01*
X162341533Y-86297178D01*
X162397059Y-86431230D01*
X162452587Y-86565284D01*
X162509200Y-86849903D01*
X162509200Y-87140097D01*
X162452587Y-87424716D01*
X162412047Y-87522586D01*
X162341533Y-87692822D01*
X162341532Y-87692823D01*
X162180309Y-87934111D01*
X161975111Y-88139309D01*
X161813887Y-88247035D01*
X161733822Y-88300533D01*
X161599770Y-88356059D01*
X161465716Y-88411587D01*
X161237711Y-88456939D01*
X161181098Y-88468200D01*
X160890902Y-88468200D01*
X160834289Y-88456939D01*
X160606284Y-88411587D01*
X160472230Y-88356059D01*
X160338178Y-88300533D01*
X160258113Y-88247035D01*
X160096889Y-88139309D01*
X159891691Y-87934111D01*
X159730468Y-87692823D01*
X159730467Y-87692822D01*
X159659953Y-87522586D01*
X159619413Y-87424716D01*
X159562800Y-87140097D01*
X159562800Y-86849903D01*
X159619413Y-86565284D01*
X159674941Y-86431230D01*
X159730467Y-86297178D01*
X159783965Y-86217113D01*
X159891691Y-86055889D01*
X160096889Y-85850691D01*
X160338177Y-85689468D01*
X160338178Y-85689467D01*
X160472230Y-85633941D01*
X160606284Y-85578413D01*
X160834289Y-85533061D01*
X160890902Y-85521800D01*
X161181098Y-85521800D01*
X161237711Y-85533061D01*
G37*
G36*
X80465711Y-84644061D02*
G01*
X80693716Y-84689413D01*
X80827770Y-84744941D01*
X80961822Y-84800467D01*
X80961823Y-84800468D01*
X81203111Y-84961691D01*
X81408309Y-85166889D01*
X81516035Y-85328113D01*
X81569533Y-85408178D01*
X81616597Y-85521800D01*
X81680587Y-85676284D01*
X81737200Y-85960903D01*
X81737200Y-86251097D01*
X81680587Y-86535716D01*
X81668339Y-86565284D01*
X81569533Y-86803822D01*
X81516035Y-86883887D01*
X81408309Y-87045111D01*
X81203111Y-87250309D01*
X81041887Y-87358035D01*
X80961822Y-87411533D01*
X80827770Y-87467059D01*
X80693716Y-87522587D01*
X80465711Y-87567939D01*
X80409098Y-87579200D01*
X80118902Y-87579200D01*
X80062289Y-87567939D01*
X79834284Y-87522587D01*
X79566178Y-87411533D01*
X79486113Y-87358035D01*
X79324889Y-87250309D01*
X79119691Y-87045111D01*
X79011965Y-86883887D01*
X78958467Y-86803822D01*
X78859661Y-86565284D01*
X78847413Y-86535716D01*
X78790800Y-86251097D01*
X78790800Y-85960903D01*
X78847413Y-85676284D01*
X78911403Y-85521800D01*
X78958467Y-85408178D01*
X79011965Y-85328113D01*
X79119691Y-85166889D01*
X79324889Y-84961691D01*
X79566177Y-84800468D01*
X79566178Y-84800467D01*
X79700230Y-84744941D01*
X79834284Y-84689413D01*
X80062289Y-84644061D01*
X80118902Y-84632800D01*
X80409098Y-84632800D01*
X80465711Y-84644061D01*
G37*
G36*
X90936794Y-79553674D02*
G01*
X91193343Y-79659940D01*
X91424231Y-79814214D01*
X91620586Y-80010569D01*
X91774860Y-80241457D01*
X91881126Y-80498006D01*
X91935300Y-80770357D01*
X91935300Y-81048043D01*
X91881126Y-81320394D01*
X91774860Y-81576943D01*
X91620586Y-81807831D01*
X91424231Y-82004186D01*
X91193343Y-82158460D01*
X90936794Y-82264726D01*
X90664443Y-82318900D01*
X90386757Y-82318900D01*
X90114406Y-82264726D01*
X89857857Y-82158460D01*
X89626969Y-82004186D01*
X89430614Y-81807831D01*
X89276340Y-81576943D01*
X89170074Y-81320394D01*
X89115900Y-81048043D01*
X89115900Y-80770357D01*
X89170074Y-80498006D01*
X89276340Y-80241457D01*
X89430614Y-80010569D01*
X89626969Y-79814214D01*
X89857857Y-79659940D01*
X90114406Y-79553674D01*
X90386757Y-79499500D01*
X90664443Y-79499500D01*
X90936794Y-79553674D01*
G37*
G36*
X163629207Y-78819474D02*
G01*
X163820877Y-78898866D01*
X163993376Y-79014126D01*
X164140074Y-79160824D01*
X164255334Y-79333323D01*
X164334726Y-79524993D01*
X164375200Y-79728469D01*
X164375200Y-79935931D01*
X164334726Y-80139407D01*
X164255334Y-80331077D01*
X164140074Y-80503576D01*
X163993376Y-80650274D01*
X163820877Y-80765534D01*
X163629207Y-80844926D01*
X163425731Y-80885400D01*
X163218269Y-80885400D01*
X163014793Y-80844926D01*
X162823123Y-80765534D01*
X162650624Y-80650274D01*
X162503926Y-80503576D01*
X162388666Y-80331077D01*
X162309274Y-80139407D01*
X162268800Y-79935931D01*
X162268800Y-79728469D01*
X162309274Y-79524993D01*
X162388666Y-79333323D01*
X162503926Y-79160824D01*
X162650624Y-79014126D01*
X162823123Y-78898866D01*
X163014793Y-78819474D01*
X163218269Y-78779000D01*
X163425731Y-78779000D01*
X163629207Y-78819474D01*
G37*
G36*
X127431800Y-79832200D02*
G01*
X124739400Y-79832200D01*
X124739400Y-77139800D01*
X127431800Y-77139800D01*
X127431800Y-79832200D01*
G37*
G36*
X103472750Y-77252594D02*
G01*
X103706186Y-77349286D01*
X103916274Y-77489662D01*
X104094938Y-77668326D01*
X104235314Y-77878414D01*
X104332006Y-78111850D01*
X104381300Y-78359666D01*
X104381300Y-78612334D01*
X104332006Y-78860150D01*
X104235314Y-79093586D01*
X104094938Y-79303674D01*
X103916274Y-79482338D01*
X103809510Y-79553675D01*
X103706186Y-79622714D01*
X103472750Y-79719406D01*
X103224935Y-79768700D01*
X102972265Y-79768700D01*
X102724450Y-79719406D01*
X102491014Y-79622714D01*
X102387690Y-79553675D01*
X102280926Y-79482338D01*
X102102262Y-79303674D01*
X101961886Y-79093586D01*
X101865194Y-78860150D01*
X101815900Y-78612334D01*
X101815900Y-78359666D01*
X101865194Y-78111850D01*
X101961886Y-77878414D01*
X102102262Y-77668326D01*
X102280926Y-77489662D01*
X102491014Y-77349286D01*
X102724450Y-77252594D01*
X102972265Y-77203300D01*
X103224935Y-77203300D01*
X103472750Y-77252594D01*
G37*
G36*
X164375200Y-78345400D02*
G01*
X162268800Y-78345400D01*
X162268800Y-76239000D01*
X164375200Y-76239000D01*
X164375200Y-78345400D01*
G37*
G36*
X90936794Y-74553674D02*
G01*
X91193343Y-74659940D01*
X91424231Y-74814214D01*
X91620586Y-75010569D01*
X91774860Y-75241457D01*
X91881126Y-75498006D01*
X91935300Y-75770357D01*
X91935300Y-76048043D01*
X91881126Y-76320394D01*
X91774860Y-76576943D01*
X91620586Y-76807831D01*
X91424231Y-77004186D01*
X91193343Y-77158460D01*
X90936794Y-77264726D01*
X90664443Y-77318900D01*
X90386757Y-77318900D01*
X90114406Y-77264726D01*
X89857857Y-77158460D01*
X89626969Y-77004186D01*
X89430614Y-76807831D01*
X89276340Y-76576943D01*
X89170074Y-76320394D01*
X89115900Y-76048043D01*
X89115900Y-75770357D01*
X89170074Y-75498006D01*
X89276340Y-75241457D01*
X89430614Y-75010569D01*
X89626969Y-74814214D01*
X89857857Y-74659940D01*
X90114406Y-74553674D01*
X90386757Y-74499500D01*
X90664443Y-74499500D01*
X90936794Y-74553674D01*
G37*
G36*
X154946200Y-74978200D02*
G01*
X152539800Y-74978200D01*
X152539800Y-71071800D01*
X154946200Y-71071800D01*
X154946200Y-74978200D01*
G37*
G36*
X148196200Y-74978200D02*
G01*
X145789800Y-74978200D01*
X145789800Y-71071800D01*
X148196200Y-71071800D01*
X148196200Y-74978200D01*
G37*
G36*
X103472750Y-72172594D02*
G01*
X103706186Y-72269286D01*
X103916274Y-72409662D01*
X104094938Y-72588326D01*
X104235314Y-72798414D01*
X104332006Y-73031850D01*
X104381300Y-73279665D01*
X104381300Y-73532335D01*
X104366010Y-73609200D01*
X104332006Y-73780150D01*
X104235314Y-74013586D01*
X104094938Y-74223674D01*
X103916274Y-74402338D01*
X103770860Y-74499500D01*
X103706186Y-74542714D01*
X103472750Y-74639406D01*
X103224935Y-74688700D01*
X102972265Y-74688700D01*
X102724450Y-74639406D01*
X102491014Y-74542714D01*
X102426340Y-74499500D01*
X102280926Y-74402338D01*
X102102262Y-74223674D01*
X101961886Y-74013586D01*
X101865194Y-73780150D01*
X101831190Y-73609200D01*
X101815900Y-73532335D01*
X101815900Y-73279665D01*
X101865194Y-73031850D01*
X101961886Y-72798414D01*
X102102262Y-72588326D01*
X102280926Y-72409662D01*
X102491014Y-72269286D01*
X102724450Y-72172594D01*
X102972265Y-72123300D01*
X103224935Y-72123300D01*
X103472750Y-72172594D01*
G37*
G36*
X80465711Y-70674061D02*
G01*
X80693716Y-70719413D01*
X80827770Y-70774941D01*
X80961822Y-70830467D01*
X80961823Y-70830468D01*
X81203111Y-70991691D01*
X81408309Y-71196889D01*
X81516035Y-71358113D01*
X81569533Y-71438178D01*
X81680587Y-71706284D01*
X81737200Y-71990903D01*
X81737200Y-72281097D01*
X81680587Y-72565716D01*
X81671221Y-72588327D01*
X81569533Y-72833822D01*
X81569532Y-72833823D01*
X81408309Y-73075111D01*
X81203111Y-73280309D01*
X81041887Y-73388035D01*
X80961822Y-73441533D01*
X80827770Y-73497059D01*
X80693716Y-73552587D01*
X80465711Y-73597939D01*
X80409098Y-73609200D01*
X80118902Y-73609200D01*
X80062289Y-73597939D01*
X79834284Y-73552587D01*
X79700230Y-73497059D01*
X79566178Y-73441533D01*
X79486113Y-73388035D01*
X79324889Y-73280309D01*
X79119691Y-73075111D01*
X78958468Y-72833823D01*
X78958467Y-72833822D01*
X78856779Y-72588327D01*
X78847413Y-72565716D01*
X78790800Y-72281097D01*
X78790800Y-71990903D01*
X78847413Y-71706284D01*
X78958467Y-71438178D01*
X79011965Y-71358113D01*
X79119691Y-71196889D01*
X79324889Y-70991691D01*
X79566177Y-70830468D01*
X79566178Y-70830467D01*
X79700230Y-70774941D01*
X79834284Y-70719413D01*
X80062289Y-70674061D01*
X80118902Y-70662800D01*
X80409098Y-70662800D01*
X80465711Y-70674061D01*
G37*
G36*
X80465711Y-66864061D02*
G01*
X80693716Y-66909413D01*
X80827770Y-66964941D01*
X80961822Y-67020467D01*
X80961823Y-67020468D01*
X81203111Y-67181691D01*
X81408309Y-67386889D01*
X81489450Y-67508326D01*
X81569533Y-67628178D01*
X81606910Y-67718414D01*
X81680587Y-67896284D01*
X81725939Y-68124289D01*
X81734475Y-68167200D01*
X81737200Y-68180903D01*
X81737200Y-68471097D01*
X81680587Y-68755716D01*
X81625059Y-68889770D01*
X81569533Y-69023822D01*
X81569532Y-69023823D01*
X81408309Y-69265111D01*
X81203111Y-69470309D01*
X81041887Y-69578035D01*
X80961822Y-69631533D01*
X80693716Y-69742587D01*
X80465711Y-69787939D01*
X80409098Y-69799200D01*
X80118902Y-69799200D01*
X80062289Y-69787939D01*
X79834284Y-69742587D01*
X79566178Y-69631533D01*
X79486113Y-69578035D01*
X79324889Y-69470309D01*
X79119691Y-69265111D01*
X78958468Y-69023823D01*
X78958467Y-69023822D01*
X78902941Y-68889770D01*
X78847413Y-68755716D01*
X78790800Y-68471097D01*
X78790800Y-68180903D01*
X78793526Y-68167200D01*
X78802061Y-68124289D01*
X78847413Y-67896284D01*
X78921090Y-67718414D01*
X78958467Y-67628178D01*
X79038550Y-67508326D01*
X79119691Y-67386889D01*
X79324889Y-67181691D01*
X79566177Y-67020468D01*
X79566178Y-67020467D01*
X79700230Y-66964941D01*
X79834284Y-66909413D01*
X80062289Y-66864061D01*
X80118902Y-66852800D01*
X80409098Y-66852800D01*
X80465711Y-66864061D01*
G37*
G36*
X103472750Y-67092594D02*
G01*
X103706186Y-67189286D01*
X103916274Y-67329662D01*
X104094938Y-67508326D01*
X104235314Y-67718414D01*
X104332006Y-67951850D01*
X104381300Y-68199666D01*
X104381300Y-68452334D01*
X104332006Y-68700150D01*
X104235314Y-68933586D01*
X104094938Y-69143674D01*
X103916274Y-69322338D01*
X103706186Y-69462714D01*
X103472750Y-69559406D01*
X103224935Y-69608700D01*
X102972265Y-69608700D01*
X102724450Y-69559406D01*
X102491014Y-69462714D01*
X102280926Y-69322338D01*
X102102262Y-69143674D01*
X101961886Y-68933586D01*
X101865194Y-68700150D01*
X101815900Y-68452334D01*
X101815900Y-68199666D01*
X101865194Y-67951850D01*
X101961886Y-67718414D01*
X102102262Y-67508326D01*
X102280926Y-67329662D01*
X102491014Y-67189286D01*
X102724450Y-67092594D01*
X102972265Y-67043300D01*
X103224935Y-67043300D01*
X103472750Y-67092594D01*
G37*
G36*
X164375200Y-69252200D02*
G01*
X162268800Y-69252200D01*
X162268800Y-67145800D01*
X164375200Y-67145800D01*
X164375200Y-69252200D01*
G37*
G36*
X147608200Y-69117200D02*
G01*
X145801800Y-69117200D01*
X145801800Y-67910800D01*
X147608200Y-67910800D01*
X147608200Y-69117200D01*
G37*
G36*
X152815200Y-69117200D02*
G01*
X151008800Y-69117200D01*
X151008800Y-67910800D01*
X152815200Y-67910800D01*
X152815200Y-69117200D01*
G37*
G36*
X155315200Y-68167200D02*
G01*
X153508800Y-68167200D01*
X153508800Y-66960800D01*
X155315200Y-66960800D01*
X155315200Y-68167200D01*
G37*
G36*
X150108200Y-68167200D02*
G01*
X148301800Y-68167200D01*
X148301800Y-66960800D01*
X150108200Y-66960800D01*
X150108200Y-68167200D01*
G37*
G36*
X142973200Y-67909200D02*
G01*
X141266800Y-67909200D01*
X141266800Y-66202800D01*
X142973200Y-66202800D01*
X142973200Y-67909200D01*
G37*
G36*
X140673200Y-67909200D02*
G01*
X138966800Y-67909200D01*
X138966800Y-66202800D01*
X140673200Y-66202800D01*
X140673200Y-67909200D01*
G37*
G36*
X126478272Y-64691533D02*
G01*
X126723265Y-64793013D01*
X126943753Y-64940338D01*
X127131262Y-65127847D01*
X127278587Y-65348335D01*
X127380067Y-65593328D01*
X127431800Y-65853411D01*
X127431800Y-66118589D01*
X127380067Y-66378672D01*
X127278587Y-66623665D01*
X127131262Y-66844153D01*
X126943753Y-67031662D01*
X126723265Y-67178987D01*
X126478272Y-67280467D01*
X126218189Y-67332200D01*
X125953011Y-67332200D01*
X125692928Y-67280467D01*
X125447935Y-67178987D01*
X125227447Y-67031662D01*
X125039938Y-66844153D01*
X124892613Y-66623665D01*
X124791133Y-66378672D01*
X124739400Y-66118589D01*
X124739400Y-65853411D01*
X124791133Y-65593328D01*
X124892613Y-65348335D01*
X125039938Y-65127847D01*
X125227447Y-64940338D01*
X125447935Y-64793013D01*
X125692928Y-64691533D01*
X125953011Y-64639800D01*
X126218189Y-64639800D01*
X126478272Y-64691533D01*
G37*
G36*
X90936794Y-64553674D02*
G01*
X91193343Y-64659940D01*
X91424231Y-64814214D01*
X91620586Y-65010569D01*
X91774860Y-65241457D01*
X91881126Y-65498006D01*
X91935300Y-65770357D01*
X91935300Y-66048043D01*
X91881126Y-66320394D01*
X91774860Y-66576943D01*
X91620586Y-66807831D01*
X91424231Y-67004186D01*
X91193343Y-67158460D01*
X90936794Y-67264726D01*
X90664443Y-67318900D01*
X90386757Y-67318900D01*
X90114406Y-67264726D01*
X89857857Y-67158460D01*
X89626969Y-67004186D01*
X89430614Y-66807831D01*
X89276340Y-66576943D01*
X89170074Y-66320394D01*
X89115900Y-66048043D01*
X89115900Y-65770357D01*
X89170074Y-65498006D01*
X89276340Y-65241457D01*
X89430614Y-65010569D01*
X89626969Y-64814214D01*
X89857857Y-64659940D01*
X90114406Y-64553674D01*
X90386757Y-64499500D01*
X90664443Y-64499500D01*
X90936794Y-64553674D01*
G37*
G36*
X147608200Y-67217200D02*
G01*
X145801800Y-67217200D01*
X145801800Y-66010800D01*
X147608200Y-66010800D01*
X147608200Y-67217200D01*
G37*
G36*
X152815200Y-67217200D02*
G01*
X151008800Y-67217200D01*
X151008800Y-66010800D01*
X152815200Y-66010800D01*
X152815200Y-67217200D01*
G37*
G36*
X163629207Y-64646274D02*
G01*
X163820877Y-64725666D01*
X163993376Y-64840926D01*
X164140074Y-64987624D01*
X164255334Y-65160123D01*
X164334726Y-65351793D01*
X164375200Y-65555269D01*
X164375200Y-65762731D01*
X164334726Y-65966207D01*
X164255334Y-66157877D01*
X164140074Y-66330376D01*
X163993376Y-66477074D01*
X163820877Y-66592334D01*
X163629207Y-66671726D01*
X163425731Y-66712200D01*
X163218269Y-66712200D01*
X163014793Y-66671726D01*
X162823123Y-66592334D01*
X162650624Y-66477074D01*
X162503926Y-66330376D01*
X162388666Y-66157877D01*
X162309274Y-65966207D01*
X162268800Y-65762731D01*
X162268800Y-65555269D01*
X162309274Y-65351793D01*
X162388666Y-65160123D01*
X162503926Y-64987624D01*
X162650624Y-64840926D01*
X162823123Y-64725666D01*
X163014793Y-64646274D01*
X163218269Y-64605800D01*
X163425731Y-64605800D01*
X163629207Y-64646274D01*
G37*
G36*
X103472750Y-62012594D02*
G01*
X103706186Y-62109286D01*
X103916274Y-62249662D01*
X104094938Y-62428326D01*
X104235314Y-62638414D01*
X104332006Y-62871850D01*
X104381300Y-63119666D01*
X104381300Y-63372334D01*
X104332006Y-63620150D01*
X104235314Y-63853586D01*
X104094938Y-64063674D01*
X103916274Y-64242338D01*
X103706186Y-64382714D01*
X103472750Y-64479406D01*
X103224935Y-64528700D01*
X102972265Y-64528700D01*
X102724450Y-64479406D01*
X102491014Y-64382714D01*
X102280926Y-64242338D01*
X102102262Y-64063674D01*
X101961886Y-63853586D01*
X101865194Y-63620150D01*
X101815900Y-63372334D01*
X101815900Y-63119666D01*
X101865194Y-62871850D01*
X101961886Y-62638414D01*
X102102262Y-62428326D01*
X102280926Y-62249662D01*
X102491014Y-62109286D01*
X102724450Y-62012594D01*
X102972265Y-61963300D01*
X103224935Y-61963300D01*
X103472750Y-62012594D01*
G37*
G36*
X140114879Y-61919646D02*
G01*
X140165974Y-61935146D01*
X140213053Y-61960310D01*
X140254322Y-61994178D01*
X140288190Y-62035447D01*
X140313354Y-62082526D01*
X140328854Y-62133621D01*
X140334700Y-62192979D01*
X140334700Y-63791021D01*
X140328854Y-63850379D01*
X140313354Y-63901474D01*
X140288190Y-63948553D01*
X140254322Y-63989822D01*
X140213053Y-64023690D01*
X140165974Y-64048854D01*
X140114879Y-64064354D01*
X140055521Y-64070200D01*
X138582479Y-64070200D01*
X138523121Y-64064354D01*
X138472026Y-64048854D01*
X138424947Y-64023690D01*
X138383678Y-63989822D01*
X138349810Y-63948553D01*
X138324646Y-63901474D01*
X138309146Y-63850379D01*
X138303300Y-63791021D01*
X138303300Y-62192979D01*
X138309146Y-62133621D01*
X138324646Y-62082526D01*
X138349810Y-62035447D01*
X138383678Y-61994178D01*
X138424947Y-61960310D01*
X138472026Y-61935146D01*
X138523121Y-61919646D01*
X138582479Y-61913800D01*
X140055521Y-61913800D01*
X140114879Y-61919646D01*
G37*
G36*
X143289879Y-61919646D02*
G01*
X143340974Y-61935146D01*
X143388053Y-61960310D01*
X143429322Y-61994178D01*
X143463190Y-62035447D01*
X143488354Y-62082526D01*
X143503854Y-62133621D01*
X143509700Y-62192979D01*
X143509700Y-63791021D01*
X143503854Y-63850379D01*
X143488354Y-63901474D01*
X143463190Y-63948553D01*
X143429322Y-63989822D01*
X143388053Y-64023690D01*
X143340974Y-64048854D01*
X143289879Y-64064354D01*
X143230521Y-64070200D01*
X141757479Y-64070200D01*
X141698121Y-64064354D01*
X141647026Y-64048854D01*
X141599947Y-64023690D01*
X141558678Y-63989822D01*
X141524810Y-63948553D01*
X141499646Y-63901474D01*
X141484146Y-63850379D01*
X141478300Y-63791021D01*
X141478300Y-62192979D01*
X141484146Y-62133621D01*
X141499646Y-62082526D01*
X141524810Y-62035447D01*
X141558678Y-61994178D01*
X141599947Y-61960310D01*
X141647026Y-61935146D01*
X141698121Y-61919646D01*
X141757479Y-61913800D01*
X143230521Y-61913800D01*
X143289879Y-61919646D01*
G37*
G36*
X147408200Y-63695200D02*
G01*
X146001800Y-63695200D01*
X146001800Y-62288800D01*
X147408200Y-62288800D01*
X147408200Y-63695200D01*
G37*
G36*
X152615200Y-63695200D02*
G01*
X151208800Y-63695200D01*
X151208800Y-62288800D01*
X152615200Y-62288800D01*
X152615200Y-63695200D01*
G37*
G36*
X155115200Y-63695200D02*
G01*
X153708800Y-63695200D01*
X153708800Y-62288800D01*
X155115200Y-62288800D01*
X155115200Y-63695200D01*
G37*
G36*
X149908200Y-63695200D02*
G01*
X148501800Y-63695200D01*
X148501800Y-62288800D01*
X149908200Y-62288800D01*
X149908200Y-63695200D01*
G37*
G36*
X90936794Y-59553674D02*
G01*
X91193343Y-59659940D01*
X91424231Y-59814214D01*
X91620586Y-60010569D01*
X91774860Y-60241457D01*
X91881126Y-60498006D01*
X91935300Y-60770357D01*
X91935300Y-61048043D01*
X91881126Y-61320394D01*
X91774860Y-61576943D01*
X91620586Y-61807831D01*
X91424231Y-62004186D01*
X91193343Y-62158460D01*
X90936794Y-62264726D01*
X90664443Y-62318900D01*
X90386757Y-62318900D01*
X90114406Y-62264726D01*
X89857857Y-62158460D01*
X89626969Y-62004186D01*
X89430614Y-61807831D01*
X89276340Y-61576943D01*
X89170074Y-61320394D01*
X89115900Y-61048043D01*
X89115900Y-60770357D01*
X89170074Y-60498006D01*
X89276340Y-60241457D01*
X89430614Y-60010569D01*
X89626969Y-59814214D01*
X89857857Y-59659940D01*
X90114406Y-59553674D01*
X90386757Y-59499500D01*
X90664443Y-59499500D01*
X90936794Y-59553674D01*
G37*
G36*
X137883200Y-59523200D02*
G01*
X134476800Y-59523200D01*
X134476800Y-57316800D01*
X137883200Y-57316800D01*
X137883200Y-59523200D01*
G37*
G36*
X142383200Y-59523200D02*
G01*
X138976800Y-59523200D01*
X138976800Y-57316800D01*
X142383200Y-57316800D01*
X142383200Y-59523200D01*
G37*
G36*
X152865200Y-59273200D02*
G01*
X151158800Y-59273200D01*
X151158800Y-57566800D01*
X152865200Y-57566800D01*
X152865200Y-59273200D01*
G37*
G36*
X155165200Y-59273200D02*
G01*
X153458800Y-59273200D01*
X153458800Y-57566800D01*
X155165200Y-57566800D01*
X155165200Y-59273200D01*
G37*
G36*
X147785200Y-59273200D02*
G01*
X146078800Y-59273200D01*
X146078800Y-57566800D01*
X147785200Y-57566800D01*
X147785200Y-59273200D01*
G37*
G36*
X150085200Y-59273200D02*
G01*
X148378800Y-59273200D01*
X148378800Y-57566800D01*
X150085200Y-57566800D01*
X150085200Y-59273200D01*
G37*
G36*
X95576800Y-53888400D02*
G01*
X93870400Y-53888400D01*
X93870400Y-52182000D01*
X95576800Y-52182000D01*
X95576800Y-53888400D01*
G37*
G36*
X93276800Y-53888400D02*
G01*
X91570400Y-53888400D01*
X91570400Y-52182000D01*
X93276800Y-52182000D01*
X93276800Y-53888400D01*
G37*
G36*
X145221600Y-52199000D02*
G01*
X142815200Y-52199000D01*
X142815200Y-50292600D01*
X145221600Y-50292600D01*
X145221600Y-52199000D01*
G37*
G36*
X100621400Y-52055600D02*
G01*
X97215000Y-52055600D01*
X97215000Y-49849200D01*
X100621400Y-49849200D01*
X100621400Y-52055600D01*
G37*
G36*
X105121400Y-52055600D02*
G01*
X101715000Y-52055600D01*
X101715000Y-49849200D01*
X105121400Y-49849200D01*
X105121400Y-52055600D01*
G37*
G36*
X155927200Y-52034200D02*
G01*
X154220800Y-52034200D01*
X154220800Y-50327800D01*
X155927200Y-50327800D01*
X155927200Y-52034200D01*
G37*
G36*
X153627200Y-52034200D02*
G01*
X151920800Y-52034200D01*
X151920800Y-50327800D01*
X153627200Y-50327800D01*
X153627200Y-52034200D01*
G37*
G36*
X151075800Y-52034200D02*
G01*
X149369400Y-52034200D01*
X149369400Y-50327800D01*
X151075800Y-50327800D01*
X151075800Y-52034200D01*
G37*
G36*
X148775800Y-52034200D02*
G01*
X147069400Y-52034200D01*
X147069400Y-50327800D01*
X148775800Y-50327800D01*
X148775800Y-52034200D01*
G37*
G36*
X134565800Y-51805600D02*
G01*
X132859400Y-51805600D01*
X132859400Y-50099200D01*
X134565800Y-50099200D01*
X134565800Y-51805600D01*
G37*
G36*
X132265800Y-51805600D02*
G01*
X130559400Y-51805600D01*
X130559400Y-50099200D01*
X132265800Y-50099200D01*
X132265800Y-51805600D01*
G37*
G36*
X95956979Y-49168846D02*
G01*
X96008074Y-49184346D01*
X96055153Y-49209510D01*
X96096422Y-49243378D01*
X96130290Y-49284647D01*
X96155454Y-49331726D01*
X96170954Y-49382821D01*
X96176800Y-49442179D01*
X96176800Y-51040221D01*
X96170954Y-51099579D01*
X96155454Y-51150674D01*
X96130290Y-51197753D01*
X96096422Y-51239022D01*
X96055153Y-51272890D01*
X96008074Y-51298054D01*
X95956979Y-51313554D01*
X95897621Y-51319400D01*
X94424579Y-51319400D01*
X94365221Y-51313554D01*
X94314126Y-51298054D01*
X94267047Y-51272890D01*
X94225778Y-51239022D01*
X94191910Y-51197753D01*
X94166746Y-51150674D01*
X94151246Y-51099579D01*
X94145400Y-51040221D01*
X94145400Y-49442179D01*
X94151246Y-49382821D01*
X94166746Y-49331726D01*
X94191910Y-49284647D01*
X94225778Y-49243378D01*
X94267047Y-49209510D01*
X94314126Y-49184346D01*
X94365221Y-49168846D01*
X94424579Y-49163000D01*
X95897621Y-49163000D01*
X95956979Y-49168846D01*
G37*
G36*
X92781979Y-49168846D02*
G01*
X92833074Y-49184346D01*
X92880153Y-49209510D01*
X92921422Y-49243378D01*
X92955290Y-49284647D01*
X92980454Y-49331726D01*
X92995954Y-49382821D01*
X93001800Y-49442179D01*
X93001800Y-51040221D01*
X92995954Y-51099579D01*
X92980454Y-51150674D01*
X92955290Y-51197753D01*
X92921422Y-51239022D01*
X92880153Y-51272890D01*
X92833074Y-51298054D01*
X92781979Y-51313554D01*
X92722621Y-51319400D01*
X91249579Y-51319400D01*
X91190221Y-51313554D01*
X91139126Y-51298054D01*
X91092047Y-51272890D01*
X91050778Y-51239022D01*
X91016910Y-51197753D01*
X90991746Y-51150674D01*
X90976246Y-51099579D01*
X90970400Y-51040221D01*
X90970400Y-49442179D01*
X90976246Y-49382821D01*
X90991746Y-49331726D01*
X91016910Y-49284647D01*
X91050778Y-49243378D01*
X91092047Y-49209510D01*
X91139126Y-49184346D01*
X91190221Y-49168846D01*
X91249579Y-49163000D01*
X92722621Y-49163000D01*
X92781979Y-49168846D01*
G37*
G36*
X138921600Y-51049000D02*
G01*
X136515200Y-51049000D01*
X136515200Y-46842600D01*
X138921600Y-46842600D01*
X138921600Y-51049000D01*
G37*
G36*
X145221600Y-49899000D02*
G01*
X142815200Y-49899000D01*
X142815200Y-47992600D01*
X145221600Y-47992600D01*
X145221600Y-49899000D01*
G37*
G36*
X163637996Y-42166324D02*
G01*
X164310570Y-42444913D01*
X164915871Y-42849362D01*
X165430638Y-43364129D01*
X165835087Y-43969430D01*
X166113676Y-44642004D01*
X166255700Y-45356005D01*
X166255700Y-46083995D01*
X166113676Y-46797996D01*
X165835087Y-47470570D01*
X165430638Y-48075871D01*
X164915871Y-48590638D01*
X164310570Y-48995087D01*
X163637996Y-49273676D01*
X162923995Y-49415700D01*
X162196005Y-49415700D01*
X161482004Y-49273676D01*
X160809430Y-48995087D01*
X160204129Y-48590638D01*
X159689362Y-48075871D01*
X159284913Y-47470570D01*
X159006324Y-46797996D01*
X158864300Y-46083995D01*
X158864300Y-45356005D01*
X159006324Y-44642004D01*
X159284913Y-43969430D01*
X159689362Y-43364129D01*
X160204129Y-42849362D01*
X160809430Y-42444913D01*
X161482004Y-42166324D01*
X162196005Y-42024300D01*
X162923995Y-42024300D01*
X163637996Y-42166324D01*
G37*
G36*
X79817996Y-42166324D02*
G01*
X80490570Y-42444913D01*
X81095871Y-42849362D01*
X81610638Y-43364129D01*
X82015087Y-43969430D01*
X82293676Y-44642004D01*
X82435700Y-45356005D01*
X82435700Y-46083995D01*
X82293676Y-46797996D01*
X82015087Y-47470570D01*
X81610638Y-48075871D01*
X81095871Y-48590638D01*
X80490570Y-48995087D01*
X79817996Y-49273676D01*
X79103995Y-49415700D01*
X78376005Y-49415700D01*
X77662004Y-49273676D01*
X76989430Y-48995087D01*
X76384129Y-48590638D01*
X75869362Y-48075871D01*
X75464913Y-47470570D01*
X75186324Y-46797996D01*
X75044300Y-46083995D01*
X75044300Y-45356005D01*
X75186324Y-44642004D01*
X75464913Y-43969430D01*
X75869362Y-43364129D01*
X76384129Y-42849362D01*
X76989430Y-42444913D01*
X77662004Y-42166324D01*
X78376005Y-42024300D01*
X79103995Y-42024300D01*
X79817996Y-42166324D01*
G37*
G36*
X148788500Y-48706800D02*
G01*
X147082100Y-48706800D01*
X147082100Y-47000400D01*
X148788500Y-47000400D01*
X148788500Y-48706800D01*
G37*
G36*
X151088500Y-48706800D02*
G01*
X149382100Y-48706800D01*
X149382100Y-47000400D01*
X151088500Y-47000400D01*
X151088500Y-48706800D01*
G37*
G36*
X100706725Y-46803725D02*
G01*
X100756608Y-46818858D01*
X100802588Y-46843434D01*
X100842891Y-46876509D01*
X100875966Y-46916812D01*
X100900542Y-46962792D01*
X100915675Y-47012675D01*
X100921400Y-47070809D01*
X100921400Y-48331591D01*
X100915675Y-48389725D01*
X100900542Y-48439608D01*
X100875966Y-48485588D01*
X100842891Y-48525891D01*
X100802588Y-48558966D01*
X100756608Y-48583542D01*
X100706725Y-48598675D01*
X100648591Y-48604400D01*
X99637809Y-48604400D01*
X99579675Y-48598675D01*
X99529792Y-48583542D01*
X99483812Y-48558966D01*
X99443509Y-48525891D01*
X99410434Y-48485588D01*
X99385858Y-48439608D01*
X99370725Y-48389725D01*
X99365000Y-48331591D01*
X99365000Y-47070809D01*
X99370725Y-47012675D01*
X99385858Y-46962792D01*
X99410434Y-46916812D01*
X99443509Y-46876509D01*
X99483812Y-46843434D01*
X99529792Y-46818858D01*
X99579675Y-46803725D01*
X99637809Y-46798000D01*
X100648591Y-46798000D01*
X100706725Y-46803725D01*
G37*
G36*
X132076111Y-46804017D02*
G01*
X132128880Y-46820025D01*
X132177493Y-46846009D01*
X132220114Y-46880986D01*
X132255091Y-46923607D01*
X132281075Y-46972220D01*
X132297083Y-47024989D01*
X132303100Y-47086084D01*
X132303100Y-48316316D01*
X132297083Y-48377411D01*
X132281075Y-48430180D01*
X132255091Y-48478793D01*
X132220114Y-48521414D01*
X132177493Y-48556391D01*
X132128880Y-48582375D01*
X132076111Y-48598383D01*
X132015016Y-48604400D01*
X131209784Y-48604400D01*
X131148689Y-48598383D01*
X131095920Y-48582375D01*
X131047307Y-48556391D01*
X131004686Y-48521414D01*
X130969709Y-48478793D01*
X130943725Y-48430180D01*
X130927717Y-48377411D01*
X130921700Y-48316316D01*
X130921700Y-47086084D01*
X130927717Y-47024989D01*
X130943725Y-46972220D01*
X130969709Y-46923607D01*
X131004686Y-46880986D01*
X131047307Y-46846009D01*
X131095920Y-46820025D01*
X131148689Y-46804017D01*
X131209784Y-46798000D01*
X132015016Y-46798000D01*
X132076111Y-46804017D01*
G37*
G36*
X102756725Y-46803725D02*
G01*
X102806608Y-46818858D01*
X102852588Y-46843434D01*
X102892891Y-46876509D01*
X102925966Y-46916812D01*
X102950542Y-46962792D01*
X102965675Y-47012675D01*
X102971400Y-47070809D01*
X102971400Y-48331591D01*
X102965675Y-48389725D01*
X102950542Y-48439608D01*
X102925966Y-48485588D01*
X102892891Y-48525891D01*
X102852588Y-48558966D01*
X102806608Y-48583542D01*
X102756725Y-48598675D01*
X102698591Y-48604400D01*
X101687809Y-48604400D01*
X101629675Y-48598675D01*
X101579792Y-48583542D01*
X101533812Y-48558966D01*
X101493509Y-48525891D01*
X101460434Y-48485588D01*
X101435858Y-48439608D01*
X101420725Y-48389725D01*
X101415000Y-48331591D01*
X101415000Y-47070809D01*
X101420725Y-47012675D01*
X101435858Y-46962792D01*
X101460434Y-46916812D01*
X101493509Y-46876509D01*
X101533812Y-46843434D01*
X101579792Y-46818858D01*
X101629675Y-46803725D01*
X101687809Y-46798000D01*
X102698591Y-46798000D01*
X102756725Y-46803725D01*
G37*
G36*
X133951111Y-46804017D02*
G01*
X134003880Y-46820025D01*
X134052493Y-46846009D01*
X134095114Y-46880986D01*
X134130091Y-46923607D01*
X134156075Y-46972220D01*
X134172083Y-47024989D01*
X134178100Y-47086084D01*
X134178100Y-48316316D01*
X134172083Y-48377411D01*
X134156075Y-48430180D01*
X134130091Y-48478793D01*
X134095114Y-48521414D01*
X134052493Y-48556391D01*
X134003880Y-48582375D01*
X133951111Y-48598383D01*
X133890016Y-48604400D01*
X133084784Y-48604400D01*
X133023689Y-48598383D01*
X132970920Y-48582375D01*
X132922307Y-48556391D01*
X132879686Y-48521414D01*
X132844709Y-48478793D01*
X132818725Y-48430180D01*
X132802717Y-48377411D01*
X132796700Y-48316316D01*
X132796700Y-47086084D01*
X132802717Y-47024989D01*
X132818725Y-46972220D01*
X132844709Y-46923607D01*
X132879686Y-46880986D01*
X132922307Y-46846009D01*
X132970920Y-46820025D01*
X133023689Y-46804017D01*
X133084784Y-46798000D01*
X133890016Y-46798000D01*
X133951111Y-46804017D01*
G37*
G36*
X95576800Y-48554400D02*
G01*
X93870400Y-48554400D01*
X93870400Y-46848000D01*
X95576800Y-46848000D01*
X95576800Y-48554400D01*
G37*
G36*
X93276800Y-48554400D02*
G01*
X91570400Y-48554400D01*
X91570400Y-46848000D01*
X93276800Y-46848000D01*
X93276800Y-48554400D01*
G37*
G36*
X145221600Y-47599000D02*
G01*
X142815200Y-47599000D01*
X142815200Y-45692600D01*
X145221600Y-45692600D01*
X145221600Y-47599000D01*
G37*
G36*
X151088500Y-45392100D02*
G01*
X149382100Y-45392100D01*
X149382100Y-43685700D01*
X151088500Y-43685700D01*
X151088500Y-45392100D01*
G37*
G36*
X148788500Y-45392100D02*
G01*
X147082100Y-45392100D01*
X147082100Y-43685700D01*
X148788500Y-43685700D01*
X148788500Y-45392100D01*
G37*
M02*
